<svg xmlns="http://www.w3.org/2000/svg" xmlns:xlink="http://www.w3.org/1999/xlink" width="291" zoomAndPan="magnify" viewBox="0 0 218.25 248.249984" height="331" preserveAspectRatio="xMidYMid meet" version="1.0"><defs><clipPath id="9bee4a46b2"><path d="M 5 5 L 74 5 L 74 54 L 5 54 Z M 5 5 " clip-rule="nonzero"/></clipPath><clipPath id="f4e2c60738"><path d="M 12.988281 0.0546875 L 78.449219 30.289062 L 65.460938 58.40625 L 0 28.171875 Z M 12.988281 0.0546875 " clip-rule="nonzero"/></clipPath><clipPath id="7e275a5e6a"><path d="M 64.339844 23.773438 C 72.105469 27.359375 75.492188 36.5625 71.90625 44.328125 C 68.320312 52.089844 59.117188 55.476562 51.351562 51.890625 L 14.058594 34.664062 C 6.292969 31.078125 2.90625 21.875 6.492188 14.113281 C 10.078125 6.347656 19.28125 2.960938 27.046875 6.546875 Z M 64.339844 23.773438 " clip-rule="nonzero"/></clipPath><clipPath id="e66f1724e1"><path d="M 144 5 L 213 5 L 213 54 L 144 54 Z M 144 5 " clip-rule="nonzero"/></clipPath><clipPath id="37ab0ce531"><path d="M 139.09375 30.671875 L 204.363281 0.0273438 L 217.527344 28.0625 L 152.257812 58.707031 Z M 139.09375 30.671875 " clip-rule="nonzero"/></clipPath><clipPath id="9d283c31e8"><path d="M 190.296875 6.632812 C 198.039062 2.996094 207.261719 6.324219 210.898438 14.066406 C 214.53125 21.808594 211.203125 31.03125 203.460938 34.667969 L 166.273438 52.125 C 158.53125 55.761719 149.308594 52.429688 145.675781 44.6875 C 142.039062 36.949219 145.371094 27.726562 153.113281 24.089844 Z M 190.296875 6.632812 " clip-rule="nonzero"/></clipPath><clipPath id="e03cfa43a6"><path d="M 0 163 L 146 163 L 146 247.449219 L 0 247.449219 Z M 0 163 " clip-rule="nonzero"/></clipPath></defs><g clip-path="url(#9bee4a46b2)"><g clip-path="url(#f4e2c60738)"><g clip-path="url(#7e275a5e6a)"><path fill="#232126" d="M 12.988281 0.0546875 L 78.449219 30.289062 L 65.460938 58.40625 L 0 28.171875 Z M 12.988281 0.0546875 " fill-opacity="1" fill-rule="nonzero"/></g></g></g><g clip-path="url(#e66f1724e1)"><g clip-path="url(#37ab0ce531)"><g clip-path="url(#9d283c31e8)"><path fill="#232126" d="M 139.09375 30.671875 L 204.363281 0.0273438 L 217.527344 28.0625 L 152.257812 58.707031 Z M 139.09375 30.671875 " fill-opacity="1" fill-rule="nonzero"/></g></g></g><g clip-path="url(#e03cfa43a6)"><path stroke-linecap="round" transform="matrix(-0.716325, -0.213383, 0.213383, -0.716325, 98.42442, 247.24332)" fill="none" stroke-linejoin="miter" d="M 8.169225 7.989112 C 45.621645 25.123659 83.074806 25.107729 120.52519 7.947821 " stroke="#232126" stroke-width="12" stroke-opacity="1" stroke-miterlimit="4"/></g></svg>