<svg xmlns="http://www.w3.org/2000/svg" xmlns:xlink="http://www.w3.org/1999/xlink" width="472" zoomAndPan="magnify" viewBox="0 0 354 268.499992" height="358" preserveAspectRatio="xMidYMid meet" version="1.0"><defs><clipPath id="65c81dbb17"><path d="M 38 0 L 144 0 L 144 123 L 38 123 Z M 38 0 " clip-rule="nonzero"/></clipPath><clipPath id="d2effbca65"><path d="M 353.195312 200.855469 L 43.597656 267.351562 L 0.523438 66.808594 L 310.121094 0.308594 Z M 353.195312 200.855469 " clip-rule="nonzero"/></clipPath><clipPath id="e62386ea00"><path d="M 43.472656 267.378906 L 353.070312 200.878906 L 275.09375 -162.148438 L -34.503906 -95.648438 Z M 43.472656 267.378906 " clip-rule="nonzero"/></clipPath><clipPath id="1f149b8e7a"><path d="M 163 102 L 251 102 L 251 212 L 163 212 Z M 163 102 " clip-rule="nonzero"/></clipPath><clipPath id="c874cafd85"><path d="M 353.195312 200.855469 L 43.597656 267.351562 L 0.523438 66.808594 L 310.121094 0.308594 Z M 353.195312 200.855469 " clip-rule="nonzero"/></clipPath><clipPath id="771b83729c"><path d="M 43.472656 267.378906 L 353.070312 200.878906 L 275.09375 -162.148438 L -34.503906 -95.648438 Z M 43.472656 267.378906 " clip-rule="nonzero"/></clipPath><clipPath id="3541cb4935"><path d="M 35 94 L 180 94 L 180 210 L 35 210 Z M 35 94 " clip-rule="nonzero"/></clipPath><clipPath id="3ac9aab155"><path d="M 353.195312 200.855469 L 43.597656 267.351562 L 0.523438 66.808594 L 310.121094 0.308594 Z M 353.195312 200.855469 " clip-rule="nonzero"/></clipPath><clipPath id="08f748babe"><path d="M 43.472656 267.378906 L 353.070312 200.878906 L 275.09375 -162.148438 L -34.503906 -95.648438 Z M 43.472656 267.378906 " clip-rule="nonzero"/></clipPath><clipPath id="67417fa807"><path d="M 141 165 L 210 165 L 210 233 L 141 233 Z M 141 165 " clip-rule="nonzero"/></clipPath><clipPath id="88c78186ba"><path d="M 353.195312 200.855469 L 43.597656 267.351562 L 0.523438 66.808594 L 310.121094 0.308594 Z M 353.195312 200.855469 " clip-rule="nonzero"/></clipPath><clipPath id="098fef80b1"><path d="M 43.472656 267.378906 L 353.070312 200.878906 L 275.09375 -162.148438 L -34.503906 -95.648438 Z M 43.472656 267.378906 " clip-rule="nonzero"/></clipPath><clipPath id="182c285659"><path d="M 159 183 L 192 183 L 192 215 L 159 215 Z M 159 183 " clip-rule="nonzero"/></clipPath><clipPath id="fdc6d7ece5"><path d="M 353.195312 200.855469 L 43.597656 267.351562 L 0.523438 66.808594 L 310.121094 0.308594 Z M 353.195312 200.855469 " clip-rule="nonzero"/></clipPath><clipPath id="cff69f599c"><path d="M 43.472656 267.378906 L 353.070312 200.878906 L 275.09375 -162.148438 L -34.503906 -95.648438 Z M 43.472656 267.378906 " clip-rule="nonzero"/></clipPath><clipPath id="2abf3cd060"><path d="M 18 83 L 96 83 L 96 161 L 18 161 Z M 18 83 " clip-rule="nonzero"/></clipPath><clipPath id="e5c664012b"><path d="M 353.195312 200.855469 L 43.597656 267.351562 L 0.523438 66.808594 L 310.121094 0.308594 Z M 353.195312 200.855469 " clip-rule="nonzero"/></clipPath><clipPath id="b28362a303"><path d="M 43.472656 267.378906 L 353.070312 200.878906 L 275.09375 -162.148438 L -34.503906 -95.648438 Z M 43.472656 267.378906 " clip-rule="nonzero"/></clipPath><clipPath id="6bd5386e9a"><path d="M 39 104 L 76 104 L 76 140 L 39 140 Z M 39 104 " clip-rule="nonzero"/></clipPath><clipPath id="f087ca2dd3"><path d="M 353.195312 200.855469 L 43.597656 267.351562 L 0.523438 66.808594 L 310.121094 0.308594 Z M 353.195312 200.855469 " clip-rule="nonzero"/></clipPath><clipPath id="b4433fb0fe"><path d="M 43.472656 267.378906 L 353.070312 200.878906 L 275.09375 -162.148438 L -34.503906 -95.648438 Z M 43.472656 267.378906 " clip-rule="nonzero"/></clipPath><clipPath id="2f67cf0a27"><path d="M 215 15 L 274 15 L 274 103 L 215 103 Z M 215 15 " clip-rule="nonzero"/></clipPath><clipPath id="aafcc84ad6"><path d="M 353.195312 200.855469 L 43.597656 267.351562 L 0.523438 66.808594 L 310.121094 0.308594 Z M 353.195312 200.855469 " clip-rule="nonzero"/></clipPath><clipPath id="3a3dbadcc6"><path d="M 43.472656 267.378906 L 353.070312 200.878906 L 275.09375 -162.148438 L -34.503906 -95.648438 Z M 43.472656 267.378906 " clip-rule="nonzero"/></clipPath><clipPath id="661174f21e"><path d="M 247 42 L 315 42 L 315 110 L 247 110 Z M 247 42 " clip-rule="nonzero"/></clipPath><clipPath id="4263cb67ff"><path d="M 353.195312 200.855469 L 43.597656 267.351562 L 0.523438 66.808594 L 310.121094 0.308594 Z M 353.195312 200.855469 " clip-rule="nonzero"/></clipPath><clipPath id="974c325804"><path d="M 43.472656 267.378906 L 353.070312 200.878906 L 275.09375 -162.148438 L -34.503906 -95.648438 Z M 43.472656 267.378906 " clip-rule="nonzero"/></clipPath><clipPath id="b086ef25bc"><path d="M 224 76 L 269 76 L 269 121 L 224 121 Z M 224 76 " clip-rule="nonzero"/></clipPath><clipPath id="731ace49cf"><path d="M 353.195312 200.855469 L 43.597656 267.351562 L 0.523438 66.808594 L 310.121094 0.308594 Z M 353.195312 200.855469 " clip-rule="nonzero"/></clipPath><clipPath id="8a1ee72647"><path d="M 43.472656 267.378906 L 353.070312 200.878906 L 275.09375 -162.148438 L -34.503906 -95.648438 Z M 43.472656 267.378906 " clip-rule="nonzero"/></clipPath><clipPath id="9f85be76a9"><path d="M 13 0 L 321 0 L 321 239 L 13 239 Z M 13 0 " clip-rule="nonzero"/></clipPath><clipPath id="ad53302bb4"><path d="M 353.195312 200.855469 L 43.597656 267.351562 L 0.523438 66.808594 L 310.121094 0.308594 Z M 353.195312 200.855469 " clip-rule="nonzero"/></clipPath><clipPath id="8529726967"><path d="M 43.472656 267.378906 L 353.070312 200.878906 L 275.09375 -162.148438 L -34.503906 -95.648438 Z M 43.472656 267.378906 " clip-rule="nonzero"/></clipPath><clipPath id="cf23a1441c"><path d="M 219.683594 139.480469 L 221.160156 139.480469 L 221.160156 140.726562 L 219.683594 140.726562 Z M 219.683594 139.480469 " clip-rule="nonzero"/></clipPath><clipPath id="b26537423b"><path d="M 221.132812 139.925781 C 220.457031 140.976562 219.859375 140.75 219.785156 140.527344 C 219.636719 140.375 219.710938 139.703125 219.933594 139.554688 C 220.160156 139.402344 220.90625 139.628906 220.90625 139.628906 " clip-rule="nonzero"/></clipPath></defs><g clip-path="url(#65c81dbb17)"><g clip-path="url(#d2effbca65)"><g clip-path="url(#e62386ea00)"><path fill="#1d1d1d" d="M 75.613281 -56.625 L 143.296875 -34.792969 L 75.335938 122.703125 L 38.734375 110.898438 Z M 75.613281 -56.625 " fill-opacity="1" fill-rule="evenodd"/></g></g></g><g clip-path="url(#1f149b8e7a)"><g clip-path="url(#c874cafd85)"><g clip-path="url(#771b83729c)"><path fill="#1d1d1d" d="M 163.058594 186.785156 L 200.65625 211.085938 L 250.375 115.238281 L 230.042969 102.09375 Z M 163.058594 186.785156 " fill-opacity="1" fill-rule="evenodd"/></g></g></g><g clip-path="url(#3541cb4935)"><g clip-path="url(#3ac9aab155)"><g clip-path="url(#08f748babe)"><path fill="#1d1d1d" d="M 35.808594 144.445312 L 67.832031 94.902344 L 179.429688 183.164062 L 162.113281 209.957031 Z M 35.808594 144.445312 " fill-opacity="1" fill-rule="evenodd"/></g></g></g><g clip-path="url(#67417fa807)"><g clip-path="url(#88c78186ba)"><g clip-path="url(#098fef80b1)"><path fill="#ffe500" d="M 208.765625 191.878906 C 208.535156 190.792969 208.246094 189.71875 207.910156 188.660156 C 207.570312 187.605469 207.179688 186.566406 206.738281 185.542969 C 206.300781 184.523438 205.808594 183.53125 205.269531 182.558594 C 204.730469 181.585938 204.148438 180.644531 203.515625 179.730469 C 202.886719 178.816406 202.210938 177.933594 201.492188 177.085938 C 200.773438 176.238281 200.015625 175.425781 199.21875 174.652344 C 198.421875 173.878906 197.589844 173.148438 196.71875 172.457031 C 195.851562 171.765625 194.949219 171.117188 194.015625 170.511719 C 193.082031 169.910156 192.121094 169.355469 191.136719 168.84375 C 190.148438 168.335938 189.136719 167.878906 188.105469 167.46875 C 187.070312 167.058594 186.019531 166.699219 184.953125 166.394531 C 183.886719 166.089844 182.804688 165.835938 181.710938 165.636719 C 180.621094 165.433594 179.519531 165.289062 178.414062 165.195312 C 177.304688 165.105469 176.195312 165.066406 175.085938 165.085938 C 173.972656 165.101562 172.867188 165.171875 171.761719 165.296875 C 170.660156 165.421875 169.5625 165.601562 168.476562 165.835938 C 167.390625 166.070312 166.320312 166.355469 165.261719 166.695312 C 164.203125 167.03125 163.164062 167.421875 162.144531 167.863281 C 161.125 168.304688 160.128906 168.792969 159.15625 169.332031 C 158.1875 169.871094 157.242188 170.457031 156.328125 171.085938 C 155.414062 171.71875 154.535156 172.394531 153.683594 173.109375 C 152.835938 173.828125 152.027344 174.585938 151.253906 175.382812 C 150.480469 176.179688 149.746094 177.015625 149.054688 177.882812 C 148.363281 178.753906 147.714844 179.65625 147.113281 180.585938 C 146.511719 181.519531 145.953125 182.480469 145.445312 183.46875 C 144.9375 184.457031 144.476562 185.464844 144.066406 186.5 C 143.660156 187.53125 143.300781 188.582031 142.996094 189.648438 C 142.6875 190.71875 142.433594 191.796875 142.234375 192.890625 C 142.035156 193.984375 141.890625 195.085938 141.796875 196.191406 C 141.703125 197.296875 141.667969 198.40625 141.683594 199.519531 C 141.699219 200.628906 141.773438 201.738281 141.898438 202.839844 C 142.023438 203.945312 142.203125 205.039062 142.4375 206.125 C 142.667969 207.210938 142.957031 208.285156 143.292969 209.339844 C 143.632812 210.398438 144.023438 211.4375 144.464844 212.457031 C 144.902344 213.476562 145.394531 214.472656 145.933594 215.445312 C 146.472656 216.417969 147.054688 217.359375 147.6875 218.273438 C 148.320312 219.1875 148.992188 220.070312 149.710938 220.917969 C 150.429688 221.765625 151.1875 222.578125 151.984375 223.351562 C 152.78125 224.125 153.613281 224.855469 154.484375 225.546875 C 155.351562 226.238281 156.253906 226.886719 157.1875 227.488281 C 158.121094 228.09375 159.082031 228.648438 160.070312 229.15625 C 161.054688 229.667969 162.066406 230.125 163.097656 230.535156 C 164.132812 230.945312 165.183594 231.300781 166.25 231.609375 C 167.316406 231.914062 168.398438 232.167969 169.492188 232.367188 C 170.585938 232.570312 171.683594 232.714844 172.792969 232.808594 C 173.898438 232.898438 175.007812 232.9375 176.117188 232.917969 C 177.230469 232.902344 178.335938 232.832031 179.441406 232.707031 C 180.542969 232.578125 181.640625 232.398438 182.726562 232.167969 C 183.8125 231.933594 184.882812 231.648438 185.941406 231.308594 C 187 230.96875 188.039062 230.582031 189.058594 230.140625 C 190.078125 229.699219 191.074219 229.210938 192.046875 228.671875 C 193.015625 228.132812 193.960938 227.546875 194.875 226.917969 C 195.789062 226.285156 196.671875 225.609375 197.519531 224.894531 C 198.367188 224.175781 199.175781 223.417969 199.949219 222.621094 C 200.722656 221.824219 201.457031 220.988281 202.148438 220.121094 C 202.839844 219.25 203.488281 218.347656 204.089844 217.414062 C 204.691406 216.484375 205.25 215.523438 205.757812 214.535156 C 206.265625 213.546875 206.726562 212.535156 207.136719 211.503906 C 207.542969 210.472656 207.902344 209.421875 208.207031 208.351562 C 208.515625 207.285156 208.769531 206.203125 208.96875 205.113281 C 209.167969 204.019531 209.316406 202.917969 209.40625 201.8125 C 209.5 200.707031 209.535156 199.597656 209.519531 198.484375 C 209.503906 197.375 209.429688 196.265625 209.304688 195.164062 C 209.179688 194.058594 209 192.964844 208.765625 191.878906 Z M 208.765625 191.878906 " fill-opacity="1" fill-rule="nonzero"/></g></g></g><g clip-path="url(#182c285659)"><g clip-path="url(#fdc6d7ece5)"><g clip-path="url(#cff69f599c)"><path fill="#232126" d="M 167.027344 212.269531 C 174.351562 217.003906 184.132812 214.90625 188.867188 207.578125 C 193.605469 200.25 191.503906 190.472656 184.175781 185.734375 C 176.847656 181 167.070312 183.097656 162.332031 190.425781 C 157.597656 197.753906 159.699219 207.53125 167.027344 212.269531 Z M 167.027344 212.269531 " fill-opacity="1" fill-rule="evenodd"/></g></g></g><g clip-path="url(#2abf3cd060)"><g clip-path="url(#e5c664012b)"><g clip-path="url(#b28362a303)"><path fill="#ffe500" d="M 94.789062 113.875 C 94.523438 112.640625 94.199219 111.421875 93.8125 110.222656 C 93.429688 109.019531 92.984375 107.839844 92.484375 106.679688 C 91.984375 105.519531 91.425781 104.390625 90.816406 103.285156 C 90.203125 102.179688 89.539062 101.109375 88.820312 100.070312 C 88.105469 99.03125 87.339844 98.03125 86.523438 97.066406 C 85.707031 96.105469 84.847656 95.183594 83.941406 94.304688 C 83.035156 93.425781 82.085938 92.59375 81.097656 91.808594 C 80.113281 91.019531 79.085938 90.285156 78.027344 89.601562 C 76.96875 88.914062 75.875 88.285156 74.753906 87.707031 C 73.632812 87.128906 72.484375 86.605469 71.308594 86.140625 C 70.136719 85.675781 68.945312 85.269531 67.730469 84.921875 C 66.515625 84.574219 65.289062 84.285156 64.046875 84.058594 C 62.804688 83.832031 61.554688 83.664062 60.296875 83.558594 C 59.039062 83.457031 57.78125 83.414062 56.519531 83.433594 C 55.257812 83.449219 53.996094 83.53125 52.742188 83.675781 C 51.488281 83.816406 50.246094 84.023438 49.011719 84.285156 C 47.777344 84.550781 46.558594 84.875 45.355469 85.261719 C 44.15625 85.644531 42.972656 86.089844 41.816406 86.589844 C 40.65625 87.089844 39.523438 87.648438 38.421875 88.257812 C 37.316406 88.871094 36.246094 89.535156 35.207031 90.253906 C 34.167969 90.96875 33.167969 91.734375 32.203125 92.550781 C 31.238281 93.367188 30.320312 94.226562 29.441406 95.132812 C 28.5625 96.039062 27.730469 96.988281 26.941406 97.976562 C 26.15625 98.960938 25.421875 99.988281 24.734375 101.046875 C 24.050781 102.105469 23.417969 103.199219 22.839844 104.320312 C 22.261719 105.441406 21.742188 106.589844 21.277344 107.765625 C 20.8125 108.9375 20.40625 110.128906 20.054688 111.34375 C 19.707031 112.558594 19.421875 113.785156 19.195312 115.027344 C 18.964844 116.269531 18.800781 117.519531 18.695312 118.777344 C 18.589844 120.035156 18.546875 121.292969 18.566406 122.554688 C 18.585938 123.816406 18.667969 125.078125 18.808594 126.332031 C 18.953125 127.585938 19.15625 128.828125 19.421875 130.0625 C 19.6875 131.296875 20.011719 132.515625 20.398438 133.71875 C 20.78125 134.921875 21.226562 136.101562 21.726562 137.257812 C 22.226562 138.417969 22.78125 139.550781 23.394531 140.652344 C 24.007812 141.757812 24.671875 142.828125 25.386719 143.867188 C 26.105469 144.90625 26.871094 145.90625 27.6875 146.871094 C 28.503906 147.835938 29.363281 148.753906 30.269531 149.632812 C 31.175781 150.511719 32.121094 151.347656 33.109375 152.132812 C 34.097656 152.917969 35.121094 153.652344 36.183594 154.339844 C 37.242188 155.023438 38.332031 155.65625 39.457031 156.234375 C 40.578125 156.8125 41.726562 157.332031 42.898438 157.796875 C 44.074219 158.261719 45.265625 158.667969 46.480469 159.019531 C 47.691406 159.367188 48.921875 159.652344 50.164062 159.882812 C 51.402344 160.109375 52.652344 160.273438 53.910156 160.378906 C 55.167969 160.484375 56.429688 160.527344 57.691406 160.507812 C 58.953125 160.488281 60.210938 160.40625 61.464844 160.265625 C 62.71875 160.121094 63.964844 159.917969 65.199219 159.652344 C 66.433594 159.386719 67.652344 159.0625 68.851562 158.675781 C 70.054688 158.292969 71.234375 157.851562 72.394531 157.347656 C 73.554688 156.847656 74.683594 156.292969 75.789062 155.679688 C 76.894531 155.066406 77.964844 154.402344 79.003906 153.6875 C 80.042969 152.96875 81.042969 152.203125 82.007812 151.386719 C 82.96875 150.570312 83.890625 149.710938 84.769531 148.804688 C 85.648438 147.898438 86.480469 146.953125 87.265625 145.964844 C 88.054688 144.976562 88.789062 143.953125 89.472656 142.890625 C 90.160156 141.832031 90.789062 140.742188 91.367188 139.617188 C 91.945312 138.496094 92.46875 137.347656 92.933594 136.175781 C 93.398438 135 93.804688 133.808594 94.152344 132.59375 C 94.5 131.382812 94.789062 130.152344 95.015625 128.914062 C 95.242188 127.671875 95.410156 126.421875 95.515625 125.164062 C 95.617188 123.90625 95.660156 122.644531 95.640625 121.382812 C 95.625 120.121094 95.542969 118.863281 95.398438 117.609375 C 95.257812 116.355469 95.050781 115.109375 94.789062 113.875 Z M 94.789062 113.875 " fill-opacity="1" fill-rule="nonzero"/></g></g></g><g clip-path="url(#6bd5386e9a)"><g clip-path="url(#f087ca2dd3)"><g clip-path="url(#b4433fb0fe)"><path fill="#232126" d="M 74.652344 118.199219 C 74.53125 117.625 74.378906 117.058594 74.199219 116.5 C 74.019531 115.9375 73.816406 115.386719 73.582031 114.847656 C 73.347656 114.308594 73.089844 113.78125 72.804688 113.269531 C 72.519531 112.753906 72.210938 112.253906 71.875 111.769531 C 71.542969 111.289062 71.183594 110.820312 70.804688 110.371094 C 70.425781 109.925781 70.023438 109.496094 69.601562 109.085938 C 69.179688 108.675781 68.738281 108.289062 68.277344 107.921875 C 67.820312 107.558594 67.34375 107.214844 66.847656 106.894531 C 66.355469 106.574219 65.847656 106.28125 65.324219 106.011719 C 64.800781 105.742188 64.265625 105.5 63.71875 105.285156 C 63.175781 105.066406 62.617188 104.878906 62.054688 104.714844 C 61.488281 104.554688 60.917969 104.417969 60.339844 104.3125 C 59.761719 104.207031 59.179688 104.128906 58.59375 104.082031 C 58.007812 104.035156 57.417969 104.011719 56.832031 104.023438 C 56.242188 104.03125 55.65625 104.070312 55.074219 104.136719 C 54.488281 104.203125 53.910156 104.296875 53.335938 104.421875 C 52.761719 104.542969 52.195312 104.695312 51.632812 104.875 C 51.074219 105.054688 50.523438 105.261719 49.984375 105.492188 C 49.445312 105.726562 48.917969 105.984375 48.402344 106.269531 C 47.890625 106.554688 47.390625 106.863281 46.90625 107.199219 C 46.421875 107.53125 45.957031 107.890625 45.507812 108.269531 C 45.058594 108.648438 44.628906 109.050781 44.222656 109.472656 C 43.8125 109.894531 43.425781 110.335938 43.058594 110.796875 C 42.691406 111.253906 42.351562 111.730469 42.03125 112.226562 C 41.710938 112.71875 41.417969 113.226562 41.148438 113.75 C 40.878906 114.273438 40.636719 114.808594 40.417969 115.355469 C 40.203125 115.898438 40.011719 116.457031 39.851562 117.019531 C 39.6875 117.585938 39.554688 118.15625 39.449219 118.734375 C 39.34375 119.3125 39.265625 119.894531 39.21875 120.480469 C 39.167969 121.066406 39.148438 121.65625 39.15625 122.242188 C 39.167969 122.832031 39.203125 123.417969 39.269531 124 C 39.335938 124.585938 39.433594 125.164062 39.554688 125.738281 C 39.679688 126.3125 39.832031 126.878906 40.011719 127.441406 C 40.1875 128 40.394531 128.550781 40.628906 129.089844 C 40.863281 129.628906 41.121094 130.15625 41.40625 130.671875 C 41.691406 131.183594 42 131.683594 42.335938 132.167969 C 42.667969 132.652344 43.023438 133.117188 43.40625 133.566406 C 43.785156 134.015625 44.1875 134.445312 44.609375 134.851562 C 45.03125 135.261719 45.472656 135.648438 45.929688 136.015625 C 46.390625 136.382812 46.867188 136.722656 47.363281 137.042969 C 47.855469 137.363281 48.363281 137.65625 48.886719 137.925781 C 49.410156 138.195312 49.941406 138.4375 50.488281 138.65625 C 51.035156 138.871094 51.589844 139.0625 52.15625 139.222656 C 52.722656 139.386719 53.292969 139.519531 53.871094 139.625 C 54.449219 139.730469 55.03125 139.808594 55.617188 139.855469 C 56.203125 139.90625 56.789062 139.925781 57.378906 139.917969 C 57.964844 139.90625 58.550781 139.871094 59.136719 139.804688 C 59.71875 139.738281 60.300781 139.640625 60.875 139.519531 C 61.449219 139.394531 62.015625 139.242188 62.578125 139.0625 C 63.136719 138.886719 63.6875 138.679688 64.226562 138.445312 C 64.765625 138.210938 65.292969 137.953125 65.804688 137.667969 C 66.320312 137.382812 66.820312 137.074219 67.304688 136.738281 C 67.785156 136.40625 68.253906 136.050781 68.703125 135.667969 C 69.148438 135.289062 69.578125 134.886719 69.988281 134.464844 C 70.398438 134.042969 70.785156 133.605469 71.152344 133.144531 C 71.515625 132.683594 71.859375 132.207031 72.179688 131.714844 C 72.5 131.21875 72.792969 130.710938 73.0625 130.1875 C 73.332031 129.664062 73.574219 129.132812 73.789062 128.585938 C 74.007812 128.039062 74.195312 127.484375 74.359375 126.917969 C 74.519531 126.351562 74.65625 125.78125 74.761719 125.203125 C 74.867188 124.625 74.945312 124.042969 74.992188 123.457031 C 75.042969 122.871094 75.0625 122.285156 75.050781 121.695312 C 75.042969 121.109375 75.003906 120.523438 74.9375 119.9375 C 74.871094 119.355469 74.777344 118.773438 74.652344 118.199219 Z M 74.652344 118.199219 " fill-opacity="1" fill-rule="nonzero"/></g></g></g><g clip-path="url(#2f67cf0a27)"><g clip-path="url(#aafcc84ad6)"><g clip-path="url(#3a3dbadcc6)"><path fill="#1d1d1d" d="M 236.304688 102.199219 L 256.007812 84.222656 L 238.78125 46.691406 L 273.132812 20.359375 L 265.839844 15.648438 L 215.316406 37.984375 Z M 236.304688 102.199219 " fill-opacity="1" fill-rule="evenodd"/></g></g></g><g clip-path="url(#661174f21e)"><g clip-path="url(#4263cb67ff)"><g clip-path="url(#974c325804)"><path fill="#1d1d1d" d="M 247.707031 109.566406 L 256.007812 84.222656 L 297.304688 84.515625 L 307.203125 42.382812 L 314.496094 47.097656 L 314.875 102.339844 Z M 247.707031 109.566406 " fill-opacity="1" fill-rule="evenodd"/></g></g></g><g clip-path="url(#b086ef25bc)"><g clip-path="url(#731ace49cf)"><g clip-path="url(#8a1ee72647)"><path fill="#ffe500" d="M 268.113281 94.21875 C 267.960938 93.511719 267.777344 92.8125 267.554688 92.125 C 267.335938 91.4375 267.082031 90.761719 266.796875 90.101562 C 266.507812 89.4375 266.191406 88.789062 265.839844 88.15625 C 265.492188 87.527344 265.109375 86.914062 264.699219 86.320312 C 264.289062 85.726562 263.851562 85.152344 263.386719 84.601562 C 262.917969 84.050781 262.425781 83.523438 261.90625 83.019531 C 261.390625 82.515625 260.847656 82.039062 260.28125 81.589844 C 259.71875 81.140625 259.132812 80.71875 258.523438 80.328125 C 257.917969 79.9375 257.292969 79.574219 256.652344 79.246094 C 256.011719 78.914062 255.351562 78.613281 254.683594 78.347656 C 254.011719 78.082031 253.328125 77.851562 252.632812 77.652344 C 251.9375 77.453125 251.238281 77.289062 250.527344 77.15625 C 249.816406 77.027344 249.101562 76.933594 248.382812 76.871094 C 247.660156 76.8125 246.941406 76.789062 246.21875 76.800781 C 245.496094 76.808594 244.777344 76.855469 244.058594 76.9375 C 243.339844 77.019531 242.628906 77.136719 241.921875 77.289062 C 241.21875 77.441406 240.519531 77.625 239.832031 77.847656 C 239.144531 78.066406 238.46875 78.320312 237.804688 78.605469 C 237.144531 78.890625 236.496094 79.210938 235.863281 79.5625 C 235.234375 79.910156 234.621094 80.292969 234.027344 80.703125 C 233.429688 81.113281 232.859375 81.550781 232.308594 82.015625 C 231.757812 82.484375 231.230469 82.976562 230.726562 83.496094 C 230.222656 84.011719 229.746094 84.554688 229.296875 85.121094 C 228.847656 85.683594 228.425781 86.269531 228.035156 86.878906 C 227.644531 87.484375 227.28125 88.109375 226.949219 88.75 C 226.621094 89.390625 226.320312 90.050781 226.054688 90.71875 C 225.789062 91.390625 225.558594 92.074219 225.359375 92.769531 C 225.160156 93.460938 224.992188 94.164062 224.863281 94.875 C 224.734375 95.585938 224.640625 96.300781 224.578125 97.019531 C 224.519531 97.742188 224.496094 98.460938 224.503906 99.183594 C 224.515625 99.90625 224.5625 100.625 224.644531 101.34375 C 224.726562 102.058594 224.84375 102.773438 224.996094 103.476562 C 225.148438 104.183594 225.332031 104.882812 225.550781 105.570312 C 225.773438 106.257812 226.027344 106.933594 226.3125 107.59375 C 226.597656 108.257812 226.917969 108.90625 227.265625 109.539062 C 227.617188 110.167969 227.996094 110.78125 228.40625 111.375 C 228.820312 111.96875 229.257812 112.542969 229.722656 113.09375 C 230.191406 113.644531 230.683594 114.171875 231.199219 114.675781 C 231.71875 115.179688 232.261719 115.65625 232.828125 116.105469 C 233.390625 116.554688 233.976562 116.976562 234.582031 117.367188 C 235.191406 117.757812 235.816406 118.121094 236.457031 118.449219 C 237.097656 118.78125 237.753906 119.082031 238.425781 119.347656 C 239.097656 119.613281 239.78125 119.84375 240.476562 120.042969 C 241.167969 120.242188 241.871094 120.40625 242.582031 120.539062 C 243.292969 120.667969 244.007812 120.761719 244.726562 120.824219 C 245.445312 120.882812 246.167969 120.90625 246.890625 120.894531 C 247.613281 120.886719 248.332031 120.839844 249.050781 120.757812 C 249.765625 120.675781 250.480469 120.558594 251.183594 120.40625 C 251.890625 120.253906 252.589844 120.070312 253.277344 119.847656 C 253.964844 119.628906 254.640625 119.375 255.300781 119.089844 C 255.964844 118.804688 256.613281 118.484375 257.242188 118.132812 C 257.875 117.785156 258.488281 117.402344 259.082031 116.992188 C 259.675781 116.582031 260.25 116.144531 260.800781 115.679688 C 261.351562 115.210938 261.878906 114.71875 262.382812 114.199219 C 262.886719 113.683594 263.363281 113.140625 263.8125 112.574219 C 264.261719 112.011719 264.679688 111.425781 265.074219 110.816406 C 265.464844 110.210938 265.828125 109.585938 266.15625 108.945312 C 266.488281 108.304688 266.785156 107.648438 267.054688 106.976562 C 267.320312 106.304688 267.550781 105.621094 267.75 104.925781 C 267.949219 104.234375 268.113281 103.53125 268.246094 102.820312 C 268.375 102.109375 268.46875 101.394531 268.53125 100.675781 C 268.589844 99.953125 268.613281 99.234375 268.601562 98.511719 C 268.59375 97.789062 268.546875 97.070312 268.464844 96.351562 C 268.382812 95.636719 268.265625 94.921875 268.113281 94.21875 Z M 268.113281 94.21875 " fill-opacity="1" fill-rule="nonzero"/></g></g></g><g clip-path="url(#9f85be76a9)"><g clip-path="url(#ad53302bb4)"><g clip-path="url(#8529726967)"><path fill="#000000" d="M 302.4375 85.769531 C 301.863281 88.160156 299.730469 89.84375 297.269531 89.828125 L 272.246094 89.648438 C 273.601562 93.433594 274.113281 97.5 273.746094 101.527344 L 309.585938 97.675781 L 309.3125 56.5 Z M 186.355469 236.714844 L 181.273438 237.804688 C 172.203125 239.136719 162.632812 237.316406 154.347656 231.960938 C 143.886719 225.191406 137.742188 214.246094 136.636719 202.707031 L 64.367188 165.214844 C 53.546875 167.035156 42.617188 164.792969 33.339844 158.804688 C 23.515625 152.453125 16.746094 142.660156 14.289062 131.222656 C 11.832031 119.78125 13.980469 108.066406 20.332031 98.246094 C 25.105469 90.84375 31.84375 85.183594 39.792969 81.78125 L 67.390625 -43.589844 C 67.3125 -43.957031 67.199219 -44.3125 67.121094 -44.679688 L 59.632812 -79.535156 L 45.253906 -76.445312 C 38.550781 -75.003906 31.917969 -79.285156 30.480469 -85.984375 L 28.300781 -96.121094 C 26.863281 -102.820312 31.152344 -109.449219 37.855469 -110.890625 L 152.230469 -135.453125 C 158.933594 -136.894531 165.566406 -132.613281 167.007812 -125.914062 L 169.183594 -115.777344 C 170.621094 -109.074219 166.332031 -102.453125 159.628906 -101.011719 L 145.25 -97.921875 L 152.734375 -63.070312 C 155.085938 -52.132812 153.082031 -41.25 147.96875 -32.230469 L 92.539062 96.21875 C 96.085938 101.113281 98.628906 106.730469 99.9375 112.824219 C 100.007812 113.144531 100.074219 113.457031 100.144531 113.777344 L 161.691406 162.457031 C 163.527344 161.753906 165.464844 161.179688 167.402344 160.761719 C 170.753906 160.042969 174.203125 159.769531 177.640625 159.945312 L 220.238281 106.097656 C 220.097656 105.613281 219.960938 105.128906 219.855469 104.640625 C 218.320312 97.503906 219.679688 90.199219 223.644531 84.070312 C 223.882812 83.667969 224.160156 83.269531 224.4375 82.882812 L 210.347656 39.667969 C 209.507812 37.101562 210.753906 34.316406 213.195312 33.230469 L 263.71875 10.890625 C 264.050781 10.746094 264.386719 10.636719 264.769531 10.554688 C 266.117188 10.265625 267.542969 10.515625 268.722656 11.28125 L 275.992188 16 C 277.453125 16.917969 278.335938 18.496094 278.410156 20.199219 C 278.488281 21.910156 277.71875 23.546875 276.351562 24.585938 L 245.335938 48.363281 L 256.910156 73.628906 C 258.457031 74.265625 259.960938 75.039062 261.386719 75.964844 C 262.820312 76.898438 264.164062 77.9375 265.347656 79.082031 L 293.160156 79.277344 L 302.089844 41.234375 C 302.492188 39.566406 303.679688 38.191406 305.242188 37.558594 C 305.542969 37.445312 305.816406 37.355469 306.125 37.289062 C 307.472656 37 308.902344 37.253906 310.078125 38.015625 L 317.347656 42.734375 C 318.855469 43.691406 319.753906 45.339844 319.769531 47.113281 L 320.136719 102.355469 C 320.175781 105.054688 318.132812 107.335938 315.445312 107.617188 L 270.246094 112.484375 C 270.007812 112.902344 269.773438 113.3125 269.5 113.722656 C 265.132812 120.496094 258.222656 124.6875 250.84375 125.855469 L 214.636719 195.660156 C 215.351562 204.046875 213.417969 212.726562 208.507812 220.324219 C 203.152344 228.613281 195.171875 234.203125 186.355469 236.714844 Z M 255.691406 84.792969 C 251.914062 82.363281 247.433594 81.539062 243.042969 82.480469 C 238.65625 83.425781 234.90625 86.015625 232.464844 89.785156 C 230.019531 93.550781 229.210938 98.039062 230.152344 102.425781 C 231.09375 106.8125 233.675781 110.566406 237.449219 113 C 241.351562 115.515625 245.878906 116.214844 250.097656 115.308594 C 254.3125 114.40625 258.152344 111.90625 260.675781 108.011719 C 265.699219 100.238281 263.460938 89.824219 255.691406 84.792969 Z M 235.59375 42.570312 C 233.636719 44.0625 233.007812 46.699219 234.03125 48.933594 L 244.449219 71.671875 C 243.242188 71.773438 242.046875 71.9375 240.835938 72.199219 C 238.039062 72.800781 235.398438 73.816406 233.015625 75.183594 L 221.789062 40.925781 L 259.46875 24.273438 Z M 189.175781 162.304688 C 191.84375 163.28125 194.429688 164.550781 196.871094 166.152344 C 202.828125 169.972656 207.339844 175.15625 210.367188 181.015625 L 239.316406 125.226562 C 236.703125 124.507812 234.148438 123.382812 231.753906 121.832031 C 229.367188 120.304688 227.300781 118.441406 225.546875 116.335938 Z M 151.53125 183.5 C 142.953125 196.769531 146.773438 214.546875 160.042969 223.128906 C 166.675781 227.417969 174.453125 228.605469 181.644531 227.0625 C 188.796875 225.527344 195.398438 221.246094 199.6875 214.613281 C 208.261719 201.339844 204.445312 183.5625 191.175781 174.984375 C 177.90625 166.398438 160.140625 170.21875 151.53125 183.5 Z M 100.570312 127.558594 C 99.78125 133.980469 97.535156 140.191406 93.894531 145.796875 C 89.882812 152.035156 84.449219 157.039062 78.070312 160.496094 L 137.234375 191.179688 C 138.191406 186.539062 139.996094 181.996094 142.710938 177.785156 C 145.207031 173.921875 148.265625 170.65625 151.746094 167.996094 Z M 128.808594 -14.375 C 125.757812 -12.925781 122.527344 -11.796875 119.140625 -11.070312 C 101.789062 -7.34375 84.632812 -14.5 74.699219 -27.902344 L 51.261719 78.625 C 61.625 77.207031 72.023438 79.5 80.886719 85.238281 C 82.191406 86.082031 83.46875 86.984375 84.652344 87.949219 Z M 134.949219 -95.710938 L 69.933594 -81.746094 L 77.421875 -46.890625 C 81.273438 -28.960938 98.992188 -17.503906 116.929688 -21.355469 C 134.835938 -25.203125 146.285156 -42.925781 142.4375 -60.855469 Z M 158.882812 -113.566406 L 156.707031 -123.699219 C 156.488281 -124.730469 155.476562 -125.390625 154.4375 -125.167969 L 40.066406 -100.601562 C 39.03125 -100.378906 38.351562 -99.335938 38.566406 -98.324219 L 40.746094 -88.191406 C 40.960938 -87.175781 42.011719 -86.503906 43.046875 -86.726562 L 157.417969 -111.292969 C 158.457031 -111.515625 159.105469 -112.535156 158.882812 -113.566406 Z M 39.035156 149.976562 C 46.507812 154.800781 55.425781 156.425781 64.101562 154.5625 C 72.8125 152.691406 80.242188 147.554688 85.078125 140.089844 C 95.035156 124.675781 90.601562 104.03125 75.191406 94.066406 C 67.71875 89.242188 58.835938 87.609375 50.125 89.480469 C 41.449219 91.34375 33.984375 96.488281 29.152344 103.957031 C 19.191406 119.367188 23.625 140.011719 39.035156 149.976562 Z M 44.707031 124.6875 C 45.417969 128.003906 47.398438 130.835938 50.21875 132.683594 C 53.074219 134.519531 56.460938 135.140625 59.777344 134.429688 C 63.097656 133.714844 65.929688 131.757812 67.777344 128.910156 C 69.625 126.0625 70.234375 122.671875 69.523438 119.359375 C 68.8125 116.042969 66.863281 113.199219 64.007812 111.363281 C 61.15625 109.527344 57.765625 108.902344 54.449219 109.613281 C 51.132812 110.328125 48.296875 112.289062 46.449219 115.132812 C 44.636719 117.972656 43.992188 121.375 44.707031 124.6875 Z M 69.707031 102.535156 C 64.332031 99.058594 58.050781 98.09375 52.242188 99.34375 C 46.4375 100.589844 41.105469 104.050781 37.632812 109.421875 C 30.683594 120.167969 33.773438 134.566406 44.523438 141.511719 C 55.269531 148.457031 69.648438 145.367188 76.597656 134.625 C 83.546875 123.875 80.453125 109.476562 69.707031 102.535156 Z M 181.320312 190.207031 C 178.964844 188.675781 176.144531 188.160156 173.414062 188.75 C 170.648438 189.34375 168.285156 190.972656 166.765625 193.332031 C 165.25 195.695312 164.734375 198.511719 165.324219 201.261719 C 165.914062 204.015625 167.542969 206.371094 169.898438 207.90625 C 172.25 209.433594 175.074219 209.949219 177.839844 209.355469 C 180.570312 208.769531 182.929688 207.140625 184.449219 204.777344 C 186 202.40625 186.515625 199.589844 185.925781 196.835938 C 185.335938 194.085938 183.707031 191.730469 181.320312 190.207031 Z M 193.304688 210.480469 C 196.339844 205.761719 197.375 200.132812 196.191406 194.628906 C 195.011719 189.136719 191.757812 184.425781 187.050781 181.367188 C 182.308594 178.316406 176.699219 177.285156 171.203125 178.464844 C 165.707031 179.644531 160.984375 182.898438 157.949219 187.617188 C 154.878906 192.347656 153.84375 197.976562 155.023438 203.472656 C 156.207031 208.976562 159.460938 213.683594 164.203125 216.730469 C 168.90625 219.789062 174.550781 220.820312 180.046875 219.636719 C 185.542969 218.457031 190.234375 215.207031 193.304688 210.480469 Z M 107.125 -67.011719 C 99.867188 -65.453125 95.253906 -58.300781 96.8125 -51.058594 C 98.367188 -43.816406 105.507812 -39.183594 112.765625 -40.742188 C 119.988281 -42.296875 124.636719 -49.457031 123.078125 -56.699219 C 121.523438 -63.941406 114.347656 -68.5625 107.125 -67.011719 Z M 114.976562 -30.460938 C 127.867188 -33.230469 136.117188 -45.996094 133.34375 -58.902344 C 130.570312 -71.816406 117.808594 -80.0625 104.914062 -77.296875 C 91.988281 -74.519531 83.738281 -61.757812 86.511719 -48.84375 C 89.285156 -35.933594 102.046875 -27.683594 114.976562 -30.460938 Z M 114.976562 -30.460938 " fill-opacity="1" fill-rule="evenodd"/></g></g></g><g clip-path="url(#cf23a1441c)"><g clip-path="url(#b26537423b)"><path fill="#232126" d="M 216.789062 136.558594 L 224.195312 136.558594 L 224.195312 143.820312 L 216.789062 143.820312 Z M 216.789062 136.558594 " fill-opacity="1" fill-rule="nonzero"/></g></g></svg>