<svg xmlns="http://www.w3.org/2000/svg" xmlns:xlink="http://www.w3.org/1999/xlink" width="367" zoomAndPan="magnify" viewBox="0 0 275.25 59.249999" height="79" preserveAspectRatio="xMidYMid meet" version="1.0"><defs><clipPath id="7645b7e88b"><path d="M 6 5 L 75 5 L 75 53 L 6 53 Z M 6 5 " clip-rule="nonzero"/></clipPath><clipPath id="d3bfb1d634"><path d="M 1.351562 28.980469 L 66.933594 0.628906 L 79.113281 28.796875 L 13.527344 57.152344 Z M 1.351562 28.980469 " clip-rule="nonzero"/></clipPath><clipPath id="2d241d0546"><path d="M 52.800781 6.738281 C 60.578125 3.375 69.609375 6.953125 72.972656 14.734375 C 76.335938 22.511719 72.757812 31.542969 64.980469 34.90625 L 27.613281 51.0625 C 19.835938 54.425781 10.800781 50.84375 7.4375 43.066406 C 4.074219 35.289062 7.65625 26.253906 15.433594 22.890625 Z M 52.800781 6.738281 " clip-rule="nonzero"/></clipPath><clipPath id="c954b78b2b"><path d="M 200 5 L 268 5 L 268 54 L 200 54 Z M 200 5 " clip-rule="nonzero"/></clipPath><clipPath id="009b0fd09c"><path d="M 208.117188 0 L 272.707031 30.550781 L 259.585938 58.292969 L 194.996094 27.746094 Z M 208.117188 0 " clip-rule="nonzero"/></clipPath><clipPath id="9804ac177c"><path d="M 258.789062 23.964844 C 266.449219 27.589844 269.722656 36.738281 266.101562 44.398438 C 262.476562 52.058594 253.328125 55.332031 245.667969 51.710938 L 208.867188 34.304688 C 201.207031 30.683594 197.933594 21.535156 201.558594 13.875 C 205.179688 6.210938 214.328125 2.9375 221.988281 6.5625 Z M 258.789062 23.964844 " clip-rule="nonzero"/></clipPath></defs><g clip-path="url(#7645b7e88b)"><g clip-path="url(#d3bfb1d634)"><g clip-path="url(#2d241d0546)"><path fill="#232126" d="M 1.351562 28.980469 L 66.933594 0.628906 L 79.113281 28.796875 L 13.527344 57.152344 Z M 1.351562 28.980469 " fill-opacity="1" fill-rule="nonzero"/></g></g></g><g clip-path="url(#c954b78b2b)"><g clip-path="url(#009b0fd09c)"><g clip-path="url(#9804ac177c)"><path fill="#232126" d="M 208.117188 0 L 272.707031 30.550781 L 259.585938 58.292969 L 194.996094 27.746094 Z M 208.117188 0 " fill-opacity="1" fill-rule="nonzero"/></g></g></g></svg>