<svg xmlns="http://www.w3.org/2000/svg" xmlns:xlink="http://www.w3.org/1999/xlink" width="320" zoomAndPan="magnify" viewBox="0 0 240 282.749989" height="377" preserveAspectRatio="xMidYMid meet" version="1.0"><defs><clipPath id="a85fd3c155"><path d="M 3 39 L 75 39 L 75 82 L 3 82 Z M 3 39 " clip-rule="nonzero"/></clipPath><clipPath id="78fc855017"><path d="M 8.078125 36.101562 L 77.945312 54.660156 L 69.972656 84.671875 L 0.105469 66.113281 Z M 8.078125 36.101562 " clip-rule="nonzero"/></clipPath><clipPath id="9a62b495f4"><path d="M 62.886719 50.664062 C 71.175781 52.863281 76.109375 61.367188 73.90625 69.652344 C 71.707031 77.941406 63.203125 82.875 54.917969 80.671875 L 15.109375 70.097656 C 6.824219 67.898438 1.890625 59.394531 4.089844 51.105469 C 6.292969 42.820312 14.796875 37.886719 23.082031 40.089844 Z M 62.886719 50.664062 " clip-rule="nonzero"/></clipPath><clipPath id="fd0a8f4cdc"><path d="M 165 3 L 237 3 L 237 45 L 165 45 Z M 165 3 " clip-rule="nonzero"/></clipPath><clipPath id="fd0c90387e"><path d="M 161.957031 18.125 L 231.933594 -0.015625 L 239.726562 30.042969 L 169.75 48.183594 Z M 161.957031 18.125 " clip-rule="nonzero"/></clipPath><clipPath id="d6a60418a2"><path d="M 216.855469 3.894531 C 225.15625 1.742188 233.628906 6.726562 235.78125 15.027344 C 237.929688 23.328125 232.945312 31.800781 224.644531 33.953125 L 184.777344 44.285156 C 176.476562 46.4375 168.003906 41.453125 165.851562 33.152344 C 163.703125 24.851562 168.6875 16.378906 176.988281 14.230469 Z M 216.855469 3.894531 " clip-rule="nonzero"/></clipPath><clipPath id="3af8fb36f8"><path d="M 0.105469 202 L 157 202 L 157 282.5 L 0.105469 282.5 Z M 0.105469 202 " clip-rule="nonzero"/></clipPath></defs><g clip-path="url(#a85fd3c155)"><g clip-path="url(#78fc855017)"><g clip-path="url(#9a62b495f4)"><path fill="#232126" d="M 8.078125 36.101562 L 77.945312 54.660156 L 69.972656 84.671875 L 0.105469 66.113281 Z M 8.078125 36.101562 " fill-opacity="1" fill-rule="nonzero"/></g></g></g><g clip-path="url(#fd0a8f4cdc)"><g clip-path="url(#fd0c90387e)"><g clip-path="url(#d6a60418a2)"><path fill="#232126" d="M 161.957031 18.125 L 231.933594 -0.015625 L 239.726562 30.042969 L 169.75 48.183594 Z M 161.957031 18.125 " fill-opacity="1" fill-rule="nonzero"/></g></g></g><g clip-path="url(#3af8fb36f8)"><path stroke-linecap="round" transform="matrix(0.718851, 0.211565, -0.211565, 0.718851, 22.675981, 247.293399)" fill="none" stroke-linejoin="miter" d="M 5.998449 5.999213 C 43.107598 6.000009 80.211747 6.002277 117.314424 5.999544 " stroke="#232126" stroke-width="12" stroke-opacity="1" stroke-miterlimit="4"/></g></svg>