<svg xmlns="http://www.w3.org/2000/svg" xmlns:xlink="http://www.w3.org/1999/xlink" width="43" zoomAndPan="magnify" viewBox="0 0 32.25 117.749998" height="157" preserveAspectRatio="xMidYMid meet" version="1.0"><defs><clipPath id="b1ed17939b"><path d="M 0.507812 1.214844 L 30.722656 1.214844 L 30.722656 82 L 0.507812 82 Z M 0.507812 1.214844 " clip-rule="nonzero"/></clipPath><clipPath id="caee6d9cee"><path d="M 4 93 L 28 93 L 28 116.289062 L 4 116.289062 Z M 4 93 " clip-rule="nonzero"/></clipPath><clipPath id="e60801fb8c"><path d="M 0.507812 1.214844 L 30.722656 1.214844 L 30.722656 82 L 0.507812 82 Z M 0.507812 1.214844 " clip-rule="nonzero"/></clipPath><clipPath id="72b037d0c9"><path d="M 4 93 L 28 93 L 28 116.289062 L 4 116.289062 Z M 4 93 " clip-rule="nonzero"/></clipPath></defs><g clip-path="url(#b1ed17939b)"><path fill="#a91f2a" d="M 15.597656 1.214844 C 6.488281 1.214844 -0.570312 9.242188 0.652344 18.292969 L 9.109375 75.945312 C 9.535156 79.203125 12.320312 81.648438 15.617188 81.648438 C 18.902344 81.648438 21.6875 79.203125 22.136719 75.945312 L 30.589844 18.292969 C 31.765625 9.242188 24.714844 1.214844 15.597656 1.214844 " fill-opacity="1" fill-rule="nonzero"/></g><g clip-path="url(#caee6d9cee)"><path fill="#a91f2a" d="M 15.597656 93.136719 C 9.242188 93.136719 4.109375 98.277344 4.109375 104.632812 C 4.109375 110.976562 9.242188 116.117188 15.597656 116.117188 C 21.953125 116.117188 27.082031 110.976562 27.082031 104.632812 C 27.082031 98.277344 21.953125 93.136719 15.597656 93.136719 " fill-opacity="1" fill-rule="nonzero"/></g><g clip-path="url(#e60801fb8c)"><path fill="#a91f2a" d="M 15.597656 1.214844 C 6.488281 1.214844 -0.570312 9.242188 0.652344 18.292969 L 9.109375 75.945312 C 9.535156 79.203125 12.320312 81.648438 15.617188 81.648438 C 18.902344 81.648438 21.6875 79.203125 22.136719 75.945312 L 30.589844 18.292969 C 31.765625 9.242188 24.714844 1.214844 15.597656 1.214844 " fill-opacity="1" fill-rule="nonzero"/></g><g clip-path="url(#72b037d0c9)"><path fill="#a91f2a" d="M 15.597656 93.136719 C 9.242188 93.136719 4.109375 98.277344 4.109375 104.632812 C 4.109375 110.976562 9.242188 116.117188 15.597656 116.117188 C 21.953125 116.117188 27.082031 110.976562 27.082031 104.632812 C 27.082031 98.277344 21.953125 93.136719 15.597656 93.136719 " fill-opacity="1" fill-rule="nonzero"/></g></svg>