<svg xmlns="http://www.w3.org/2000/svg" xmlns:xlink="http://www.w3.org/1999/xlink" width="800" zoomAndPan="magnify" viewBox="0 0 600 323.249999" height="431" preserveAspectRatio="xMidYMid meet" version="1.0"><defs><clipPath id="1534c9ad8a"><path d="M 0.695312 28 L 163 28 L 163 160 L 0.695312 160 Z M 0.695312 28 " clip-rule="nonzero"/></clipPath><clipPath id="ce82982ed7"><path d="M 0.695312 0.417969 L 162.320312 0 L 162.734375 159.378906 L 1.109375 159.800781 Z M 0.695312 0.417969 " clip-rule="nonzero"/></clipPath><clipPath id="96dc6c0c9c"><path d="M -85.78125 -8.394531 L 477.65625 -9.863281 L 478.761719 414.402344 L -84.679688 415.867188 Z M -85.78125 -8.394531 " clip-rule="nonzero"/></clipPath><clipPath id="8ed68cae13"><path d="M 108 112 L 157 112 L 157 142 L 108 142 Z M 108 112 " clip-rule="nonzero"/></clipPath><clipPath id="02a6cd4d77"><path d="M 0.695312 0.417969 L 162.320312 0 L 162.734375 159.378906 L 1.109375 159.800781 Z M 0.695312 0.417969 " clip-rule="nonzero"/></clipPath><clipPath id="cf0c59ff71"><path d="M -85.78125 -8.394531 L 477.65625 -9.863281 L 478.761719 414.402344 L -84.679688 415.867188 Z M -85.78125 -8.394531 " clip-rule="nonzero"/></clipPath><clipPath id="1b76c02561"><path d="M 7 7 L 150 7 L 150 152 L 7 152 Z M 7 7 " clip-rule="nonzero"/></clipPath><clipPath id="12724e54d9"><path d="M 0.695312 0.417969 L 162.320312 0 L 162.734375 159.378906 L 1.109375 159.800781 Z M 0.695312 0.417969 " clip-rule="nonzero"/></clipPath><clipPath id="58c9dfeed2"><path d="M -85.78125 -8.394531 L 477.65625 -9.863281 L 478.761719 414.402344 L -84.679688 415.867188 Z M -85.78125 -8.394531 " clip-rule="nonzero"/></clipPath><clipPath id="d381ebd56e"><path d="M 437 28 L 599.304688 28 L 599.304688 160 L 437 160 Z M 437 28 " clip-rule="nonzero"/></clipPath><clipPath id="3dc5e5e64a"><path d="M 437.382812 0.417969 L 599.007812 0 L 599.421875 159.378906 L 437.796875 159.800781 Z M 437.382812 0.417969 " clip-rule="nonzero"/></clipPath><clipPath id="95f649ecfb"><path d="M 685.15625 -9.265625 L 121.714844 -7.800781 L 122.816406 416.464844 L 686.257812 415 Z M 685.15625 -9.265625 " clip-rule="nonzero"/></clipPath><clipPath id="c0833f63c1"><path d="M 443 112 L 492 112 L 492 142 L 443 142 Z M 443 112 " clip-rule="nonzero"/></clipPath><clipPath id="6681c66732"><path d="M 437.382812 0.417969 L 599.007812 0 L 599.421875 159.378906 L 437.796875 159.800781 Z M 437.382812 0.417969 " clip-rule="nonzero"/></clipPath><clipPath id="a344262fc0"><path d="M 685.15625 -9.265625 L 121.714844 -7.800781 L 122.816406 416.464844 L 686.257812 415 Z M 685.15625 -9.265625 " clip-rule="nonzero"/></clipPath><clipPath id="e8c3e44890"><path d="M 449 7 L 592 7 L 592 151 L 449 151 Z M 449 7 " clip-rule="nonzero"/></clipPath><clipPath id="0041135ea1"><path d="M 437.382812 0.417969 L 599.007812 0 L 599.421875 159.378906 L 437.796875 159.800781 Z M 437.382812 0.417969 " clip-rule="nonzero"/></clipPath><clipPath id="7ac2edda15"><path d="M 685.15625 -9.265625 L 121.714844 -7.800781 L 122.816406 416.464844 L 686.257812 415 Z M 685.15625 -9.265625 " clip-rule="nonzero"/></clipPath><clipPath id="351d7458c1"><path d="M 216 204 L 384 204 L 384 322 L 216 322 Z M 216 204 " clip-rule="nonzero"/></clipPath><clipPath id="94259abc5d"><path d="M 216.265625 218.109375 L 374.273438 204.082031 L 383.472656 307.683594 L 225.460938 321.710938 Z M 216.265625 218.109375 " clip-rule="nonzero"/></clipPath><clipPath id="ca9aaa2b56"><path d="M -71.867188 -76.078125 L 639.179688 -139.199219 L 686.6875 395.949219 L -24.359375 459.070312 Z M -71.867188 -76.078125 " clip-rule="nonzero"/></clipPath><clipPath id="9b8484b7f6"><path d="M 216 204 L 253 204 L 253 232 L 216 232 Z M 216 204 " clip-rule="nonzero"/></clipPath><clipPath id="b5f86ca51d"><path d="M 216.265625 218.109375 L 374.273438 204.082031 L 383.472656 307.683594 L 225.460938 321.710938 Z M 216.265625 218.109375 " clip-rule="nonzero"/></clipPath><clipPath id="0e6f528d46"><path d="M -71.867188 -76.078125 L 639.179688 -139.199219 L 686.6875 395.949219 L -24.359375 459.070312 Z M -71.867188 -76.078125 " clip-rule="nonzero"/></clipPath><clipPath id="20755ccdb9"><path d="M 346 204 L 384 204 L 384 227 L 346 227 Z M 346 204 " clip-rule="nonzero"/></clipPath><clipPath id="5765ab5db1"><path d="M 216.265625 218.109375 L 374.273438 204.082031 L 383.472656 307.683594 L 225.460938 321.710938 Z M 216.265625 218.109375 " clip-rule="nonzero"/></clipPath><clipPath id="26a9b02639"><path d="M -71.867188 -76.078125 L 639.179688 -139.199219 L 686.6875 395.949219 L -24.359375 459.070312 Z M -71.867188 -76.078125 " clip-rule="nonzero"/></clipPath><clipPath id="d1fa205ee3"><path d="M 216 301 L 275 301 L 275 322 L 216 322 Z M 216 301 " clip-rule="nonzero"/></clipPath><clipPath id="07e5567fe9"><path d="M 216.265625 218.109375 L 374.273438 204.082031 L 383.472656 307.683594 L 225.460938 321.710938 Z M 216.265625 218.109375 " clip-rule="nonzero"/></clipPath><clipPath id="0809d301df"><path d="M -71.867188 -76.078125 L 639.179688 -139.199219 L 686.6875 395.949219 L -24.359375 459.070312 Z M -71.867188 -76.078125 " clip-rule="nonzero"/></clipPath><clipPath id="196a7b78d3"><path d="M 221 211 L 380 211 L 380 315 L 221 315 Z M 221 211 " clip-rule="nonzero"/></clipPath><clipPath id="42cfa8f757"><path d="M 216.265625 218.109375 L 374.273438 204.082031 L 383.472656 307.683594 L 225.460938 321.710938 Z M 216.265625 218.109375 " clip-rule="nonzero"/></clipPath><clipPath id="3f96e40fbe"><path d="M -71.867188 -76.078125 L 639.179688 -139.199219 L 686.6875 395.949219 L -24.359375 459.070312 Z M -71.867188 -76.078125 " clip-rule="nonzero"/></clipPath><clipPath id="85ae3f19ff"><path d="M 311 233 L 329 233 L 329 265 L 311 265 Z M 311 233 " clip-rule="nonzero"/></clipPath><clipPath id="e2f065d736"><path d="M 216.265625 218.109375 L 374.273438 204.082031 L 383.472656 307.683594 L 225.460938 321.710938 Z M 216.265625 218.109375 " clip-rule="nonzero"/></clipPath><clipPath id="bc407699b2"><path d="M -71.867188 -76.078125 L 639.179688 -139.199219 L 686.6875 395.949219 L -24.359375 459.070312 Z M -71.867188 -76.078125 " clip-rule="nonzero"/></clipPath><clipPath id="3e72e61a63"><path d="M 273 233 L 291 233 L 291 265 L 273 265 Z M 273 233 " clip-rule="nonzero"/></clipPath><clipPath id="4477f4ec0d"><path d="M 216.265625 218.109375 L 374.273438 204.082031 L 383.472656 307.683594 L 225.460938 321.710938 Z M 216.265625 218.109375 " clip-rule="nonzero"/></clipPath><clipPath id="fe177013bf"><path d="M -71.867188 -76.078125 L 639.179688 -139.199219 L 686.6875 395.949219 L -24.359375 459.070312 Z M -71.867188 -76.078125 " clip-rule="nonzero"/></clipPath><clipPath id="f9ebaa38b7"><path d="M 356.082031 159.746094 L 417.65625 159.746094 L 417.65625 234.3125 L 356.082031 234.3125 Z M 356.082031 159.746094 " clip-rule="nonzero"/></clipPath><clipPath id="c191815c58"><path d="M 386.871094 159.746094 C 369.867188 159.746094 356.082031 176.410156 356.082031 196.964844 C 356.082031 217.519531 369.867188 234.179688 386.871094 234.179688 C 403.875 234.179688 417.65625 217.519531 417.65625 196.964844 C 417.65625 176.410156 403.875 159.746094 386.871094 159.746094 Z M 386.871094 159.746094 " clip-rule="nonzero"/></clipPath><clipPath id="d3c2c4bbfc"><path d="M 182.179688 159.746094 L 243.753906 159.746094 L 243.753906 234.3125 L 182.179688 234.3125 Z M 182.179688 159.746094 " clip-rule="nonzero"/></clipPath><clipPath id="87fee3e84d"><path d="M 212.96875 159.746094 C 195.964844 159.746094 182.179688 176.410156 182.179688 196.964844 C 182.179688 217.519531 195.964844 234.179688 212.96875 234.179688 C 229.972656 234.179688 243.753906 217.519531 243.753906 196.964844 C 243.753906 176.410156 229.972656 159.746094 212.96875 159.746094 Z M 212.96875 159.746094 " clip-rule="nonzero"/></clipPath><clipPath id="913dd356da"><path d="M 417.65625 234.179688 L 504.449219 234.179688 L 504.449219 297.125 L 417.65625 297.125 Z M 417.65625 234.179688 " clip-rule="nonzero"/></clipPath><clipPath id="264630046b"><path d="M 460.960938 234.179688 C 437.042969 234.179688 417.65625 248.269531 417.65625 265.652344 C 417.65625 283.03125 437.042969 297.125 460.960938 297.125 C 484.875 297.125 504.261719 283.03125 504.261719 265.652344 C 504.261719 248.269531 484.875 234.179688 460.960938 234.179688 Z M 460.960938 234.179688 " clip-rule="nonzero"/></clipPath><clipPath id="1bf7eb97d2"><path d="M 95.578125 234.179688 L 182.371094 234.179688 L 182.371094 297.125 L 95.578125 297.125 Z M 95.578125 234.179688 " clip-rule="nonzero"/></clipPath><clipPath id="a624bfa6a5"><path d="M 138.878906 234.179688 C 114.964844 234.179688 95.578125 248.269531 95.578125 265.652344 C 95.578125 283.03125 114.964844 297.125 138.878906 297.125 C 162.792969 297.125 182.179688 283.03125 182.179688 265.652344 C 182.179688 248.269531 162.792969 234.179688 138.878906 234.179688 Z M 138.878906 234.179688 " clip-rule="nonzero"/></clipPath></defs><g clip-path="url(#1534c9ad8a)"><g clip-path="url(#ce82982ed7)"><g clip-path="url(#96dc6c0c9c)"><path fill="#d69397" d="M 433.355469 266.023438 C 431.972656 297.925781 422.570312 329.558594 401.816406 358.011719 C 397.585938 363.785156 392.800781 369.054688 387.460938 373.820312 C 381.898438 378.777344 375.9375 383.207031 369.585938 387.101562 C 366.691406 385.550781 364.042969 383.65625 361.640625 381.417969 C 359.238281 379.183594 357.160156 376.675781 355.402344 373.902344 L 34.273438 374.738281 C 32.992188 376.898438 31.496094 378.894531 29.785156 380.730469 C 25.8125 378.792969 22 376.820312 18.359375 374.78125 C 0.636719 364.878906 -13.046875 353.796875 -21.085938 341.765625 C -39.019531 315.046875 -47.6875 292.394531 -49.636719 270.746094 C -53.371094 228.785156 -31.957031 190.507812 -3.820312 133.402344 C -3.28125 132.273438 -2.699219 131.25 -2.195312 130.1875 C 1.320312 123.308594 5.257812 116.679688 9.617188 110.296875 C 11.589844 107.417969 13.640625 104.597656 15.773438 101.832031 C 17.902344 99.066406 20.109375 96.363281 22.390625 93.722656 C 24.667969 91.078125 27.023438 88.503906 29.445312 85.992188 C 31.867188 83.480469 34.359375 81.035156 36.917969 78.664062 C 39.476562 76.289062 42.101562 73.988281 44.789062 71.761719 C 47.476562 69.53125 50.222656 67.378906 53.027344 65.304688 C 55.835938 63.230469 58.695312 61.234375 61.613281 59.316406 C 64.53125 57.398438 67.496094 55.5625 70.515625 53.8125 C 73.535156 52.058594 76.601562 50.394531 79.710938 48.8125 C 82.824219 47.230469 85.976562 45.734375 89.171875 44.328125 C 92.363281 42.921875 95.59375 41.601562 98.863281 40.375 C 102.128906 39.148438 105.429688 38.011719 108.757812 36.96875 C 112.089844 35.921875 115.445312 34.972656 118.828125 34.113281 C 122.214844 33.253906 125.617188 32.492188 129.042969 31.820312 C 132.46875 31.152344 135.910156 30.578125 139.367188 30.097656 C 142.824219 29.621094 146.292969 29.238281 149.773438 28.953125 C 155.078125 28.488281 160.425781 28.273438 165.800781 28.269531 C 199.03125 28.285156 242.84375 30.5 281.125 39.71875 C 304.410156 45.289062 325.652344 53.515625 341.183594 65.378906 C 362.574219 81.714844 384.550781 108.207031 401.699219 140.054688 C 421.859375 177.296875 435.257812 221.960938 433.355469 266.023438 Z M 433.355469 266.023438 " fill-opacity="1" fill-rule="nonzero"/></g></g></g><g clip-path="url(#8ed68cae13)"><g clip-path="url(#02a6cd4d77)"><g clip-path="url(#cf0c59ff71)"><path fill="#d69397" d="M 156.84375 123.253906 C 156.960938 124.082031 156.996094 124.917969 156.949219 125.753906 C 156.902344 126.59375 156.773438 127.417969 156.5625 128.230469 C 156.351562 129.042969 156.066406 129.828125 155.703125 130.582031 C 155.335938 131.339844 154.902344 132.050781 154.398438 132.722656 C 153.890625 133.390625 153.324219 134.003906 152.699219 134.5625 C 152.074219 135.121094 151.398438 135.613281 150.675781 136.039062 C 149.953125 136.464844 149.195312 136.8125 148.402344 137.089844 C 147.609375 137.367188 146.796875 137.5625 145.964844 137.675781 L 122.65625 140.949219 C 121.828125 141.0625 120.992188 141.097656 120.15625 141.050781 C 119.316406 141 118.492188 140.871094 117.683594 140.660156 C 116.871094 140.449219 116.085938 140.164062 115.332031 139.796875 C 114.578125 139.433594 113.863281 139 113.195312 138.492188 C 112.523438 137.988281 111.910156 137.421875 111.351562 136.796875 C 110.792969 136.171875 110.300781 135.496094 109.875 134.773438 C 109.449219 134.050781 109.101562 133.296875 108.824219 132.503906 C 108.546875 131.710938 108.351562 130.902344 108.234375 130.070312 C 108.117188 129.238281 108.082031 128.40625 108.128906 127.566406 C 108.175781 126.730469 108.304688 125.90625 108.515625 125.09375 C 108.726562 124.28125 109.015625 123.5 109.378906 122.742188 C 109.742188 121.988281 110.179688 121.273438 110.683594 120.605469 C 111.1875 119.933594 111.753906 119.320312 112.378906 118.761719 C 113.007812 118.203125 113.679688 117.710938 114.402344 117.289062 C 115.125 116.863281 115.882812 116.511719 116.675781 116.234375 C 117.46875 115.957031 118.28125 115.761719 119.109375 115.644531 L 130.4375 114.050781 L 142.417969 112.328125 C 143.253906 112.210938 144.089844 112.179688 144.925781 112.226562 C 145.765625 112.273438 146.59375 112.402344 147.40625 112.617188 C 148.21875 112.828125 149.003906 113.117188 149.761719 113.480469 C 150.519531 113.847656 151.230469 114.285156 151.902344 114.792969 C 152.570312 115.300781 153.1875 115.867188 153.742188 116.496094 C 154.300781 117.125 154.792969 117.804688 155.21875 118.53125 C 155.640625 119.253906 155.988281 120.015625 156.265625 120.8125 C 156.539062 121.605469 156.730469 122.417969 156.84375 123.253906 Z M 156.84375 123.253906 " fill-opacity="1" fill-rule="nonzero"/></g></g></g><g clip-path="url(#1b76c02561)"><g clip-path="url(#12724e54d9)"><g clip-path="url(#58c9dfeed2)"><path fill="#bb5f66" d="M 149.917969 29.042969 C 149.917969 29.042969 111.835938 -8.898438 65.234375 16.351562 C 65.234375 16.351562 8.167969 17.199219 7.980469 91.601562 C 7.789062 166.007812 79.605469 168.296875 108.691406 111.132812 C 137.773438 53.96875 129.300781 40.789062 149.917969 29.042969 Z M 149.917969 29.042969 " fill-opacity="1" fill-rule="nonzero"/></g></g></g><g clip-path="url(#d381ebd56e)"><g clip-path="url(#3dc5e5e64a)"><g clip-path="url(#95f649ecfb)"><path fill="#d69397" d="M 167.453125 267.847656 C 169 299.746094 178.566406 331.328125 199.46875 359.671875 C 203.726562 365.425781 208.539062 370.667969 213.90625 375.40625 C 219.496094 380.335938 225.476562 384.730469 231.851562 388.597656 C 234.734375 387.03125 237.375 385.121094 239.765625 382.871094 C 242.15625 380.625 244.222656 378.105469 245.964844 375.324219 L 567.09375 374.488281 C 568.386719 376.640625 569.894531 378.628906 571.613281 380.457031 C 575.574219 378.5 579.375 376.507812 583.007812 374.445312 C 600.679688 364.453125 614.304688 353.300781 622.28125 341.226562 C 640.078125 314.414062 648.625 291.71875 650.460938 270.0625 C 653.976562 228.082031 632.363281 189.917969 603.929688 132.957031 C 603.386719 131.832031 602.796875 130.808594 602.289062 129.753906 C 598.738281 122.890625 594.765625 116.28125 590.375 109.921875 C 588.386719 107.054688 586.320312 104.246094 584.175781 101.492188 C 582.03125 98.738281 579.8125 96.042969 577.515625 93.414062 C 575.222656 90.785156 572.855469 88.21875 570.421875 85.71875 C 567.984375 83.21875 565.480469 80.789062 562.90625 78.429688 C 560.335938 76.070312 557.703125 73.78125 555.003906 71.570312 C 552.304688 69.355469 549.546875 67.21875 546.730469 65.15625 C 543.914062 63.09375 541.042969 61.113281 538.113281 59.210938 C 535.1875 57.308594 532.210938 55.492188 529.183594 53.753906 C 526.152344 52.019531 523.082031 50.367188 519.960938 48.800781 C 516.839844 47.234375 513.679688 45.757812 510.480469 44.367188 C 507.277344 42.976562 504.039062 41.675781 500.765625 40.464844 C 497.492188 39.253906 494.1875 38.136719 490.851562 37.109375 C 487.515625 36.082031 484.152344 35.148438 480.765625 34.308594 C 477.378906 33.464844 473.96875 32.71875 470.542969 32.070312 C 467.113281 31.417969 463.667969 30.859375 460.207031 30.402344 C 456.746094 29.941406 453.277344 29.574219 449.796875 29.308594 C 444.492188 28.871094 439.140625 28.683594 433.765625 28.707031 C 400.535156 28.894531 356.734375 31.339844 318.503906 40.757812 C 295.246094 46.449219 274.046875 54.785156 258.578125 66.730469 C 237.273438 83.175781 215.433594 109.785156 198.449219 141.71875 C 178.484375 179.066406 165.320312 223.800781 167.453125 267.847656 Z M 167.453125 267.847656 " fill-opacity="1" fill-rule="nonzero"/></g></g></g><g clip-path="url(#c0833f63c1)"><g clip-path="url(#6681c66732)"><g clip-path="url(#a344262fc0)"><path fill="#d69397" d="M 443.214844 123.644531 C 443.105469 124.476562 443.074219 125.308594 443.125 126.148438 C 443.175781 126.984375 443.308594 127.808594 443.523438 128.621094 C 443.738281 129.429688 444.027344 130.214844 444.398438 130.96875 C 444.765625 131.722656 445.203125 132.433594 445.714844 133.097656 C 446.222656 133.765625 446.792969 134.378906 447.421875 134.933594 C 448.050781 135.488281 448.726562 135.976562 449.453125 136.398438 C 450.179688 136.820312 450.9375 137.164062 451.730469 137.4375 C 452.523438 137.707031 453.335938 137.898438 454.167969 138.011719 L 477.496094 141.160156 C 478.328125 141.273438 479.160156 141.300781 479.996094 141.25 C 480.835938 141.195312 481.660156 141.0625 482.46875 140.847656 C 483.28125 140.632812 484.0625 140.339844 484.816406 139.972656 C 485.566406 139.605469 486.277344 139.164062 486.945312 138.65625 C 487.613281 138.148438 488.222656 137.578125 488.777344 136.953125 C 489.332031 136.324219 489.820312 135.644531 490.242188 134.921875 C 490.664062 134.195312 491.011719 133.4375 491.285156 132.644531 C 491.558594 131.851562 491.75 131.039062 491.863281 130.207031 C 491.976562 129.378906 492.003906 128.542969 491.953125 127.707031 C 491.902344 126.867188 491.765625 126.042969 491.554688 125.234375 C 491.339844 124.421875 491.046875 123.640625 490.679688 122.886719 C 490.308594 122.132812 489.871094 121.421875 489.363281 120.753906 C 488.855469 120.089844 488.285156 119.476562 487.65625 118.921875 C 487.027344 118.367188 486.351562 117.878906 485.625 117.457031 C 484.898438 117.035156 484.140625 116.6875 483.347656 116.417969 C 482.554688 116.144531 481.742188 115.953125 480.910156 115.839844 L 469.574219 114.304688 L 457.585938 112.644531 C 456.75 112.53125 455.914062 112.503906 455.074219 112.554688 C 454.238281 112.609375 453.410156 112.742188 452.597656 112.957031 C 451.785156 113.171875 451.003906 113.464844 450.25 113.835938 C 449.492188 114.207031 448.78125 114.648438 448.113281 115.160156 C 447.449219 115.667969 446.835938 116.242188 446.28125 116.871094 C 445.726562 117.503906 445.238281 118.183594 444.820312 118.914062 C 444.398438 119.640625 444.054688 120.402344 443.785156 121.199219 C 443.515625 121.996094 443.324219 122.808594 443.214844 123.644531 Z M 443.214844 123.644531 " fill-opacity="1" fill-rule="nonzero"/></g></g></g><g clip-path="url(#e8c3e44890)"><g clip-path="url(#0041135ea1)"><g clip-path="url(#7ac2edda15)"><path fill="#bb5f66" d="M 449.652344 29.398438 C 449.652344 29.398438 487.535156 -8.742188 534.269531 16.269531 C 534.269531 16.269531 591.339844 16.820312 591.914062 91.21875 C 592.492188 165.621094 520.6875 168.285156 491.308594 111.273438 C 461.925781 54.261719 470.328125 41.039062 449.652344 29.398438 Z M 449.652344 29.398438 " fill-opacity="1" fill-rule="nonzero"/></g></g></g><g clip-path="url(#351d7458c1)"><g clip-path="url(#94259abc5d)"><g clip-path="url(#ca9aaa2b56)"><path fill="#d69397" d="M 612.929688 213.714844 C 614.65625 254.121094 606.230469 295.050781 583.140625 333.203125 C 578.429688 340.945312 572.964844 348.113281 566.746094 354.707031 C 560.265625 361.566406 553.226562 367.800781 545.636719 373.410156 C 541.816406 371.765625 538.269531 369.664062 534.996094 367.101562 C 531.71875 364.542969 528.824219 361.605469 526.308594 358.296875 L 121.246094 394.253906 C 119.863281 397.117188 118.191406 399.800781 116.230469 402.304688 C 111.011719 400.289062 105.988281 398.214844 101.167969 396.039062 C 77.734375 385.472656 59.265625 372.976562 47.816406 358.671875 C 22.285156 326.910156 8.890625 299.273438 4.078125 272.175781 C -5.195312 219.640625 17.660156 169.019531 46.953125 93.914062 C 47.507812 92.433594 48.132812 91.074219 48.65625 89.683594 C 52.339844 80.621094 56.585938 71.828125 61.390625 63.304688 C 63.570312 59.457031 65.851562 55.675781 68.238281 51.957031 C 70.628906 48.234375 73.117188 44.585938 75.707031 41.003906 C 78.296875 37.421875 80.984375 33.914062 83.769531 30.480469 C 86.554688 27.050781 89.429688 23.695312 92.402344 20.421875 C 95.371094 17.152344 98.429688 13.964844 101.578125 10.859375 C 104.726562 7.757812 107.957031 4.742188 111.273438 1.820312 C 114.585938 -1.105469 117.980469 -3.933594 121.453125 -6.667969 C 124.925781 -9.40625 128.46875 -12.042969 132.089844 -14.582031 C 135.707031 -17.117188 139.390625 -19.554688 143.144531 -21.890625 C 146.898438 -24.222656 150.714844 -26.453125 154.589844 -28.574219 C 158.46875 -30.695312 162.402344 -32.710938 166.390625 -34.613281 C 170.378906 -36.519531 174.417969 -38.308594 178.507812 -39.988281 C 182.59375 -41.671875 186.726562 -43.234375 190.902344 -44.6875 C 195.078125 -46.136719 199.289062 -47.46875 203.539062 -48.6875 C 207.789062 -49.902344 212.066406 -51.003906 216.378906 -51.980469 C 220.6875 -52.960938 225.023438 -53.820312 229.378906 -54.558594 C 236.019531 -55.722656 242.746094 -56.578125 249.527344 -57.164062 C 291.453125 -60.757812 346.972656 -62.722656 396.269531 -55.253906 C 426.253906 -50.753906 453.949219 -42.6875 474.835938 -29.40625 C 503.597656 -11.121094 534.203125 19.914062 559.300781 58.230469 C 588.785156 103.027344 610.539062 157.921875 612.929688 213.714844 Z M 612.929688 213.714844 " fill-opacity="1" fill-rule="nonzero"/></g></g></g><g clip-path="url(#9b8484b7f6)"><g clip-path="url(#b5f86ca51d)"><g clip-path="url(#0e6f528d46)"><path fill="#d69397" d="M 223.117188 156.605469 C 224.121094 156.640625 225.117188 156.734375 226.113281 156.886719 C 227.105469 157.042969 228.09375 157.257812 229.066406 157.53125 C 230.042969 157.804688 231.007812 158.132812 231.953125 158.523438 C 232.902344 158.914062 233.832031 159.355469 234.742188 159.859375 C 235.652344 160.359375 236.539062 160.914062 237.40625 161.523438 C 238.269531 162.132812 239.109375 162.792969 239.917969 163.5 C 240.730469 164.210938 241.511719 164.96875 242.257812 165.773438 C 243.007812 166.578125 243.722656 167.425781 244.402344 168.316406 C 245.082031 169.210938 245.722656 170.140625 246.328125 171.109375 C 246.933594 172.082031 247.496094 173.085938 248.019531 174.125 C 248.539062 175.164062 249.019531 176.230469 249.453125 177.328125 C 249.890625 178.429688 250.28125 179.550781 250.625 180.695312 C 250.972656 181.84375 251.269531 183.007812 251.519531 184.191406 C 251.769531 185.375 251.972656 186.570312 252.128906 187.78125 C 252.28125 188.992188 252.386719 190.207031 252.445312 191.433594 C 252.5 192.65625 252.507812 193.882812 252.464844 195.109375 C 252.425781 196.335938 252.332031 197.558594 252.191406 198.773438 C 252.050781 199.992188 251.863281 201.199219 251.625 202.394531 C 251.390625 203.589844 251.105469 204.769531 250.773438 205.933594 C 250.441406 207.097656 250.066406 208.238281 249.640625 209.359375 C 249.21875 210.480469 248.753906 211.574219 248.242188 212.636719 C 247.730469 213.703125 247.179688 214.738281 246.589844 215.738281 C 245.996094 216.738281 245.363281 217.703125 244.695312 218.628906 C 244.027344 219.554688 243.324219 220.4375 242.582031 221.28125 C 241.84375 222.125 241.074219 222.921875 240.269531 223.671875 C 239.46875 224.425781 238.636719 225.128906 237.78125 225.78125 C 236.921875 226.433594 236.042969 227.03125 235.136719 227.582031 C 234.234375 228.128906 233.308594 228.621094 232.367188 229.058594 C 231.421875 229.496094 230.464844 229.875 229.492188 230.199219 C 228.519531 230.523438 227.539062 230.789062 226.546875 230.992188 C 225.550781 231.199219 224.554688 231.34375 223.550781 231.429688 C 222.550781 231.515625 221.546875 231.542969 220.542969 231.507812 C 219.539062 231.472656 218.542969 231.378906 217.546875 231.222656 C 216.550781 231.070312 215.566406 230.855469 214.589844 230.582031 C 213.617188 230.308594 212.652344 229.976562 211.707031 229.589844 C 210.757812 229.199219 209.828125 228.753906 208.917969 228.253906 C 208.007812 227.753906 207.117188 227.199219 206.253906 226.589844 C 205.386719 225.980469 204.550781 225.320312 203.738281 224.609375 C 202.929688 223.902344 202.148438 223.144531 201.398438 222.339844 C 200.652344 221.535156 199.9375 220.6875 199.257812 219.792969 C 198.578125 218.902344 197.933594 217.972656 197.332031 217 C 196.726562 216.03125 196.164062 215.027344 195.640625 213.988281 C 195.121094 212.949219 194.640625 211.878906 194.203125 210.78125 C 193.769531 209.683594 193.378906 208.5625 193.03125 207.414062 C 192.6875 206.269531 192.390625 205.105469 192.140625 203.921875 C 191.886719 202.738281 191.683594 201.539062 191.53125 200.332031 C 191.375 199.121094 191.269531 197.902344 191.214844 196.679688 C 191.15625 195.457031 191.152344 194.230469 191.191406 193.003906 C 191.234375 191.777344 191.328125 190.554688 191.464844 189.339844 C 191.605469 188.121094 191.796875 186.914062 192.03125 185.71875 C 192.269531 184.519531 192.554688 183.339844 192.886719 182.175781 C 193.21875 181.015625 193.59375 179.871094 194.015625 178.753906 C 194.441406 177.632812 194.90625 176.539062 195.417969 175.472656 C 195.925781 174.410156 196.476562 173.375 197.070312 172.375 C 197.664062 171.375 198.292969 170.410156 198.964844 169.484375 C 199.632812 168.558594 200.335938 167.671875 201.074219 166.832031 C 201.816406 165.988281 202.585938 165.191406 203.386719 164.4375 C 204.191406 163.6875 205.019531 162.984375 205.878906 162.332031 C 206.734375 161.679688 207.617188 161.078125 208.523438 160.53125 C 209.425781 159.984375 210.351562 159.492188 211.292969 159.054688 C 212.238281 158.617188 213.195312 158.234375 214.167969 157.914062 C 215.140625 157.589844 216.121094 157.324219 217.113281 157.121094 C 218.105469 156.914062 219.105469 156.769531 220.105469 156.683594 C 221.109375 156.597656 222.113281 156.570312 223.117188 156.605469 Z M 223.117188 156.605469 " fill-opacity="1" fill-rule="nonzero"/></g></g></g><g clip-path="url(#20755ccdb9)"><g clip-path="url(#5765ab5db1)"><g clip-path="url(#26a9b02639)"><path fill="#d69397" d="M 378.054688 151.984375 C 379.054688 152.019531 380.054688 152.113281 381.050781 152.265625 C 382.042969 152.421875 383.03125 152.636719 384.003906 152.910156 C 384.980469 153.183594 385.941406 153.511719 386.890625 153.902344 C 387.839844 154.289062 388.769531 154.734375 389.679688 155.238281 C 390.589844 155.738281 391.476562 156.292969 392.34375 156.902344 C 393.207031 157.511719 394.046875 158.167969 394.855469 158.878906 C 395.667969 159.589844 396.449219 160.347656 397.195312 161.152344 C 397.945312 161.957031 398.660156 162.804688 399.339844 163.695312 C 400.019531 164.589844 400.660156 165.519531 401.265625 166.488281 C 401.871094 167.460938 402.433594 168.464844 402.953125 169.503906 C 403.476562 170.542969 403.957031 171.609375 404.390625 172.707031 C 404.828125 173.804688 405.21875 174.929688 405.5625 176.074219 C 405.910156 177.222656 406.207031 178.386719 406.457031 179.570312 C 406.707031 180.753906 406.910156 181.949219 407.066406 183.160156 C 407.21875 184.371094 407.324219 185.585938 407.382812 186.8125 C 407.4375 188.035156 407.445312 189.261719 407.402344 190.488281 C 407.359375 191.714844 407.269531 192.933594 407.128906 194.152344 C 406.988281 195.371094 406.800781 196.578125 406.5625 197.773438 C 406.328125 198.96875 406.042969 200.148438 405.710938 201.3125 C 405.378906 202.476562 405 203.617188 404.578125 204.738281 C 404.15625 205.859375 403.691406 206.953125 403.179688 208.015625 C 402.667969 209.082031 402.117188 210.117188 401.527344 211.117188 C 400.933594 212.117188 400.300781 213.082031 399.632812 214.007812 C 398.964844 214.933594 398.261719 215.816406 397.519531 216.660156 C 396.78125 217.503906 396.011719 218.300781 395.207031 219.050781 C 394.40625 219.804688 393.574219 220.507812 392.71875 221.160156 C 391.859375 221.8125 390.980469 222.410156 390.074219 222.960938 C 389.167969 223.507812 388.246094 224 387.300781 224.4375 C 386.359375 224.875 385.402344 225.253906 384.429688 225.578125 C 383.457031 225.902344 382.472656 226.164062 381.480469 226.371094 C 380.488281 226.578125 379.492188 226.722656 378.488281 226.808594 C 377.488281 226.894531 376.484375 226.921875 375.480469 226.886719 C 374.476562 226.851562 373.476562 226.757812 372.484375 226.601562 C 371.488281 226.449219 370.503906 226.234375 369.527344 225.960938 C 368.550781 225.6875 367.589844 225.355469 366.644531 224.96875 C 365.695312 224.578125 364.765625 224.132812 363.855469 223.632812 C 362.945312 223.132812 362.054688 222.574219 361.191406 221.96875 C 360.324219 221.359375 359.488281 220.699219 358.675781 219.988281 C 357.867188 219.28125 357.085938 218.523438 356.335938 217.71875 C 355.589844 216.914062 354.875 216.0625 354.195312 215.171875 C 353.515625 214.28125 352.871094 213.351562 352.269531 212.378906 C 351.664062 211.410156 351.101562 210.40625 350.578125 209.367188 C 350.054688 208.328125 349.578125 207.257812 349.140625 206.160156 C 348.707031 205.0625 348.316406 203.941406 347.96875 202.792969 C 347.625 201.648438 347.328125 200.484375 347.074219 199.300781 C 346.824219 198.117188 346.621094 196.917969 346.46875 195.710938 C 346.3125 194.5 346.207031 193.28125 346.152344 192.058594 C 346.09375 190.835938 346.089844 189.609375 346.128906 188.382812 C 346.171875 187.15625 346.261719 185.933594 346.402344 184.714844 C 346.542969 183.5 346.734375 182.292969 346.96875 181.097656 C 347.207031 179.898438 347.492188 178.71875 347.824219 177.554688 C 348.15625 176.394531 348.53125 175.25 348.953125 174.128906 C 349.378906 173.011719 349.84375 171.917969 350.355469 170.851562 C 350.863281 169.785156 351.414062 168.753906 352.007812 167.753906 C 352.601562 166.753906 353.230469 165.789062 353.902344 164.863281 C 354.570312 163.9375 355.273438 163.050781 356.011719 162.207031 C 356.753906 161.367188 357.523438 160.570312 358.324219 159.816406 C 359.128906 159.066406 359.957031 158.363281 360.816406 157.710938 C 361.671875 157.058594 362.554688 156.457031 363.460938 155.910156 C 364.363281 155.363281 365.289062 154.871094 366.230469 154.433594 C 367.175781 153.996094 368.132812 153.613281 369.105469 153.289062 C 370.078125 152.96875 371.058594 152.703125 372.050781 152.5 C 373.042969 152.292969 374.042969 152.148438 375.042969 152.0625 C 376.046875 151.976562 377.050781 151.949219 378.054688 151.984375 Z M 378.054688 151.984375 " fill-opacity="1" fill-rule="nonzero"/></g></g></g><g clip-path="url(#d1fa205ee3)"><g clip-path="url(#07e5567fe9)"><g clip-path="url(#0809d301df)"><path fill="#d69397" d="M 260.292969 336.273438 C 215.023438 340.289062 186.710938 311.398438 185.449219 310.078125 C 185.238281 309.835938 185.054688 309.578125 184.894531 309.300781 C 184.734375 309.023438 184.601562 308.730469 184.496094 308.429688 C 184.394531 308.125 184.316406 307.816406 184.273438 307.5 C 184.226562 307.183594 184.210938 306.863281 184.226562 306.542969 C 184.238281 306.222656 184.285156 305.910156 184.359375 305.597656 C 184.433594 305.285156 184.539062 304.984375 184.671875 304.691406 C 184.804688 304.402344 184.960938 304.125 185.144531 303.863281 C 185.332031 303.601562 185.539062 303.359375 185.769531 303.136719 C 186 302.914062 186.25 302.71875 186.519531 302.542969 C 186.789062 302.367188 187.070312 302.21875 187.367188 302.101562 C 187.664062 301.980469 187.96875 301.886719 188.28125 301.824219 C 188.597656 301.761719 188.914062 301.730469 189.234375 301.726562 C 189.554688 301.726562 189.871094 301.753906 190.1875 301.8125 C 190.503906 301.871094 190.808594 301.957031 191.109375 302.074219 C 191.40625 302.191406 191.691406 302.335938 191.960938 302.503906 C 192.230469 302.675781 192.484375 302.871094 192.71875 303.089844 C 193.003906 303.40625 222.933594 333.71875 268.628906 324.992188 C 269.257812 324.925781 269.875 324.972656 270.484375 325.140625 C 271.097656 325.304688 271.65625 325.574219 272.164062 325.949219 C 272.671875 326.328125 273.09375 326.78125 273.429688 327.316406 C 273.765625 327.851562 273.992188 328.429688 274.113281 329.050781 C 274.230469 329.667969 274.234375 330.289062 274.117188 330.910156 C 274.003906 331.535156 273.78125 332.113281 273.449219 332.648438 C 273.117188 333.1875 272.695312 333.644531 272.191406 334.023438 C 271.6875 334.402344 271.128906 334.679688 270.519531 334.847656 C 267.136719 335.496094 263.726562 335.96875 260.292969 336.273438 Z M 260.292969 336.273438 " fill-opacity="1" fill-rule="nonzero"/></g></g></g><g clip-path="url(#196a7b78d3)"><g clip-path="url(#42cfa8f757)"><g clip-path="url(#3f96e40fbe)"><path fill="#bb5f66" d="M 238.515625 236.601562 C 241.800781 233.167969 245.363281 230.050781 249.207031 227.253906 C 253.046875 224.453125 257.105469 222.019531 261.378906 219.941406 C 265.65625 217.867188 270.078125 216.183594 274.652344 214.898438 C 279.226562 213.609375 283.878906 212.734375 288.609375 212.277344 C 312.289062 210.101562 347.546875 213.789062 371.886719 250.351562 C 410.421875 308.25 301.078125 331.75 243.230469 299.550781 C 207.421875 279.628906 222.117188 253.550781 238.515625 236.601562 Z M 238.515625 236.601562 " fill-opacity="1" fill-rule="nonzero"/></g></g></g><g clip-path="url(#85ae3f19ff)"><g clip-path="url(#e2f065d736)"><g clip-path="url(#bc407699b2)"><path fill="#86383f" d="M 311.636719 249.210938 C 311.632812 257.875 315.464844 264.910156 320.191406 264.90625 C 324.917969 264.902344 328.777344 257.886719 328.824219 249.21875 C 328.871094 240.550781 324.996094 233.535156 320.269531 233.523438 C 315.542969 233.515625 311.714844 240.542969 311.636719 249.210938 Z M 311.636719 249.210938 " fill-opacity="1" fill-rule="nonzero"/></g></g></g><g clip-path="url(#3e72e61a63)"><g clip-path="url(#4477f4ec0d)"><g clip-path="url(#fe177013bf)"><path fill="#86383f" d="M 273.054688 249.1875 C 273.050781 257.851562 276.882812 264.871094 281.609375 264.882812 C 286.335938 264.890625 290.179688 257.863281 290.242188 249.191406 C 290.300781 240.523438 286.414062 233.492188 281.6875 233.496094 C 276.960938 233.503906 273.046875 240.523438 273.054688 249.1875 Z M 273.054688 249.1875 " fill-opacity="1" fill-rule="nonzero"/></g></g></g><g clip-path="url(#f9ebaa38b7)"><g clip-path="url(#c191815c58)"><path fill="#232126" d="M 356.082031 159.746094 L 417.65625 159.746094 L 417.65625 234.070312 L 356.082031 234.070312 Z M 356.082031 159.746094 " fill-opacity="1" fill-rule="nonzero"/></g></g><g clip-path="url(#d3c2c4bbfc)"><g clip-path="url(#87fee3e84d)"><path fill="#232126" d="M 182.179688 159.746094 L 243.753906 159.746094 L 243.753906 234.070312 L 182.179688 234.070312 Z M 182.179688 159.746094 " fill-opacity="1" fill-rule="nonzero"/></g></g><g clip-path="url(#913dd356da)"><g clip-path="url(#264630046b)"><path fill="#bb5f66" d="M 417.65625 234.179688 L 504.203125 234.179688 L 504.203125 297.125 L 417.65625 297.125 Z M 417.65625 234.179688 " fill-opacity="1" fill-rule="nonzero"/></g></g><g clip-path="url(#1bf7eb97d2)"><g clip-path="url(#a624bfa6a5)"><path fill="#bb5f66" d="M 95.578125 234.179688 L 182.125 234.179688 L 182.125 297.125 L 95.578125 297.125 Z M 95.578125 234.179688 " fill-opacity="1" fill-rule="nonzero"/></g></g></svg>