<svg xmlns="http://www.w3.org/2000/svg" xmlns:xlink="http://www.w3.org/1999/xlink" width="800" zoomAndPan="magnify" viewBox="0 0 600 298.499991" height="398" preserveAspectRatio="xMidYMid meet" version="1.0"><defs><clipPath id="21a03b6369"><path d="M 0.5 28 L 163 28 L 163 160 L 0.5 160 Z M 0.5 28 " clip-rule="nonzero"/></clipPath><clipPath id="346c26d875"><path d="M 0.5 0.417969 L 162.230469 0 L 162.644531 159.480469 L 0.917969 159.902344 Z M 0.5 0.417969 " clip-rule="nonzero"/></clipPath><clipPath id="2281738e5c"><path d="M -86.03125 -8.402344 L 477.773438 -9.867188 L 478.875 414.667969 L -84.925781 416.136719 Z M -86.03125 -8.402344 " clip-rule="nonzero"/></clipPath><clipPath id="e3ebd74c88"><path d="M 107 112 L 157 112 L 157 142 L 107 142 Z M 107 112 " clip-rule="nonzero"/></clipPath><clipPath id="395db6465d"><path d="M 0.5 0.417969 L 162.230469 0 L 162.644531 159.480469 L 0.917969 159.902344 Z M 0.5 0.417969 " clip-rule="nonzero"/></clipPath><clipPath id="6cf06554d9"><path d="M -86.03125 -8.402344 L 477.773438 -9.867188 L 478.875 414.667969 L -84.925781 416.136719 Z M -86.03125 -8.402344 " clip-rule="nonzero"/></clipPath><clipPath id="7bbd06d957"><path d="M 7 7 L 150 7 L 150 152 L 7 152 Z M 7 7 " clip-rule="nonzero"/></clipPath><clipPath id="73617853ab"><path d="M 0.5 0.417969 L 162.230469 0 L 162.644531 159.480469 L 0.917969 159.902344 Z M 0.5 0.417969 " clip-rule="nonzero"/></clipPath><clipPath id="6e0b546a91"><path d="M -86.03125 -8.402344 L 477.773438 -9.867188 L 478.875 414.667969 L -84.925781 416.136719 Z M -86.03125 -8.402344 " clip-rule="nonzero"/></clipPath><clipPath id="91e7d021a1"><path d="M 437 28 L 599.496094 28 L 599.496094 160 L 437 160 Z M 437 28 " clip-rule="nonzero"/></clipPath><clipPath id="0e4a3876ae"><path d="M 437.46875 0.417969 L 599.199219 0 L 599.613281 159.480469 L 437.882812 159.902344 Z M 437.46875 0.417969 " clip-rule="nonzero"/></clipPath><clipPath id="69ea097e02"><path d="M 685.402344 -9.273438 L 121.601562 -7.804688 L 122.703125 416.730469 L 686.507812 415.265625 Z M 685.402344 -9.273438 " clip-rule="nonzero"/></clipPath><clipPath id="6b739edf9f"><path d="M 443 112 L 493 112 L 493 142 L 443 142 Z M 443 112 " clip-rule="nonzero"/></clipPath><clipPath id="68a50e5924"><path d="M 437.46875 0.417969 L 599.199219 0 L 599.613281 159.480469 L 437.882812 159.902344 Z M 437.46875 0.417969 " clip-rule="nonzero"/></clipPath><clipPath id="31394b0b04"><path d="M 685.402344 -9.273438 L 121.601562 -7.804688 L 122.703125 416.730469 L 686.507812 415.265625 Z M 685.402344 -9.273438 " clip-rule="nonzero"/></clipPath><clipPath id="027454b38d"><path d="M 449 7 L 593 7 L 593 151 L 449 151 Z M 449 7 " clip-rule="nonzero"/></clipPath><clipPath id="89a7de69b7"><path d="M 437.46875 0.417969 L 599.199219 0 L 599.613281 159.480469 L 437.882812 159.902344 Z M 437.46875 0.417969 " clip-rule="nonzero"/></clipPath><clipPath id="133a22ac5f"><path d="M 685.402344 -9.273438 L 121.601562 -7.804688 L 122.703125 416.730469 L 686.507812 415.265625 Z M 685.402344 -9.273438 " clip-rule="nonzero"/></clipPath><clipPath id="85ac55c782"><path d="M 417.734375 234.332031 L 504.582031 234.332031 L 504.582031 297.316406 L 417.734375 297.316406 Z M 417.734375 234.332031 " clip-rule="nonzero"/></clipPath><clipPath id="1a18d66606"><path d="M 461.0625 234.332031 C 437.132812 234.332031 417.734375 248.429688 417.734375 265.824219 C 417.734375 283.214844 437.132812 297.316406 461.0625 297.316406 C 484.992188 297.316406 504.390625 283.214844 504.390625 265.824219 C 504.390625 248.429688 484.992188 234.332031 461.0625 234.332031 Z M 461.0625 234.332031 " clip-rule="nonzero"/></clipPath><clipPath id="e99c74a06c"><path d="M 95.445312 234.332031 L 182.292969 234.332031 L 182.292969 297.316406 L 95.445312 297.316406 Z M 95.445312 234.332031 " clip-rule="nonzero"/></clipPath><clipPath id="7d3e4f9689"><path d="M 138.773438 234.332031 C 114.84375 234.332031 95.445312 248.429688 95.445312 265.824219 C 95.445312 283.214844 114.84375 297.316406 138.773438 297.316406 C 162.703125 297.316406 182.105469 283.214844 182.105469 265.824219 C 182.105469 248.429688 162.703125 234.332031 138.773438 234.332031 Z M 138.773438 234.332031 " clip-rule="nonzero"/></clipPath><clipPath id="61f4d12122"><path d="M 356.121094 159.851562 L 417.734375 159.851562 L 417.734375 234.460938 L 356.121094 234.460938 Z M 356.121094 159.851562 " clip-rule="nonzero"/></clipPath><clipPath id="99a47d6f70"><path d="M 386.925781 159.851562 C 369.910156 159.851562 356.121094 176.523438 356.121094 197.089844 C 356.121094 217.65625 369.910156 234.332031 386.925781 234.332031 C 403.941406 234.332031 417.734375 217.65625 417.734375 197.089844 C 417.734375 176.523438 403.941406 159.851562 386.925781 159.851562 Z M 386.925781 159.851562 " clip-rule="nonzero"/></clipPath><clipPath id="7cd0816ea9"><path d="M 182.105469 159.851562 L 243.71875 159.851562 L 243.71875 234.460938 L 182.105469 234.460938 Z M 182.105469 159.851562 " clip-rule="nonzero"/></clipPath><clipPath id="d6f81f85b2"><path d="M 212.910156 159.851562 C 195.898438 159.851562 182.105469 176.523438 182.105469 197.089844 C 182.105469 217.65625 195.898438 234.332031 212.910156 234.332031 C 229.925781 234.332031 243.71875 217.65625 243.71875 197.089844 C 243.71875 176.523438 229.925781 159.851562 212.910156 159.851562 Z M 212.910156 159.851562 " clip-rule="nonzero"/></clipPath></defs><g clip-path="url(#21a03b6369)"><g clip-path="url(#346c26d875)"><g clip-path="url(#2281738e5c)"><path fill="#d69397" d="M 433.441406 266.191406 C 432.058594 298.117188 422.652344 329.773438 401.882812 358.242188 C 397.648438 364.019531 392.863281 369.292969 387.519531 374.058594 C 381.949219 379.023438 375.988281 383.453125 369.632812 387.351562 C 366.734375 385.800781 364.085938 383.902344 361.679688 381.664062 C 359.277344 379.425781 357.195312 376.921875 355.4375 374.144531 L 34.105469 374.980469 C 32.820312 377.140625 31.324219 379.136719 29.609375 380.976562 C 25.636719 379.035156 21.824219 377.0625 18.175781 375.019531 C 0.441406 365.113281 -13.246094 354.023438 -21.292969 341.984375 C -39.238281 315.25 -47.910156 292.582031 -49.859375 270.921875 C -53.597656 228.933594 -32.167969 190.632812 -4.015625 133.488281 C -3.476562 132.359375 -2.894531 131.332031 -2.386719 130.273438 C 1.128906 123.386719 5.066406 116.753906 9.429688 110.371094 C 11.402344 107.488281 13.457031 104.664062 15.589844 101.898438 C 17.722656 99.132812 19.929688 96.425781 22.210938 93.78125 C 24.492188 91.136719 26.847656 88.558594 29.269531 86.046875 C 31.695312 83.53125 34.1875 81.089844 36.75 78.714844 C 39.3125 76.339844 41.933594 74.035156 44.625 71.804688 C 47.3125 69.578125 50.0625 67.421875 52.867188 65.347656 C 55.675781 63.269531 58.539062 61.273438 61.460938 59.355469 C 64.378906 57.4375 67.347656 55.601562 70.367188 53.847656 C 73.390625 52.09375 76.457031 50.425781 79.570312 48.84375 C 82.683594 47.257812 85.839844 45.765625 89.035156 44.355469 C 92.230469 42.949219 95.464844 41.628906 98.734375 40.402344 C 102.003906 39.171875 105.304688 38.035156 108.636719 36.992188 C 111.96875 35.945312 115.328125 34.992188 118.714844 34.132812 C 122.097656 33.277344 125.503906 32.511719 128.933594 31.839844 C 132.359375 31.171875 135.804688 30.597656 139.265625 30.117188 C 142.722656 29.640625 146.195312 29.257812 149.675781 28.972656 C 154.984375 28.507812 160.335938 28.289062 165.714844 28.285156 C 198.964844 28.300781 242.808594 30.519531 281.109375 39.742188 C 304.414062 45.320312 325.671875 53.546875 341.210938 65.421875 C 362.613281 81.765625 384.605469 108.277344 401.765625 140.144531 C 421.9375 177.414062 435.34375 222.105469 433.441406 266.191406 Z M 433.441406 266.191406 " fill-opacity="1" fill-rule="nonzero"/></g></g></g><g clip-path="url(#e3ebd74c88)"><g clip-path="url(#395db6465d)"><g clip-path="url(#6cf06554d9)"><path fill="#d69397" d="M 156.75 123.332031 C 156.871094 124.164062 156.902344 125 156.855469 125.835938 C 156.808594 126.675781 156.679688 127.5 156.472656 128.3125 C 156.261719 129.125 155.972656 129.910156 155.609375 130.667969 C 155.242188 131.421875 154.808594 132.136719 154.304688 132.804688 C 153.796875 133.476562 153.230469 134.089844 152.605469 134.648438 C 151.976562 135.207031 151.300781 135.699219 150.578125 136.125 C 149.855469 136.550781 149.097656 136.902344 148.304688 137.179688 C 147.511719 137.453125 146.699219 137.648438 145.867188 137.765625 L 122.542969 141.039062 C 121.710938 141.15625 120.878906 141.1875 120.039062 141.140625 C 119.203125 141.089844 118.375 140.960938 117.5625 140.75 C 116.753906 140.539062 115.96875 140.253906 115.210938 139.886719 C 114.457031 139.523438 113.746094 139.085938 113.074219 138.582031 C 112.402344 138.078125 111.789062 137.511719 111.230469 136.886719 C 110.671875 136.257812 110.179688 135.585938 109.753906 134.863281 C 109.328125 134.136719 108.976562 133.378906 108.699219 132.589844 C 108.421875 131.796875 108.226562 130.984375 108.109375 130.152344 C 107.992188 129.324219 107.957031 128.488281 108.007812 127.648438 C 108.054688 126.8125 108.183594 125.988281 108.394531 125.175781 C 108.605469 124.363281 108.890625 123.578125 109.257812 122.820312 C 109.621094 122.066406 110.054688 121.351562 110.5625 120.683594 C 111.066406 120.011719 111.632812 119.398438 112.257812 118.839844 C 112.886719 118.28125 113.5625 117.789062 114.285156 117.363281 C 115.007812 116.9375 115.765625 116.585938 116.558594 116.308594 C 117.351562 116.035156 118.164062 115.835938 118.992188 115.71875 L 130.328125 114.125 L 142.316406 112.402344 C 143.152344 112.285156 143.988281 112.25 144.828125 112.296875 C 145.667969 112.347656 146.492188 112.476562 147.308594 112.6875 C 148.121094 112.898438 148.90625 113.1875 149.664062 113.554688 C 150.421875 113.921875 151.136719 114.359375 151.804688 114.867188 C 152.476562 115.375 153.089844 115.945312 153.648438 116.574219 C 154.207031 117.203125 154.699219 117.878906 155.125 118.605469 C 155.546875 119.332031 155.898438 120.09375 156.171875 120.890625 C 156.445312 121.683594 156.640625 122.5 156.75 123.332031 Z M 156.75 123.332031 " fill-opacity="1" fill-rule="nonzero"/></g></g></g><g clip-path="url(#7bbd06d957)"><g clip-path="url(#73617853ab)"><g clip-path="url(#6e0b546a91)"><path fill="#bb5f66" d="M 149.824219 29.0625 C 149.824219 29.0625 111.714844 -8.90625 65.082031 16.363281 C 65.082031 16.363281 7.980469 17.210938 7.789062 91.664062 C 7.601562 166.113281 79.464844 168.40625 108.566406 111.203125 C 137.667969 54.003906 129.191406 40.816406 149.824219 29.0625 Z M 149.824219 29.0625 " fill-opacity="1" fill-rule="nonzero"/></g></g></g><g clip-path="url(#91e7d021a1)"><g clip-path="url(#0e4a3876ae)"><g clip-path="url(#69ea097e02)"><path fill="#d69397" d="M 167.367188 268.023438 C 168.914062 299.941406 178.488281 331.542969 199.402344 359.90625 C 203.664062 365.660156 208.480469 370.90625 213.847656 375.648438 C 219.441406 380.582031 225.429688 384.980469 231.804688 388.847656 C 234.691406 387.277344 237.332031 385.371094 239.726562 383.121094 C 242.121094 380.867188 244.1875 378.351562 245.929688 375.566406 L 567.265625 374.730469 C 568.558594 376.882812 570.066406 378.875 571.789062 380.703125 C 575.75 378.742188 579.554688 376.75 583.191406 374.6875 C 600.875 364.6875 614.507812 353.527344 622.488281 341.445312 C 640.296875 314.617188 648.847656 291.90625 650.6875 270.238281 C 654.207031 228.226562 632.578125 190.039062 604.125 133.042969 C 603.582031 131.917969 602.992188 130.894531 602.484375 129.835938 C 598.929688 122.96875 594.957031 116.355469 590.5625 109.996094 C 588.574219 107.125 586.503906 104.3125 584.359375 101.554688 C 582.210938 98.800781 579.992188 96.105469 577.695312 93.472656 C 575.398438 90.84375 573.03125 88.277344 570.59375 85.773438 C 568.15625 83.273438 565.652344 80.84375 563.078125 78.480469 C 560.503906 76.117188 557.867188 73.832031 555.167969 71.613281 C 552.46875 69.398438 549.707031 67.261719 546.890625 65.199219 C 544.070312 63.136719 541.195312 61.152344 538.269531 59.25 C 535.339844 57.347656 532.359375 55.527344 529.328125 53.789062 C 526.300781 52.050781 523.222656 50.398438 520.101562 48.832031 C 516.980469 47.265625 513.820312 45.789062 510.613281 44.394531 C 507.410156 43.003906 504.171875 41.703125 500.894531 40.492188 C 497.621094 39.28125 494.3125 38.160156 490.976562 37.132812 C 487.636719 36.105469 484.273438 35.171875 480.882812 34.328125 C 477.492188 33.488281 474.082031 32.742188 470.652344 32.089844 C 467.21875 31.4375 463.773438 30.878906 460.3125 30.421875 C 456.847656 29.960938 453.375 29.59375 449.894531 29.328125 C 444.585938 28.890625 439.230469 28.699219 433.851562 28.726562 C 400.601562 28.914062 356.773438 31.363281 318.515625 40.78125 C 295.242188 46.480469 274.03125 54.820312 258.550781 66.773438 C 237.234375 83.230469 215.378906 109.855469 198.386719 141.808594 C 178.40625 179.183594 165.234375 223.941406 167.367188 268.023438 Z M 167.367188 268.023438 " fill-opacity="1" fill-rule="nonzero"/></g></g></g><g clip-path="url(#6b739edf9f)"><g clip-path="url(#68a50e5924)"><g clip-path="url(#31394b0b04)"><path fill="#d69397" d="M 443.308594 123.722656 C 443.195312 124.554688 443.164062 125.390625 443.21875 126.226562 C 443.269531 127.066406 443.402344 127.890625 443.617188 128.703125 C 443.832031 129.515625 444.121094 130.296875 444.492188 131.050781 C 444.859375 131.804688 445.296875 132.515625 445.808594 133.183594 C 446.316406 133.851562 446.886719 134.464844 447.515625 135.019531 C 448.144531 135.574219 448.824219 136.0625 449.546875 136.484375 C 450.273438 136.90625 451.035156 137.253906 451.828125 137.523438 C 452.625 137.796875 453.4375 137.988281 454.269531 138.101562 L 477.609375 141.25 C 478.441406 141.363281 479.277344 141.394531 480.113281 141.339844 C 480.949219 141.289062 481.773438 141.152344 482.585938 140.9375 C 483.398438 140.722656 484.179688 140.429688 484.933594 140.0625 C 485.6875 139.695312 486.398438 139.253906 487.066406 138.746094 C 487.734375 138.238281 488.34375 137.667969 488.898438 137.039062 C 489.453125 136.410156 489.945312 135.734375 490.367188 135.007812 C 490.789062 134.28125 491.136719 133.523438 491.410156 132.730469 C 491.679688 131.9375 491.875 131.125 491.988281 130.292969 C 492.097656 129.460938 492.128906 128.625 492.078125 127.789062 C 492.023438 126.949219 491.890625 126.125 491.675781 125.3125 C 491.460938 124.503906 491.171875 123.71875 490.800781 122.964844 C 490.433594 122.210938 489.992188 121.5 489.484375 120.832031 C 488.976562 120.167969 488.40625 119.554688 487.777344 119 C 487.148438 118.445312 486.46875 117.957031 485.746094 117.53125 C 485.019531 117.109375 484.257812 116.765625 483.464844 116.492188 C 482.671875 116.21875 481.859375 116.027344 481.027344 115.914062 L 469.683594 114.378906 L 457.6875 112.71875 C 456.851562 112.605469 456.015625 112.574219 455.175781 112.628906 C 454.335938 112.679688 453.511719 112.8125 452.695312 113.03125 C 451.882812 113.246094 451.101562 113.539062 450.34375 113.910156 C 449.589844 114.28125 448.878906 114.722656 448.210938 115.234375 C 447.542969 115.746094 446.929688 116.316406 446.375 116.949219 C 445.820312 117.582031 445.332031 118.261719 444.914062 118.988281 C 444.492188 119.71875 444.148438 120.480469 443.875 121.277344 C 443.605469 122.074219 443.417969 122.890625 443.308594 123.722656 Z M 443.308594 123.722656 " fill-opacity="1" fill-rule="nonzero"/></g></g></g><g clip-path="url(#027454b38d)"><g clip-path="url(#89a7de69b7)"><g clip-path="url(#133a22ac5f)"><path fill="#bb5f66" d="M 449.746094 29.417969 C 449.746094 29.417969 487.65625 -8.746094 534.421875 16.28125 C 534.421875 16.28125 591.527344 16.832031 592.101562 91.277344 C 592.679688 165.726562 520.828125 168.394531 491.429688 111.34375 C 462.03125 54.296875 470.441406 41.0625 449.746094 29.417969 Z M 449.746094 29.417969 " fill-opacity="1" fill-rule="nonzero"/></g></g></g><g clip-path="url(#85ac55c782)"><g clip-path="url(#1a18d66606)"><path fill="#bb5f66" d="M 417.734375 234.332031 L 504.335938 234.332031 L 504.335938 297.316406 L 417.734375 297.316406 Z M 417.734375 234.332031 " fill-opacity="1" fill-rule="nonzero"/></g></g><g clip-path="url(#e99c74a06c)"><g clip-path="url(#7d3e4f9689)"><path fill="#bb5f66" d="M 95.445312 234.332031 L 182.046875 234.332031 L 182.046875 297.316406 L 95.445312 297.316406 Z M 95.445312 234.332031 " fill-opacity="1" fill-rule="nonzero"/></g></g><g clip-path="url(#61f4d12122)"><g clip-path="url(#99a47d6f70)"><path fill="#232126" d="M 356.121094 159.851562 L 417.734375 159.851562 L 417.734375 234.222656 L 356.121094 234.222656 Z M 356.121094 159.851562 " fill-opacity="1" fill-rule="nonzero"/></g></g><g clip-path="url(#7cd0816ea9)"><g clip-path="url(#d6f81f85b2)"><path fill="#232126" d="M 182.105469 159.851562 L 243.71875 159.851562 L 243.71875 234.222656 L 182.105469 234.222656 Z M 182.105469 159.851562 " fill-opacity="1" fill-rule="nonzero"/></g></g></svg>