<svg xmlns="http://www.w3.org/2000/svg" xmlns:xlink="http://www.w3.org/1999/xlink" width="93" zoomAndPan="magnify" viewBox="0 0 69.75 118.499997" height="158" preserveAspectRatio="xMidYMid meet" version="1.0"><defs><clipPath id="9d74ea666b"><path d="M 24 97 L 45 97 L 45 117.253906 L 24 117.253906 Z M 24 97 " clip-rule="nonzero"/></clipPath><clipPath id="81e86fbb8c"><path d="M 0.152344 0 L 68.863281 0 L 68.863281 91 L 0.152344 91 Z M 0.152344 0 " clip-rule="nonzero"/></clipPath><clipPath id="e70ca19835"><path d="M 24 97 L 45 97 L 45 117.253906 L 24 117.253906 Z M 24 97 " clip-rule="nonzero"/></clipPath><clipPath id="686d72c011"><path d="M 0.0234375 0 L 68.730469 0 L 68.730469 91 L 0.0234375 91 Z M 0.0234375 0 " clip-rule="nonzero"/></clipPath></defs><g clip-path="url(#9d74ea666b)"><path fill="#000000" d="M 44.324219 107.382812 C 44.324219 108.027344 44.261719 108.660156 44.136719 109.292969 C 44.007812 109.921875 43.824219 110.53125 43.578125 111.125 C 43.328125 111.71875 43.027344 112.28125 42.667969 112.816406 C 42.3125 113.347656 41.902344 113.84375 41.449219 114.296875 C 40.992188 114.75 40.496094 115.15625 39.960938 115.511719 C 39.425781 115.867188 38.859375 116.167969 38.265625 116.414062 C 37.667969 116.660156 37.054688 116.847656 36.421875 116.972656 C 35.789062 117.097656 35.152344 117.160156 34.507812 117.160156 C 33.863281 117.160156 33.226562 117.097656 32.59375 116.972656 C 31.960938 116.847656 31.347656 116.660156 30.75 116.414062 C 30.15625 116.167969 29.589844 115.867188 29.054688 115.511719 C 28.519531 115.15625 28.023438 114.75 27.566406 114.296875 C 27.109375 113.84375 26.703125 113.347656 26.347656 112.816406 C 25.988281 112.28125 25.6875 111.71875 25.4375 111.125 C 25.191406 110.53125 25.007812 109.921875 24.878906 109.292969 C 24.753906 108.660156 24.691406 108.027344 24.691406 107.382812 C 24.691406 106.742188 24.753906 106.105469 24.878906 105.476562 C 25.007812 104.847656 25.191406 104.234375 25.4375 103.644531 C 25.6875 103.050781 25.988281 102.488281 26.347656 101.953125 C 26.703125 101.417969 27.109375 100.925781 27.566406 100.472656 C 28.023438 100.019531 28.519531 99.613281 29.054688 99.253906 C 29.589844 98.898438 30.15625 98.597656 30.75 98.351562 C 31.347656 98.105469 31.960938 97.921875 32.59375 97.796875 C 33.226562 97.671875 33.863281 97.609375 34.507812 97.609375 C 35.152344 97.609375 35.789062 97.671875 36.421875 97.796875 C 37.054688 97.921875 37.667969 98.105469 38.265625 98.351562 C 38.859375 98.597656 39.425781 98.898438 39.960938 99.253906 C 40.496094 99.613281 40.992188 100.019531 41.449219 100.472656 C 41.902344 100.925781 42.3125 101.417969 42.667969 101.953125 C 43.027344 102.488281 43.328125 103.050781 43.578125 103.644531 C 43.824219 104.234375 44.007812 104.847656 44.136719 105.476562 C 44.261719 106.105469 44.324219 106.742188 44.324219 107.382812 Z M 44.324219 107.382812 " fill-opacity="1" fill-rule="nonzero"/></g><g clip-path="url(#81e86fbb8c)"><path fill="#000000" d="M 68.863281 34.066406 C 68.863281 32.945312 68.808594 31.828125 68.699219 30.710938 C 68.585938 29.597656 68.421875 28.488281 68.203125 27.390625 C 67.984375 26.292969 67.710938 25.207031 67.382812 24.132812 C 67.058594 23.0625 66.679688 22.007812 66.246094 20.972656 C 65.816406 19.9375 65.335938 18.925781 64.804688 17.9375 C 64.277344 16.949219 63.699219 15.988281 63.074219 15.058594 C 62.449219 14.125 61.777344 13.226562 61.066406 12.359375 C 60.351562 11.496094 59.597656 10.664062 58.800781 9.871094 C 58.003906 9.082031 57.171875 8.328125 56.300781 7.617188 C 55.433594 6.90625 54.53125 6.238281 53.59375 5.617188 C 52.660156 4.996094 51.695312 4.417969 50.703125 3.890625 C 49.710938 3.363281 48.695312 2.882812 47.65625 2.457031 C 46.617188 2.027344 45.558594 1.648438 44.480469 1.324219 C 43.402344 1 42.3125 0.726562 41.210938 0.507812 C 40.105469 0.289062 38.996094 0.125 37.875 0.015625 C 36.753906 -0.09375 35.632812 -0.148438 34.507812 -0.148438 C 33.382812 -0.148438 32.261719 -0.09375 31.140625 0.015625 C 30.019531 0.125 28.910156 0.289062 27.804688 0.507812 C 26.703125 0.726562 25.613281 1 24.535156 1.324219 C 23.457031 1.648438 22.398438 2.027344 21.359375 2.457031 C 20.320312 2.882812 19.304688 3.363281 18.3125 3.890625 C 17.320312 4.417969 16.355469 4.996094 15.421875 5.617188 C 14.484375 6.238281 13.582031 6.90625 12.714844 7.617188 C 11.84375 8.328125 11.011719 9.082031 10.214844 9.871094 C 9.417969 10.664062 8.664062 11.496094 7.949219 12.359375 C 7.238281 13.226562 6.566406 14.125 5.941406 15.058594 C 5.316406 15.988281 4.738281 16.949219 4.210938 17.9375 C 3.679688 18.925781 3.199219 19.9375 2.769531 20.972656 C 2.335938 22.007812 1.957031 23.0625 1.632812 24.132812 C 1.304688 25.207031 1.03125 26.292969 0.8125 27.390625 C 0.59375 28.488281 0.429688 29.597656 0.316406 30.710938 C 0.207031 31.828125 0.152344 32.945312 0.152344 34.066406 C 0.152344 34.707031 0.214844 35.34375 0.339844 35.972656 C 0.46875 36.601562 0.652344 37.214844 0.898438 37.808594 C 1.144531 38.398438 1.449219 38.964844 1.808594 39.496094 C 2.164062 40.03125 2.570312 40.523438 3.027344 40.980469 C 3.484375 41.433594 3.980469 41.835938 4.515625 42.195312 C 5.050781 42.550781 5.617188 42.851562 6.210938 43.097656 C 6.808594 43.34375 7.421875 43.527344 8.054688 43.652344 C 8.6875 43.777344 9.324219 43.84375 9.96875 43.84375 C 10.613281 43.84375 11.25 43.777344 11.882812 43.652344 C 12.515625 43.527344 13.128906 43.34375 13.726562 43.097656 C 14.320312 42.851562 14.886719 42.550781 15.421875 42.195312 C 15.957031 41.835938 16.453125 41.433594 16.910156 40.980469 C 17.363281 40.523438 17.773438 40.03125 18.128906 39.496094 C 18.488281 38.964844 18.789062 38.398438 19.035156 37.808594 C 19.285156 37.214844 19.46875 36.601562 19.59375 35.972656 C 19.722656 35.34375 19.785156 34.707031 19.785156 34.066406 C 19.785156 33.101562 19.878906 32.148438 20.066406 31.207031 C 20.253906 30.261719 20.535156 29.34375 20.90625 28.453125 C 21.273438 27.566406 21.726562 26.71875 22.265625 25.917969 C 22.800781 25.117188 23.414062 24.378906 24.097656 23.699219 C 24.78125 23.015625 25.523438 22.410156 26.328125 21.875 C 27.132812 21.339844 27.980469 20.886719 28.875 20.519531 C 29.765625 20.148438 30.6875 19.871094 31.636719 19.683594 C 32.582031 19.496094 33.539062 19.402344 34.507812 19.402344 C 35.472656 19.402344 36.433594 19.496094 37.378906 19.683594 C 38.328125 19.871094 39.25 20.148438 40.140625 20.519531 C 41.035156 20.886719 41.882812 21.339844 42.6875 21.875 C 43.492188 22.410156 44.234375 23.015625 44.917969 23.699219 C 45.601562 24.378906 46.210938 25.117188 46.75 25.917969 C 47.285156 26.71875 47.742188 27.566406 48.109375 28.453125 C 48.480469 29.34375 48.757812 30.261719 48.949219 31.207031 C 49.136719 32.148438 49.230469 33.101562 49.230469 34.066406 C 49.230469 35.027344 49.136719 35.984375 48.949219 36.925781 C 48.757812 37.871094 48.480469 38.789062 48.109375 39.675781 C 47.742188 40.566406 47.285156 41.414062 46.75 42.210938 C 46.210938 43.011719 45.601562 43.753906 44.917969 44.433594 C 44.234375 45.117188 43.492188 45.722656 42.6875 46.257812 C 41.882812 46.792969 41.035156 47.246094 40.140625 47.613281 C 39.25 47.980469 38.328125 48.261719 37.378906 48.449219 C 36.433594 48.636719 35.472656 48.730469 34.507812 48.730469 C 33.863281 48.730469 33.226562 48.792969 32.59375 48.917969 C 31.960938 49.042969 31.347656 49.226562 30.75 49.472656 C 30.15625 49.71875 29.589844 50.019531 29.054688 50.378906 C 28.519531 50.734375 28.023438 51.140625 27.566406 51.59375 C 27.113281 52.046875 26.703125 52.539062 26.347656 53.074219 C 25.988281 53.609375 25.6875 54.171875 25.4375 54.765625 C 25.191406 55.359375 25.007812 55.96875 24.878906 56.597656 C 24.753906 57.226562 24.691406 57.863281 24.691406 58.503906 L 24.691406 80.5 C 24.691406 81.144531 24.753906 81.777344 24.878906 82.40625 C 25.007812 83.039062 25.191406 83.648438 25.4375 84.242188 C 25.6875 84.835938 25.988281 85.398438 26.347656 85.933594 C 26.703125 86.464844 27.109375 86.960938 27.566406 87.414062 C 28.023438 87.867188 28.519531 88.273438 29.054688 88.628906 C 29.589844 88.984375 30.15625 89.285156 30.75 89.53125 C 31.347656 89.777344 31.960938 89.964844 32.59375 90.089844 C 33.226562 90.214844 33.863281 90.277344 34.507812 90.277344 C 35.152344 90.277344 35.789062 90.214844 36.421875 90.089844 C 37.054688 89.964844 37.667969 89.777344 38.265625 89.53125 C 38.859375 89.285156 39.425781 88.984375 39.960938 88.628906 C 40.496094 88.273438 40.992188 87.867188 41.449219 87.414062 C 41.902344 86.960938 42.3125 86.464844 42.667969 85.933594 C 43.027344 85.398438 43.328125 84.835938 43.578125 84.242188 C 43.824219 83.648438 44.007812 83.039062 44.136719 82.40625 C 44.261719 81.777344 44.324219 81.144531 44.324219 80.5 L 44.324219 66.839844 C 46.082031 66.316406 47.789062 65.65625 49.441406 64.859375 C 51.097656 64.0625 52.675781 63.140625 54.179688 62.089844 C 55.683594 61.042969 57.097656 59.882812 58.414062 58.609375 C 59.734375 57.335938 60.941406 55.964844 62.039062 54.496094 C 63.136719 53.03125 64.109375 51.488281 64.960938 49.867188 C 65.808594 48.242188 66.523438 46.566406 67.105469 44.828125 C 67.683594 43.09375 68.121094 41.324219 68.417969 39.519531 C 68.710938 37.710938 68.859375 35.894531 68.863281 34.066406 Z M 68.863281 34.066406 " fill-opacity="1" fill-rule="nonzero"/></g><g clip-path="url(#e70ca19835)"><path fill="#000000" d="M 44.191406 107.382812 C 44.191406 108.027344 44.128906 108.660156 44.003906 109.292969 C 43.878906 109.921875 43.691406 110.53125 43.445312 111.125 C 43.199219 111.71875 42.898438 112.28125 42.539062 112.816406 C 42.179688 113.347656 41.773438 113.84375 41.316406 114.296875 C 40.863281 114.75 40.367188 115.15625 39.832031 115.511719 C 39.292969 115.867188 38.730469 116.167969 38.132812 116.414062 C 37.539062 116.660156 36.925781 116.847656 36.292969 116.972656 C 35.660156 117.097656 35.023438 117.160156 34.378906 117.160156 C 33.734375 117.160156 33.09375 117.097656 32.460938 116.972656 C 31.828125 116.847656 31.214844 116.660156 30.621094 116.414062 C 30.023438 116.167969 29.460938 115.867188 28.921875 115.511719 C 28.386719 115.15625 27.890625 114.75 27.4375 114.296875 C 26.980469 113.84375 26.574219 113.347656 26.214844 112.816406 C 25.859375 112.28125 25.554688 111.71875 25.308594 111.125 C 25.0625 110.53125 24.875 109.921875 24.75 109.292969 C 24.625 108.660156 24.5625 108.027344 24.5625 107.382812 C 24.5625 106.742188 24.625 106.105469 24.75 105.476562 C 24.875 104.847656 25.0625 104.234375 25.308594 103.644531 C 25.554688 103.050781 25.859375 102.488281 26.214844 101.953125 C 26.574219 101.417969 26.980469 100.925781 27.4375 100.472656 C 27.890625 100.019531 28.386719 99.613281 28.921875 99.253906 C 29.460938 98.898438 30.023438 98.597656 30.621094 98.351562 C 31.214844 98.105469 31.828125 97.921875 32.460938 97.796875 C 33.09375 97.671875 33.734375 97.609375 34.378906 97.609375 C 35.023438 97.609375 35.660156 97.671875 36.292969 97.796875 C 36.925781 97.921875 37.539062 98.105469 38.132812 98.351562 C 38.730469 98.597656 39.292969 98.898438 39.832031 99.253906 C 40.367188 99.613281 40.863281 100.019531 41.316406 100.472656 C 41.773438 100.925781 42.179688 101.417969 42.539062 101.953125 C 42.898438 102.488281 43.199219 103.050781 43.445312 103.644531 C 43.691406 104.234375 43.878906 104.847656 44.003906 105.476562 C 44.128906 106.105469 44.191406 106.742188 44.191406 107.382812 Z M 44.191406 107.382812 " fill-opacity="1" fill-rule="nonzero"/></g><g clip-path="url(#686d72c011)"><path fill="#000000" d="M 68.730469 34.066406 C 68.730469 32.945312 68.675781 31.828125 68.566406 30.710938 C 68.457031 29.597656 68.292969 28.488281 68.070312 27.390625 C 67.851562 26.292969 67.578125 25.207031 67.253906 24.132812 C 66.925781 23.0625 66.546875 22.007812 66.117188 20.972656 C 65.6875 19.9375 65.207031 18.925781 64.675781 17.9375 C 64.144531 16.949219 63.566406 15.988281 62.941406 15.058594 C 62.316406 14.125 61.648438 13.226562 60.933594 12.359375 C 60.21875 11.496094 59.464844 10.664062 58.667969 9.871094 C 57.875 9.082031 57.042969 8.328125 56.171875 7.617188 C 55.300781 6.90625 54.398438 6.238281 53.464844 5.617188 C 52.527344 4.996094 51.5625 4.417969 50.570312 3.890625 C 49.578125 3.363281 48.5625 2.882812 47.523438 2.457031 C 46.484375 2.027344 45.425781 1.648438 44.351562 1.324219 C 43.273438 1 42.183594 0.726562 41.078125 0.507812 C 39.976562 0.289062 38.863281 0.125 37.746094 0.015625 C 36.625 -0.09375 35.503906 -0.148438 34.378906 -0.148438 C 33.25 -0.148438 32.128906 -0.09375 31.007812 0.015625 C 29.890625 0.125 28.777344 0.289062 27.675781 0.507812 C 26.570312 0.726562 25.480469 1 24.40625 1.324219 C 23.328125 1.648438 22.269531 2.027344 21.230469 2.457031 C 20.191406 2.882812 19.175781 3.363281 18.183594 3.890625 C 17.191406 4.417969 16.226562 4.996094 15.289062 5.617188 C 14.355469 6.238281 13.453125 6.90625 12.582031 7.617188 C 11.710938 8.328125 10.878906 9.082031 10.085938 9.871094 C 9.289062 10.664062 8.535156 11.496094 7.820312 12.359375 C 7.105469 13.226562 6.4375 14.125 5.8125 15.058594 C 5.1875 15.988281 4.609375 16.949219 4.078125 17.9375 C 3.546875 18.925781 3.066406 19.9375 2.636719 20.972656 C 2.207031 22.007812 1.828125 23.0625 1.5 24.132812 C 1.175781 25.207031 0.902344 26.292969 0.683594 27.390625 C 0.460938 28.488281 0.296875 29.597656 0.1875 30.710938 C 0.078125 31.828125 0.0234375 32.945312 0.0234375 34.066406 C 0.0234375 34.707031 0.0859375 35.34375 0.210938 35.972656 C 0.335938 36.601562 0.523438 37.214844 0.769531 37.808594 C 1.015625 38.398438 1.316406 38.964844 1.675781 39.496094 C 2.035156 40.03125 2.441406 40.523438 2.898438 40.980469 C 3.351562 41.433594 3.847656 41.835938 4.382812 42.195312 C 4.921875 42.550781 5.484375 42.851562 6.082031 43.097656 C 6.675781 43.34375 7.289062 43.527344 7.921875 43.652344 C 8.554688 43.777344 9.191406 43.84375 9.835938 43.84375 C 10.480469 43.84375 11.121094 43.777344 11.753906 43.652344 C 12.386719 43.527344 13 43.34375 13.59375 43.097656 C 14.191406 42.851562 14.753906 42.550781 15.292969 42.195312 C 15.828125 41.835938 16.324219 41.433594 16.777344 40.980469 C 17.234375 40.523438 17.640625 40.03125 18 39.496094 C 18.355469 38.964844 18.660156 38.398438 18.90625 37.808594 C 19.152344 37.214844 19.339844 36.601562 19.464844 35.972656 C 19.589844 35.34375 19.652344 34.707031 19.652344 34.066406 C 19.652344 33.101562 19.746094 32.148438 19.9375 31.207031 C 20.125 30.261719 20.40625 29.34375 20.773438 28.453125 C 21.144531 27.566406 21.597656 26.71875 22.136719 25.917969 C 22.671875 25.117188 23.28125 24.378906 23.964844 23.699219 C 24.648438 23.015625 25.394531 22.410156 26.195312 21.875 C 27 21.339844 27.847656 20.886719 28.742188 20.519531 C 29.636719 20.148438 30.554688 19.871094 31.503906 19.683594 C 32.453125 19.496094 33.410156 19.402344 34.378906 19.402344 C 35.34375 19.402344 36.300781 19.496094 37.25 19.683594 C 38.199219 19.871094 39.117188 20.148438 40.011719 20.519531 C 40.90625 20.886719 41.753906 21.339844 42.558594 21.875 C 43.359375 22.410156 44.105469 23.015625 44.789062 23.699219 C 45.472656 24.378906 46.082031 25.117188 46.621094 25.917969 C 47.15625 26.71875 47.609375 27.566406 47.980469 28.453125 C 48.351562 29.34375 48.628906 30.261719 48.816406 31.207031 C 49.007812 32.148438 49.101562 33.101562 49.101562 34.066406 C 49.101562 35.027344 49.007812 35.984375 48.816406 36.925781 C 48.628906 37.871094 48.351562 38.789062 47.980469 39.675781 C 47.609375 40.566406 47.15625 41.414062 46.621094 42.210938 C 46.082031 43.011719 45.472656 43.753906 44.789062 44.433594 C 44.105469 45.117188 43.359375 45.722656 42.558594 46.257812 C 41.753906 46.792969 40.90625 47.246094 40.011719 47.613281 C 39.117188 47.980469 38.199219 48.261719 37.25 48.449219 C 36.300781 48.636719 35.34375 48.730469 34.378906 48.730469 C 33.734375 48.730469 33.09375 48.792969 32.460938 48.917969 C 31.828125 49.042969 31.214844 49.226562 30.621094 49.472656 C 30.027344 49.71875 29.460938 50.019531 28.925781 50.378906 C 28.386719 50.734375 27.890625 51.140625 27.4375 51.59375 C 26.980469 52.046875 26.574219 52.539062 26.214844 53.074219 C 25.859375 53.609375 25.554688 54.171875 25.308594 54.765625 C 25.0625 55.359375 24.875 55.96875 24.75 56.597656 C 24.625 57.226562 24.5625 57.863281 24.5625 58.503906 L 24.5625 80.5 C 24.5625 81.144531 24.625 81.777344 24.75 82.40625 C 24.875 83.039062 25.0625 83.648438 25.308594 84.242188 C 25.554688 84.835938 25.859375 85.398438 26.214844 85.933594 C 26.574219 86.464844 26.980469 86.960938 27.4375 87.414062 C 27.890625 87.867188 28.386719 88.273438 28.921875 88.628906 C 29.460938 88.984375 30.023438 89.285156 30.621094 89.53125 C 31.214844 89.777344 31.828125 89.964844 32.460938 90.089844 C 33.09375 90.214844 33.734375 90.277344 34.378906 90.277344 C 35.023438 90.277344 35.660156 90.214844 36.292969 90.089844 C 36.925781 89.964844 37.539062 89.777344 38.132812 89.53125 C 38.730469 89.285156 39.292969 88.984375 39.832031 88.628906 C 40.367188 88.273438 40.863281 87.867188 41.316406 87.414062 C 41.773438 86.960938 42.179688 86.464844 42.539062 85.933594 C 42.898438 85.398438 43.199219 84.835938 43.445312 84.242188 C 43.691406 83.648438 43.878906 83.039062 44.003906 82.40625 C 44.128906 81.777344 44.191406 81.144531 44.191406 80.5 L 44.191406 66.839844 C 45.953125 66.316406 47.660156 65.65625 49.3125 64.859375 C 50.964844 64.0625 52.542969 63.140625 54.050781 62.089844 C 55.554688 61.042969 56.964844 59.882812 58.285156 58.609375 C 59.601562 57.335938 60.8125 55.964844 61.910156 54.496094 C 63.007812 53.03125 63.980469 51.488281 64.828125 49.867188 C 65.679688 48.242188 66.394531 46.566406 66.972656 44.828125 C 67.554688 43.09375 67.992188 41.324219 68.285156 39.519531 C 68.582031 37.710938 68.730469 35.894531 68.730469 34.066406 Z M 68.730469 34.066406 " fill-opacity="1" fill-rule="nonzero"/></g></svg>