<svg xmlns="http://www.w3.org/2000/svg" xmlns:xlink="http://www.w3.org/1999/xlink" width="209" zoomAndPan="magnify" viewBox="0 0 156.75 419.999985" height="560" preserveAspectRatio="xMidYMid meet" version="1.0"><defs><filter x="0%" y="0%" width="100%" height="100%" id="cad8a44b63"><feColorMatrix values="0 0 0 0 1 0 0 0 0 1 0 0 0 0 1 0 0 0 1 0" color-interpolation-filters="sRGB"/></filter><clipPath id="7f672d0aa5"><path d="M 145 67 L 155.75 67 L 155.75 418.917969 L 145 418.917969 Z M 145 67 " clip-rule="nonzero"/></clipPath><clipPath id="c936b9cbe3"><path d="M 0 0.335938 L 153 0.335938 L 153 140 L 0 140 Z M 0 0.335938 " clip-rule="nonzero"/></clipPath><mask id="3dc2fb0895"><g filter="url(#cad8a44b63)"><rect x="-15.675" width="188.1" fill="#000000" y="-41.999998" height="503.999982" fill-opacity="0.3"/></g></mask><clipPath id="5762202a69"><path d="M 0.105469 0.441406 L 121.589844 0.441406 L 121.589844 121.925781 L 0.105469 121.925781 Z M 0.105469 0.441406 " clip-rule="nonzero"/></clipPath><clipPath id="774e38df2f"><rect x="0" width="122" y="0" height="122"/></clipPath><clipPath id="1c3d53cc47"><path d="M 136.355469 76.769531 L 137.832031 76.769531 L 137.832031 77.988281 L 136.355469 77.988281 Z M 136.355469 76.769531 " clip-rule="nonzero"/></clipPath><clipPath id="c68a06e060"><path d="M 137.824219 77.214844 C 137.148438 78.191406 136.550781 78.039062 136.402344 77.816406 C 136.324219 77.589844 136.402344 76.992188 136.625 76.839844 C 136.773438 76.691406 137.597656 76.917969 137.597656 76.917969 " clip-rule="nonzero"/></clipPath></defs><g clip-path="url(#7f672d0aa5)"><path fill="#ffe500" d="M 153.160156 67.449219 C 152.984375 67.382812 152.800781 67.34375 152.617188 67.296875 C 150.472656 66.746094 147.730469 67.480469 146.226562 69.09375 C 146.191406 69.140625 146.164062 69.199219 146.117188 69.246094 C 145.109375 70.4375 144.855469 71.929688 145.496094 73.289062 C 145.765625 73.863281 146.320312 74.191406 146.910156 74.230469 C 146.910156 74.230469 146.914062 74.230469 146.914062 74.226562 C 147.058594 74.089844 147.195312 73.933594 147.304688 73.769531 C 147.414062 73.613281 147.507812 73.445312 147.59375 73.269531 C 147.59375 73.257812 147.605469 73.246094 147.609375 73.234375 C 147.675781 73.074219 147.730469 72.902344 147.773438 72.726562 C 147.777344 72.699219 147.789062 72.671875 147.792969 72.644531 C 147.839844 72.441406 147.863281 72.230469 147.863281 72.011719 C 147.863281 72 147.855469 71.984375 147.855469 71.972656 C 147.855469 71.972656 147.855469 71.972656 147.855469 71.96875 C 148.675781 70.199219 151.132812 70.277344 151.949219 70.589844 C 152.679688 70.886719 152.625 71.695312 152.625 71.695312 L 152.625 77.792969 C 152.625 80.183594 151.277344 81.3125 149.527344 81.886719 L 149.527344 416.917969 C 149.527344 418.082031 150.460938 419.019531 151.628906 419.019531 C 152.785156 419.019531 153.730469 418.082031 153.730469 416.917969 L 153.730469 77.058594 C 153.933594 76.933594 154.144531 76.808594 154.339844 76.632812 C 155.449219 75.609375 155.96875 73.972656 155.9375 71.628906 C 155.90625 69.640625 154.902344 68.117188 153.160156 67.449219 Z M 153.160156 67.449219 " fill-opacity="1" fill-rule="nonzero"/></g><g clip-path="url(#c936b9cbe3)"><path fill="#232126" d="M 152.625 77.792969 L 152.625 71.695312 C 152.625 71.695312 152.679688 70.886719 151.949219 70.589844 C 151.132812 70.277344 148.675781 70.199219 147.855469 71.96875 C 147.855469 71.984375 147.867188 71.996094 147.867188 72.011719 C 147.867188 72.226562 147.839844 72.441406 147.792969 72.644531 C 147.792969 72.671875 147.777344 72.699219 147.773438 72.726562 C 147.730469 72.902344 147.675781 73.074219 147.609375 73.234375 C 147.605469 73.246094 147.59375 73.253906 147.59375 73.265625 C 147.507812 73.445312 147.414062 73.613281 147.308594 73.769531 C 147.195312 73.933594 147.0625 74.085938 146.914062 74.226562 C 146.914062 74.226562 146.910156 74.226562 146.910156 74.226562 C 146.359375 74.761719 145.613281 75.09375 144.777344 75.09375 C 143.074219 75.09375 141.699219 73.710938 141.699219 72.011719 C 141.699219 70.308594 143.074219 68.925781 144.777344 68.925781 C 145.265625 68.925781 145.710938 69.046875 146.121094 69.246094 C 146.164062 69.199219 146.191406 69.140625 146.230469 69.089844 C 147.730469 67.480469 150.472656 66.746094 152.617188 67.296875 C 152.464844 62.253906 147 63.691406 143.757812 62.609375 C 140.589844 62.410156 139.023438 60.210938 138.246094 57.992188 C 138.042969 56.804688 137.800781 55.632812 137.539062 54.472656 C 137.480469 53.71875 137.496094 53.230469 137.496094 53.230469 C 137.410156 53.230469 137.332031 53.246094 137.253906 53.253906 C 129.714844 22.9375 102.273438 0.394531 69.65625 0.394531 C 31.246094 0.394531 0 31.644531 0 70.050781 C 0 108.457031 31.246094 139.707031 69.65625 139.707031 C 100.429688 139.707031 126.589844 119.636719 135.777344 91.910156 C 135.789062 91.910156 135.800781 91.914062 135.808594 91.914062 C 135.808594 91.914062 135.820312 91.847656 135.835938 91.738281 C 136.21875 90.582031 136.570312 89.414062 136.890625 88.234375 C 137.96875 85.660156 140.027344 82.675781 143.757812 82.675781 C 145.429688 82.492188 147.699219 82.488281 149.527344 81.886719 C 151.28125 81.3125 152.625 80.183594 152.625 77.792969 Z M 69.65625 130.457031 C 36.347656 130.457031 9.25 103.355469 9.25 70.050781 C 9.25 36.742188 36.347656 9.644531 69.65625 9.644531 C 102.960938 9.644531 130.066406 36.742188 130.066406 70.050781 C 130.066406 103.355469 102.960938 130.457031 69.65625 130.457031 Z M 69.65625 130.457031 " fill-opacity="1" fill-rule="nonzero"/></g><g mask="url(#3dc2fb0895)"><g transform="matrix(1, 0, 0, 1, 9, 9)"><g clip-path="url(#774e38df2f)"><g clip-path="url(#5762202a69)"><path fill="#d69397" d="M 60.65625 0.648438 C 27.347656 0.648438 0.25 27.742188 0.25 61.050781 C 0.25 94.355469 27.347656 121.457031 60.65625 121.457031 C 93.960938 121.457031 121.066406 94.355469 121.066406 61.050781 C 121.066406 27.742188 93.960938 0.648438 60.65625 0.648438 Z M 60.65625 0.648438 " fill-opacity="1" fill-rule="nonzero"/></g></g></g></g><g clip-path="url(#1c3d53cc47)"><g clip-path="url(#c68a06e060)"><path fill="#232126" d="M 133.40625 73.847656 L 140.8125 73.847656 L 140.8125 81.109375 L 133.40625 81.109375 Z M 133.40625 73.847656 " fill-opacity="1" fill-rule="nonzero"/></g></g></svg>