<svg xmlns="http://www.w3.org/2000/svg" xmlns:xlink="http://www.w3.org/1999/xlink" width="74" zoomAndPan="magnify" viewBox="0 0 55.5 55.499996" height="74" preserveAspectRatio="xMidYMid meet" version="1.0"><defs><clipPath id="dd3ea90c44"><path d="M 8.820312 4.261719 L 47.863281 4.261719 L 47.863281 29.328125 L 8.820312 29.328125 Z M 8.820312 4.261719 " clip-rule="nonzero"/></clipPath><clipPath id="d97bad0d7b"><path d="M 8.902344 23 C 11.726562 14.453125 13.808594 10.738281 15.742188 8.878906 C 17.152344 7.464844 18.492188 6.796875 20.347656 6.128906 C 22.875 5.164062 27.039062 4.269531 29.714844 4.34375 C 31.722656 4.417969 33.207031 4.714844 35.066406 5.757812 C 37.742188 7.167969 41.160156 10.515625 43.316406 13.414062 C 45.324219 16.238281 47.183594 20.699219 47.628906 22.925781 C 47.851562 23.96875 47.851562 24.5625 47.628906 25.378906 C 47.257812 26.347656 46.4375 27.757812 45.472656 28.351562 C 44.507812 29.023438 43.242188 29.46875 41.90625 29.171875 C 39.824219 28.800781 37 25.304688 34.769531 24.265625 C 33.058594 23.523438 31.5 23.375 29.863281 23.074219 C 28.226562 22.703125 26.519531 22.109375 24.882812 22.257812 C 23.246094 22.40625 21.613281 23.96875 20.199219 24.117188 C 18.9375 24.191406 17.746094 24.191406 16.78125 23.523438 C 15.667969 22.777344 14.253906 20.773438 14.03125 19.433594 C 13.808594 18.320312 14.105469 16.980469 14.773438 16.089844 C 15.59375 14.972656 17.523438 13.5625 19.011719 13.488281 C 20.496094 13.414062 22.652344 14.453125 23.546875 15.644531 C 24.4375 16.757812 24.808594 19.136719 24.363281 20.546875 C 23.917969 21.960938 22.058594 23.523438 20.722656 23.96875 C 19.679688 24.339844 18.34375 24.191406 17.300781 23.820312 C 16.335938 23.375 15.21875 22.628906 14.773438 21.589844 C 14.105469 20.324219 14.03125 17.871094 14.476562 16.609375 C 14.847656 15.496094 15.964844 14.75 16.855469 14.15625 C 17.671875 13.488281 18.566406 13.117188 19.679688 12.742188 C 21.167969 12.222656 22.800781 11.628906 25.03125 11.628906 C 28.75 11.628906 36.40625 13.636719 39.75 14.75 C 41.535156 15.421875 42.574219 15.71875 43.761719 16.757812 C 45.25 18.171875 47.257812 21.070312 47.628906 22.925781 C 47.925781 24.191406 47.628906 25.601562 47.183594 26.496094 C 46.8125 27.3125 46.214844 27.90625 45.472656 28.351562 C 44.582031 28.875 42.945312 29.246094 41.90625 29.171875 C 41.011719 29.171875 40.269531 28.875 39.601562 28.277344 C 38.707031 27.609375 37.890625 26.199219 37.296875 24.933594 C 36.628906 23.449219 36.777344 21.292969 35.957031 19.878906 C 35.140625 18.617188 33.804688 17.722656 32.464844 16.832031 C 30.902344 15.941406 28.824219 14.824219 27.113281 14.601562 C 25.550781 14.453125 23.769531 14.601562 22.578125 15.34375 C 21.316406 16.164062 20.570312 18.023438 19.679688 19.65625 C 18.640625 21.664062 18.195312 25.082031 17.152344 26.644531 C 16.410156 27.683594 15.441406 28.351562 14.625 28.652344 C 13.882812 28.949219 13.214844 28.949219 12.46875 28.800781 C 11.578125 28.578125 10.238281 28.054688 9.644531 27.164062 C 8.976562 26.199219 8.902344 23 8.902344 23 " clip-rule="nonzero"/></clipPath><clipPath id="594ef7ab0c"><path d="M 12.492188 24 L 42.785156 24 L 42.785156 49.292969 L 12.492188 49.292969 Z M 12.492188 24 " clip-rule="nonzero"/></clipPath><clipPath id="186b4f1ae9"><path d="M 12.542969 38.460938 C 12.691406 37.347656 12.691406 37.347656 12.691406 37.347656 C 12.691406 37.273438 12.617188 37.125 12.691406 36.976562 C 12.765625 36.828125 12.917969 36.679688 12.992188 36.53125 C 12.992188 36.457031 13.066406 36.382812 13.066406 36.382812 C 13.066406 36.382812 13.585938 35.117188 14.03125 34.375 C 14.699219 33.332031 15.816406 31.921875 16.707031 30.65625 C 17.597656 29.394531 18.269531 27.757812 19.382812 26.792969 C 20.496094 25.828125 22.058594 25.15625 23.472656 24.710938 C 24.882812 24.265625 26.371094 24.117188 27.929688 24.042969 C 29.566406 24.042969 31.425781 24.042969 32.984375 24.636719 C 34.398438 25.15625 35.734375 26.125 36.925781 27.238281 C 38.1875 28.351562 39.304688 29.765625 40.195312 31.179688 C 41.011719 32.515625 41.832031 33.855469 42.203125 35.414062 C 42.648438 37.125 42.945312 39.355469 42.425781 40.839844 C 41.980469 42.253906 39.75 44.261719 39.675781 44.484375 C 39.601562 44.558594 39.453125 44.855469 39.230469 45.003906 C 38.632812 45.523438 36.40625 46.414062 35.4375 46.9375 C 34.84375 47.234375 34.324219 47.679688 34.027344 47.679688 C 33.878906 47.753906 33.804688 47.605469 33.652344 47.605469 C 33.058594 47.605469 31.351562 48.421875 30.085938 48.644531 C 28.675781 48.941406 27.039062 49.242188 25.476562 49.242188 C 23.992188 49.164062 22.578125 48.941406 21.09375 48.496094 C 19.382812 48.050781 17.226562 47.605469 15.816406 46.5625 C 14.476562 45.597656 13.140625 43.886719 12.691406 42.625 C 12.394531 41.585938 12.765625 39.875 12.691406 39.652344 C 12.691406 39.578125 12.691406 39.578125 12.691406 39.578125 C 12.617188 39.429688 12.542969 38.460938 12.542969 38.460938 " clip-rule="nonzero"/></clipPath><clipPath id="8b580c152a"><path d="M 8.710938 19.171875 L 45.875 19.171875 L 45.875 41.46875 L 8.710938 41.46875 Z M 8.710938 19.171875 " clip-rule="nonzero"/></clipPath></defs><g clip-path="url(#dd3ea90c44)"><g clip-path="url(#d97bad0d7b)"><path fill="#232126" d="M 5.929688 1.371094 L 50.632812 1.371094 L 50.632812 32.21875 L 5.929688 32.21875 Z M 5.929688 1.371094 " fill-opacity="1" fill-rule="nonzero"/></g></g><g clip-path="url(#594ef7ab0c)"><g clip-path="url(#186b4f1ae9)"><path fill="#a91f2a" d="M 9.570312 21.070312 L 45.460938 21.070312 L 45.460938 52.214844 L 9.570312 52.214844 Z M 9.570312 21.070312 " fill-opacity="1" fill-rule="nonzero"/></g></g><path fill="#232126" d="M 27.652344 54.726562 C 18.867188 54.726562 11.398438 50.589844 8.160156 43.984375 C 4.183594 35.8125 4.921875 23.757812 7.710938 16.03125 C 10.53125 8.269531 17.265625 0 27.746094 0 C 40.316406 0 47.175781 11.285156 49.195312 20.96875 C 50.542969 27.378906 50.414062 34.496094 48.875 39.976562 C 47.625 44.402344 44.964844 48.152344 41.179688 50.75 C 37.492188 53.316406 32.683594 54.726562 27.652344 54.726562 Z M 14.027344 41.164062 C 10.882812 34.6875 11.589844 24.527344 13.867188 18.210938 C 16.496094 10.996094 21.816406 6.507812 27.746094 6.507812 C 34.863281 6.507812 40.765625 12.695312 42.785156 22.28125 C 43.9375 27.730469 43.875 33.726562 42.558594 38.246094 C 40.476562 45.621094 33.550781 48.25 27.78125 48.25 C 21.625 48.25 16.109375 45.394531 14.027344 41.164062 Z M 14.027344 41.164062 " fill-opacity="1" fill-rule="evenodd"/><g clip-path="url(#8b580c152a)"><path fill="#232126" d="M 27.511719 73.894531 C 18.730469 73.894531 11.257812 69.761719 8.019531 63.15625 C 4.046875 54.980469 4.78125 42.925781 7.574219 35.199219 C 10.394531 27.441406 17.125 19.171875 27.609375 19.171875 C 40.175781 19.171875 47.039062 30.457031 49.058594 40.136719 C 50.402344 46.550781 50.277344 53.667969 48.738281 59.148438 C 47.488281 63.574219 44.824219 67.324219 41.042969 69.921875 C 37.355469 72.484375 32.546875 73.894531 27.511719 73.894531 Z M 13.886719 60.335938 C 10.746094 53.859375 11.453125 43.695312 13.726562 37.378906 C 16.355469 30.167969 21.679688 25.679688 27.609375 25.679688 C 34.726562 25.679688 40.625 31.867188 42.644531 41.453125 C 43.800781 46.902344 43.734375 52.898438 42.421875 57.417969 C 40.335938 64.789062 33.414062 67.417969 27.640625 67.417969 C 21.484375 67.417969 15.972656 64.566406 13.886719 60.335938 Z M 13.886719 60.335938 " fill-opacity="1" fill-rule="evenodd"/></g></svg>