<svg xmlns="http://www.w3.org/2000/svg" xmlns:xlink="http://www.w3.org/1999/xlink" width="364" zoomAndPan="magnify" viewBox="0 0 273 280.499991" height="374" preserveAspectRatio="xMidYMid meet" version="1.0"><defs><clipPath id="519cd11e62"><path d="M 2 2 L 75 2 L 75 41 L 2 41 Z M 2 2 " clip-rule="nonzero"/></clipPath><clipPath id="510dde2563"><path d="M 0.242188 12.714844 L 71.339844 -0.0117188 L 76.804688 30.527344 L 5.707031 43.253906 Z M 0.242188 12.714844 " clip-rule="nonzero"/></clipPath><clipPath id="1605eb4b49"><path d="M 56.015625 2.730469 C 64.449219 1.222656 72.511719 6.835938 74.019531 15.269531 C 75.527344 23.699219 69.917969 31.761719 61.484375 33.269531 L 20.976562 40.519531 C 12.542969 42.03125 4.484375 36.417969 2.976562 27.984375 C 1.464844 19.550781 7.078125 11.492188 15.511719 9.980469 Z M 56.015625 2.730469 " clip-rule="nonzero"/></clipPath><clipPath id="5ac596d32e"><path d="M 198 2 L 270 2 L 270 42 L 198 42 Z M 198 2 " clip-rule="nonzero"/></clipPath><clipPath id="d871193089"><path d="M 201.589844 0 L 272.589844 13.238281 L 266.90625 43.734375 L 195.902344 30.5 Z M 201.589844 0 " clip-rule="nonzero"/></clipPath><clipPath id="48c7653109"><path d="M 257.289062 10.382812 C 265.710938 11.953125 271.265625 20.054688 269.695312 28.476562 C 268.125 36.898438 260.027344 42.453125 251.605469 40.882812 L 211.152344 33.339844 C 202.730469 31.769531 197.175781 23.671875 198.746094 15.25 C 200.316406 6.828125 208.417969 1.273438 216.835938 2.84375 Z M 257.289062 10.382812 " clip-rule="nonzero"/></clipPath><clipPath id="d7a78a2c7b"><path d="M 0.242188 190 L 173 190 L 173 280 L 0.242188 280 Z M 0.242188 190 " clip-rule="nonzero"/></clipPath></defs><g clip-path="url(#519cd11e62)"><g clip-path="url(#510dde2563)"><g clip-path="url(#1605eb4b49)"><path fill="#232126" d="M 0.242188 12.714844 L 71.339844 -0.0117188 L 76.804688 30.527344 L 5.707031 43.253906 Z M 0.242188 12.714844 " fill-opacity="1" fill-rule="nonzero"/></g></g></g><g clip-path="url(#5ac596d32e)"><g clip-path="url(#d871193089)"><g clip-path="url(#48c7653109)"><path fill="#232126" d="M 201.589844 0 L 272.589844 13.238281 L 266.90625 43.734375 L 195.902344 30.5 Z M 201.589844 0 " fill-opacity="1" fill-rule="nonzero"/></g></g></g><g clip-path="url(#d7a78a2c7b)"><path stroke-linecap="round" transform="matrix(0.718206, 0.211375, -0.211375, 0.718206, 36.986903, 233.522038)" fill="none" stroke-linejoin="miter" d="M 8.173144 7.990244 C 45.621321 25.126049 83.073238 25.106474 120.528309 7.948009 " stroke="#232126" stroke-width="12" stroke-opacity="1" stroke-miterlimit="4"/></g></svg>