<svg xmlns="http://www.w3.org/2000/svg" xmlns:xlink="http://www.w3.org/1999/xlink" width="224" zoomAndPan="magnify" viewBox="0 0 168 118.499997" height="158" preserveAspectRatio="xMidYMid meet" version="1.0"><defs><clipPath id="b88c061ae2"><path d="M 0.351562 0 L 167.644531 0 L 167.644531 118 L 0.351562 118 Z M 0.351562 0 " clip-rule="nonzero"/></clipPath><clipPath id="0ca250f58f"><path d="M 0.351562 14.007812 L 158.066406 0.0078125 L 167.246094 103.414062 L 9.53125 117.414062 Z M 0.351562 14.007812 " clip-rule="nonzero"/></clipPath><clipPath id="0a850e40cb"><path d="M -287.234375 -279.625 L 422.46875 -342.625 L 469.886719 191.511719 L -239.816406 254.511719 Z M -287.234375 -279.625 " clip-rule="nonzero"/></clipPath><clipPath id="8eb7c5054c"><path d="M 0.351562 0 L 37 0 L 37 28 L 0.351562 28 Z M 0.351562 0 " clip-rule="nonzero"/></clipPath><clipPath id="a205864c41"><path d="M 0.351562 14.007812 L 158.066406 0.0078125 L 167.246094 103.414062 L 9.53125 117.414062 Z M 0.351562 14.007812 " clip-rule="nonzero"/></clipPath><clipPath id="fc5e312136"><path d="M -287.234375 -279.625 L 422.46875 -342.625 L 469.886719 191.511719 L -239.816406 254.511719 Z M -287.234375 -279.625 " clip-rule="nonzero"/></clipPath><clipPath id="8058ecb8aa"><path d="M 129 0 L 167.644531 0 L 167.644531 23 L 129 23 Z M 129 0 " clip-rule="nonzero"/></clipPath><clipPath id="4e50135041"><path d="M 0.351562 14.007812 L 158.066406 0.0078125 L 167.246094 103.414062 L 9.53125 117.414062 Z M 0.351562 14.007812 " clip-rule="nonzero"/></clipPath><clipPath id="872830a304"><path d="M -287.234375 -279.625 L 422.46875 -342.625 L 469.886719 191.511719 L -239.816406 254.511719 Z M -287.234375 -279.625 " clip-rule="nonzero"/></clipPath><clipPath id="20bbacc02f"><path d="M 0.351562 97 L 59 97 L 59 118 L 0.351562 118 Z M 0.351562 97 " clip-rule="nonzero"/></clipPath><clipPath id="285edd4550"><path d="M 0.351562 14.007812 L 158.066406 0.0078125 L 167.246094 103.414062 L 9.53125 117.414062 Z M 0.351562 14.007812 " clip-rule="nonzero"/></clipPath><clipPath id="c232ef4b5d"><path d="M -287.234375 -279.625 L 422.46875 -342.625 L 469.886719 191.511719 L -239.816406 254.511719 Z M -287.234375 -279.625 " clip-rule="nonzero"/></clipPath><clipPath id="cbf8017d9f"><path d="M 5 7 L 164 7 L 164 110 L 5 110 Z M 5 7 " clip-rule="nonzero"/></clipPath><clipPath id="f22e8e5c8f"><path d="M 0.351562 14.007812 L 158.066406 0.0078125 L 167.246094 103.414062 L 9.53125 117.414062 Z M 0.351562 14.007812 " clip-rule="nonzero"/></clipPath><clipPath id="b8a2489017"><path d="M -287.234375 -279.625 L 422.46875 -342.625 L 469.886719 191.511719 L -239.816406 254.511719 Z M -287.234375 -279.625 " clip-rule="nonzero"/></clipPath><clipPath id="f473d51873"><path d="M 95 29 L 113 29 L 113 61 L 95 61 Z M 95 29 " clip-rule="nonzero"/></clipPath><clipPath id="7768630367"><path d="M 0.351562 14.007812 L 158.066406 0.0078125 L 167.246094 103.414062 L 9.53125 117.414062 Z M 0.351562 14.007812 " clip-rule="nonzero"/></clipPath><clipPath id="51f2772b76"><path d="M -287.234375 -279.625 L 422.46875 -342.625 L 469.886719 191.511719 L -239.816406 254.511719 Z M -287.234375 -279.625 " clip-rule="nonzero"/></clipPath><clipPath id="32c1c33a77"><path d="M 57 29 L 75 29 L 75 61 L 57 61 Z M 57 29 " clip-rule="nonzero"/></clipPath><clipPath id="6dd764a531"><path d="M 0.351562 14.007812 L 158.066406 0.0078125 L 167.246094 103.414062 L 9.53125 117.414062 Z M 0.351562 14.007812 " clip-rule="nonzero"/></clipPath><clipPath id="8614ca0ad5"><path d="M -287.234375 -279.625 L 422.46875 -342.625 L 469.886719 191.511719 L -239.816406 254.511719 Z M -287.234375 -279.625 " clip-rule="nonzero"/></clipPath><clipPath id="deb1fdffe1"><path d="M 0.351562 0 L 167.644531 0 L 167.644531 118 L 0.351562 118 Z M 0.351562 0 " clip-rule="nonzero"/></clipPath><clipPath id="4bf36fcbc4"><path d="M 0.351562 14.007812 L 158.066406 0.0078125 L 167.246094 103.414062 L 9.53125 117.414062 Z M 0.351562 14.007812 " clip-rule="nonzero"/></clipPath><clipPath id="ac5fe43c02"><path d="M -287.234375 -279.625 L 422.46875 -342.625 L 469.886719 191.511719 L -239.816406 254.511719 Z M -287.234375 -279.625 " clip-rule="nonzero"/></clipPath><clipPath id="b39540c61c"><path d="M 0.351562 0 L 37 0 L 37 28 L 0.351562 28 Z M 0.351562 0 " clip-rule="nonzero"/></clipPath><clipPath id="9bae815501"><path d="M 0.351562 14.007812 L 158.066406 0.0078125 L 167.246094 103.414062 L 9.53125 117.414062 Z M 0.351562 14.007812 " clip-rule="nonzero"/></clipPath><clipPath id="73605be321"><path d="M -287.234375 -279.625 L 422.46875 -342.625 L 469.886719 191.511719 L -239.816406 254.511719 Z M -287.234375 -279.625 " clip-rule="nonzero"/></clipPath><clipPath id="d2b401742b"><path d="M 129 0 L 167.644531 0 L 167.644531 23 L 129 23 Z M 129 0 " clip-rule="nonzero"/></clipPath><clipPath id="f9593db57f"><path d="M 0.351562 14.007812 L 158.066406 0.0078125 L 167.246094 103.414062 L 9.53125 117.414062 Z M 0.351562 14.007812 " clip-rule="nonzero"/></clipPath><clipPath id="32742c37fc"><path d="M -287.234375 -279.625 L 422.46875 -342.625 L 469.886719 191.511719 L -239.816406 254.511719 Z M -287.234375 -279.625 " clip-rule="nonzero"/></clipPath><clipPath id="71085e6e29"><path d="M 0.351562 97 L 59 97 L 59 118 L 0.351562 118 Z M 0.351562 97 " clip-rule="nonzero"/></clipPath><clipPath id="4c693493d4"><path d="M 0.351562 14.007812 L 158.066406 0.0078125 L 167.246094 103.414062 L 9.53125 117.414062 Z M 0.351562 14.007812 " clip-rule="nonzero"/></clipPath><clipPath id="ff8871e4dc"><path d="M -287.234375 -279.625 L 422.46875 -342.625 L 469.886719 191.511719 L -239.816406 254.511719 Z M -287.234375 -279.625 " clip-rule="nonzero"/></clipPath><clipPath id="87e29290fa"><path d="M 5 7 L 164 7 L 164 110 L 5 110 Z M 5 7 " clip-rule="nonzero"/></clipPath><clipPath id="881de837ef"><path d="M 0.351562 14.007812 L 158.066406 0.0078125 L 167.246094 103.414062 L 9.53125 117.414062 Z M 0.351562 14.007812 " clip-rule="nonzero"/></clipPath><clipPath id="d10736e96e"><path d="M -287.234375 -279.625 L 422.46875 -342.625 L 469.886719 191.511719 L -239.816406 254.511719 Z M -287.234375 -279.625 " clip-rule="nonzero"/></clipPath><clipPath id="7d58ac0bd9"><path d="M 95 29 L 113 29 L 113 61 L 95 61 Z M 95 29 " clip-rule="nonzero"/></clipPath><clipPath id="26b95e2364"><path d="M 0.351562 14.007812 L 158.066406 0.0078125 L 167.246094 103.414062 L 9.53125 117.414062 Z M 0.351562 14.007812 " clip-rule="nonzero"/></clipPath><clipPath id="00567703a1"><path d="M -287.234375 -279.625 L 422.46875 -342.625 L 469.886719 191.511719 L -239.816406 254.511719 Z M -287.234375 -279.625 " clip-rule="nonzero"/></clipPath><clipPath id="1466ea6ca3"><path d="M 57 29 L 75 29 L 75 61 L 57 61 Z M 57 29 " clip-rule="nonzero"/></clipPath><clipPath id="ed2545e6c7"><path d="M 0.351562 14.007812 L 158.066406 0.0078125 L 167.246094 103.414062 L 9.53125 117.414062 Z M 0.351562 14.007812 " clip-rule="nonzero"/></clipPath><clipPath id="032c2d49ba"><path d="M -287.234375 -279.625 L 422.46875 -342.625 L 469.886719 191.511719 L -239.816406 254.511719 Z M -287.234375 -279.625 " clip-rule="nonzero"/></clipPath></defs><g clip-path="url(#b88c061ae2)"><g clip-path="url(#0ca250f58f)"><g clip-path="url(#0a850e40cb)"><path fill="#d69397" d="M 396.269531 9.621094 C 397.992188 49.949219 389.582031 90.804688 366.535156 128.882812 C 361.832031 136.613281 356.378906 143.765625 350.171875 150.347656 C 343.703125 157.195312 336.679688 163.417969 329.101562 169.011719 C 325.289062 167.371094 321.75 165.273438 318.480469 162.71875 C 315.210938 160.164062 312.320312 157.234375 309.808594 153.929688 L -94.484375 189.820312 C -95.867188 192.675781 -97.535156 195.355469 -99.488281 197.855469 C -104.699219 195.84375 -109.714844 193.773438 -114.523438 191.597656 C -137.914062 181.054688 -156.347656 168.582031 -167.777344 154.304688 C -193.261719 122.605469 -206.628906 95.015625 -211.433594 67.972656 C -220.691406 15.535156 -197.875 -34.988281 -168.636719 -109.953125 C -168.082031 -111.429688 -167.460938 -112.785156 -166.941406 -114.175781 C -163.261719 -123.222656 -159.023438 -132 -154.226562 -140.503906 C -152.050781 -144.34375 -149.773438 -148.121094 -147.390625 -151.832031 C -145.007812 -155.546875 -142.523438 -159.1875 -139.941406 -162.765625 C -137.355469 -166.339844 -134.671875 -169.839844 -131.894531 -173.265625 C -129.113281 -176.691406 -126.242188 -180.039062 -123.277344 -183.304688 C -120.3125 -186.570312 -117.257812 -189.753906 -114.117188 -192.851562 C -110.972656 -195.949219 -107.75 -198.957031 -104.441406 -201.875 C -101.132812 -204.792969 -97.746094 -207.617188 -94.28125 -210.347656 C -90.8125 -213.078125 -87.277344 -215.707031 -83.664062 -218.242188 C -80.050781 -220.777344 -76.375 -223.207031 -72.628906 -225.539062 C -68.882812 -227.867188 -65.074219 -230.089844 -61.203125 -232.210938 C -57.332031 -234.328125 -53.40625 -236.335938 -49.425781 -238.238281 C -45.445312 -240.140625 -41.414062 -241.925781 -37.332031 -243.605469 C -33.253906 -245.28125 -29.128906 -246.84375 -24.960938 -248.292969 C -20.792969 -249.738281 -16.589844 -251.070312 -12.347656 -252.285156 C -8.109375 -253.5 -3.835938 -254.597656 0.464844 -255.574219 C 4.769531 -256.550781 9.09375 -257.410156 13.441406 -258.144531 C 20.074219 -259.304688 26.785156 -260.160156 33.550781 -260.746094 C 75.398438 -264.332031 130.8125 -266.292969 180.015625 -258.839844 C 209.945312 -254.347656 237.589844 -246.296875 258.433594 -233.039062 C 287.140625 -214.789062 317.691406 -183.8125 342.742188 -145.570312 C 372.167969 -100.855469 393.882812 -46.066406 396.269531 9.621094 Z M 396.269531 9.621094 " fill-opacity="1" fill-rule="nonzero"/></g></g></g><g clip-path="url(#8eb7c5054c)"><g clip-path="url(#a205864c41)"><g clip-path="url(#fc5e312136)"><path fill="#d69397" d="M 7.191406 -47.382812 C 8.191406 -47.347656 9.191406 -47.253906 10.183594 -47.097656 C 11.175781 -46.945312 12.160156 -46.730469 13.132812 -46.457031 C 14.105469 -46.183594 15.066406 -45.855469 16.011719 -45.464844 C 16.957031 -45.078125 17.886719 -44.632812 18.796875 -44.132812 C 19.703125 -43.632812 20.589844 -43.078125 21.453125 -42.472656 C 22.316406 -41.863281 23.15625 -41.207031 23.964844 -40.496094 C 24.773438 -39.789062 25.550781 -39.03125 26.300781 -38.230469 C 27.046875 -37.425781 27.757812 -36.578125 28.4375 -35.691406 C 29.117188 -34.800781 29.757812 -33.871094 30.359375 -32.902344 C 30.960938 -31.933594 31.523438 -30.933594 32.046875 -29.894531 C 32.566406 -28.859375 33.046875 -27.792969 33.480469 -26.695312 C 33.914062 -25.597656 34.304688 -24.480469 34.648438 -23.335938 C 34.996094 -22.191406 35.292969 -21.027344 35.542969 -19.847656 C 35.792969 -18.664062 35.996094 -17.46875 36.148438 -16.261719 C 36.304688 -15.054688 36.410156 -13.839844 36.464844 -12.621094 C 36.519531 -11.398438 36.527344 -10.175781 36.488281 -8.949219 C 36.445312 -7.726562 36.351562 -6.507812 36.214844 -5.292969 C 36.074219 -4.078125 35.886719 -2.871094 35.648438 -1.679688 C 35.410156 -0.484375 35.128906 0.695312 34.796875 1.855469 C 34.464844 3.015625 34.089844 4.15625 33.667969 5.273438 C 33.246094 6.390625 32.78125 7.484375 32.269531 8.546875 C 31.761719 9.609375 31.210938 10.640625 30.621094 11.640625 C 30.027344 12.636719 29.398438 13.601562 28.730469 14.523438 C 28.0625 15.449219 27.359375 16.332031 26.621094 17.171875 C 25.882812 18.015625 25.113281 18.8125 24.3125 19.5625 C 23.511719 20.3125 22.683594 21.011719 21.828125 21.664062 C 20.972656 22.316406 20.09375 22.914062 19.191406 23.460938 C 18.289062 24.007812 17.363281 24.5 16.421875 24.9375 C 15.480469 25.371094 14.527344 25.753906 13.554688 26.074219 C 12.585938 26.398438 11.605469 26.660156 10.613281 26.867188 C 9.625 27.070312 8.628906 27.214844 7.628906 27.300781 C 6.625 27.386719 5.625 27.414062 4.625 27.378906 C 3.621094 27.34375 2.625 27.25 1.632812 27.097656 C 0.640625 26.941406 -0.34375 26.730469 -1.316406 26.457031 C -2.289062 26.183594 -3.25 25.851562 -4.199219 25.464844 C -5.144531 25.078125 -6.070312 24.632812 -6.980469 24.132812 C -7.890625 23.632812 -8.777344 23.078125 -9.640625 22.46875 C -10.503906 21.863281 -11.339844 21.203125 -12.148438 20.496094 C -12.957031 19.789062 -13.734375 19.03125 -14.484375 18.226562 C -15.230469 17.425781 -15.945312 16.578125 -16.621094 15.6875 C -17.300781 14.796875 -17.941406 13.871094 -18.542969 12.902344 C -19.148438 11.933594 -19.710938 10.929688 -20.230469 9.894531 C -20.753906 8.855469 -21.230469 7.789062 -21.664062 6.695312 C -22.101562 5.597656 -22.488281 4.476562 -22.835938 3.332031 C -23.179688 2.191406 -23.476562 1.027344 -23.726562 -0.15625 C -23.976562 -1.335938 -24.179688 -2.53125 -24.332031 -3.738281 C -24.488281 -4.945312 -24.59375 -6.160156 -24.648438 -7.382812 C -24.707031 -8.605469 -24.710938 -9.828125 -24.671875 -11.050781 C -24.628906 -12.273438 -24.539062 -13.496094 -24.398438 -14.710938 C -24.257812 -15.925781 -24.070312 -17.128906 -23.832031 -18.324219 C -23.597656 -19.515625 -23.3125 -20.695312 -22.980469 -21.855469 C -22.652344 -23.019531 -22.273438 -24.15625 -21.851562 -25.277344 C -21.429688 -26.394531 -20.964844 -27.484375 -20.453125 -28.546875 C -19.945312 -29.613281 -19.394531 -30.640625 -18.804688 -31.640625 C -18.210938 -32.640625 -17.582031 -33.601562 -16.914062 -34.527344 C -16.246094 -35.449219 -15.542969 -36.332031 -14.808594 -37.175781 C -14.070312 -38.015625 -13.300781 -38.8125 -12.5 -39.5625 C -11.699219 -40.3125 -10.871094 -41.011719 -10.011719 -41.664062 C -9.15625 -42.316406 -8.277344 -42.914062 -7.375 -43.460938 C -6.472656 -44.007812 -5.550781 -44.5 -4.609375 -44.9375 C -3.667969 -45.375 -2.710938 -45.753906 -1.738281 -46.078125 C -0.769531 -46.398438 0.210938 -46.664062 1.203125 -46.867188 C 2.191406 -47.074219 3.1875 -47.21875 4.1875 -47.304688 C 5.1875 -47.390625 6.191406 -47.414062 7.191406 -47.382812 Z M 7.191406 -47.382812 " fill-opacity="1" fill-rule="nonzero"/></g></g></g><g clip-path="url(#8058ecb8aa)"><g clip-path="url(#4e50135041)"><g clip-path="url(#872830a304)"><path fill="#d69397" d="M 161.835938 -51.992188 C 162.835938 -51.960938 163.835938 -51.863281 164.828125 -51.710938 C 165.820312 -51.554688 166.800781 -51.34375 167.777344 -51.070312 C 168.75 -50.796875 169.710938 -50.46875 170.65625 -50.078125 C 171.601562 -49.691406 172.53125 -49.246094 173.441406 -48.746094 C 174.347656 -48.246094 175.234375 -47.691406 176.097656 -47.085938 C 176.960938 -46.476562 177.796875 -45.820312 178.609375 -45.109375 C 179.417969 -44.402344 180.195312 -43.644531 180.941406 -42.84375 C 181.691406 -42.039062 182.402344 -41.191406 183.082031 -40.300781 C 183.761719 -39.414062 184.402344 -38.484375 185.003906 -37.515625 C 185.605469 -36.546875 186.167969 -35.542969 186.691406 -34.507812 C 187.210938 -33.46875 187.691406 -32.402344 188.125 -31.308594 C 188.558594 -30.210938 188.949219 -29.09375 189.292969 -27.949219 C 189.636719 -26.804688 189.9375 -25.640625 190.1875 -24.460938 C 190.4375 -23.277344 190.640625 -22.082031 190.792969 -20.875 C 190.949219 -19.667969 191.054688 -18.453125 191.109375 -17.230469 C 191.164062 -16.011719 191.171875 -14.789062 191.128906 -13.5625 C 191.089844 -12.339844 190.996094 -11.121094 190.855469 -9.902344 C 190.71875 -8.6875 190.527344 -7.484375 190.292969 -6.289062 C 190.054688 -5.097656 189.773438 -3.917969 189.441406 -2.757812 C 189.109375 -1.597656 188.734375 -0.457031 188.3125 0.660156 C 187.890625 1.78125 187.421875 2.871094 186.914062 3.933594 C 186.40625 4.996094 185.855469 6.027344 185.265625 7.027344 C 184.671875 8.027344 184.042969 8.988281 183.375 9.914062 C 182.707031 10.835938 182.003906 11.71875 181.265625 12.5625 C 180.527344 13.402344 179.757812 14.199219 178.957031 14.949219 C 178.15625 15.699219 177.328125 16.398438 176.472656 17.050781 C 175.617188 17.703125 174.738281 18.300781 173.835938 18.847656 C 172.929688 19.394531 172.007812 19.886719 171.066406 20.324219 C 170.125 20.761719 169.171875 21.140625 168.199219 21.460938 C 167.230469 21.785156 166.25 22.046875 165.257812 22.253906 C 164.269531 22.457031 163.273438 22.605469 162.269531 22.691406 C 161.269531 22.777344 160.269531 22.800781 159.269531 22.765625 C 158.265625 22.730469 157.269531 22.636719 156.277344 22.484375 C 155.285156 22.328125 154.300781 22.117188 153.328125 21.84375 C 152.351562 21.570312 151.394531 21.242188 150.445312 20.851562 C 149.5 20.464844 148.574219 20.019531 147.664062 19.519531 C 146.753906 19.019531 145.867188 18.464844 145.003906 17.859375 C 144.140625 17.25 143.304688 16.59375 142.496094 15.882812 C 141.6875 15.175781 140.90625 14.417969 140.160156 13.617188 C 139.414062 12.8125 138.699219 11.964844 138.023438 11.074219 C 137.34375 10.1875 136.703125 9.257812 136.101562 8.289062 C 135.496094 7.320312 134.933594 6.316406 134.414062 5.28125 C 133.890625 4.242188 133.414062 3.175781 132.980469 2.082031 C 132.542969 0.984375 132.152344 -0.132812 131.808594 -1.277344 C 131.464844 -2.421875 131.167969 -3.585938 130.917969 -4.765625 C 130.667969 -5.949219 130.464844 -7.144531 130.308594 -8.351562 C 130.15625 -9.558594 130.050781 -10.773438 129.996094 -11.996094 C 129.9375 -13.214844 129.929688 -14.4375 129.972656 -15.664062 C 130.015625 -16.886719 130.105469 -18.109375 130.246094 -19.324219 C 130.386719 -20.539062 130.574219 -21.742188 130.8125 -22.9375 C 131.046875 -24.128906 131.332031 -25.308594 131.664062 -26.46875 C 131.992188 -27.628906 132.371094 -28.769531 132.792969 -29.886719 C 133.214844 -31.007812 133.679688 -32.097656 134.1875 -33.160156 C 134.699219 -34.222656 135.25 -35.253906 135.839844 -36.253906 C 136.429688 -37.253906 137.0625 -38.214844 137.730469 -39.140625 C 138.398438 -40.0625 139.097656 -40.945312 139.835938 -41.789062 C 140.574219 -42.628906 141.34375 -43.425781 142.144531 -44.175781 C 142.945312 -44.925781 143.773438 -45.625 144.628906 -46.277344 C 145.488281 -46.929688 146.367188 -47.527344 147.269531 -48.074219 C 148.171875 -48.621094 149.09375 -49.113281 150.035156 -49.550781 C 150.976562 -49.988281 151.933594 -50.367188 152.902344 -50.6875 C 153.875 -51.011719 154.855469 -51.273438 155.84375 -51.480469 C 156.835938 -51.683594 157.832031 -51.832031 158.832031 -51.917969 C 159.832031 -52.003906 160.835938 -52.027344 161.835938 -51.992188 Z M 161.835938 -51.992188 " fill-opacity="1" fill-rule="nonzero"/></g></g></g><g clip-path="url(#20bbacc02f)"><g clip-path="url(#285edd4550)"><g clip-path="url(#c232ef4b5d)"><path fill="#d69397" d="M 44.300781 131.945312 C -0.882812 135.957031 -29.144531 107.121094 -30.40625 105.800781 C -30.613281 105.558594 -30.796875 105.300781 -30.957031 105.023438 C -31.117188 104.746094 -31.25 104.457031 -31.355469 104.15625 C -31.457031 103.851562 -31.535156 103.542969 -31.578125 103.226562 C -31.625 102.910156 -31.640625 102.59375 -31.625 102.273438 C -31.609375 101.953125 -31.566406 101.640625 -31.492188 101.328125 C -31.417969 101.019531 -31.3125 100.71875 -31.179688 100.425781 C -31.050781 100.136719 -30.890625 99.859375 -30.707031 99.597656 C -30.523438 99.335938 -30.3125 99.09375 -30.082031 98.875 C -29.851562 98.652344 -29.605469 98.453125 -29.335938 98.28125 C -29.066406 98.105469 -28.785156 97.960938 -28.488281 97.839844 C -28.195312 97.71875 -27.890625 97.625 -27.574219 97.5625 C -27.261719 97.5 -26.945312 97.46875 -26.625 97.46875 C -26.304688 97.464844 -25.988281 97.492188 -25.675781 97.550781 C -25.359375 97.609375 -25.054688 97.695312 -24.757812 97.8125 C -24.457031 97.929688 -24.175781 98.074219 -23.902344 98.242188 C -23.632812 98.414062 -23.382812 98.609375 -23.148438 98.828125 C -22.863281 99.144531 7.007812 129.394531 52.617188 120.6875 C 53.246094 120.621094 53.863281 120.667969 54.472656 120.835938 C 55.082031 121 55.636719 121.269531 56.144531 121.644531 C 56.652344 122.019531 57.074219 122.472656 57.410156 123.007812 C 57.746094 123.542969 57.972656 124.117188 58.089844 124.738281 C 58.210938 125.355469 58.210938 125.976562 58.097656 126.597656 C 57.984375 127.214844 57.761719 127.792969 57.429688 128.332031 C 57.097656 128.867188 56.679688 129.324219 56.175781 129.703125 C 55.671875 130.082031 55.113281 130.355469 54.507812 130.523438 C 51.128906 131.171875 47.726562 131.644531 44.300781 131.945312 Z M 44.300781 131.945312 " fill-opacity="1" fill-rule="nonzero"/></g></g></g><g clip-path="url(#cbf8017d9f)"><g clip-path="url(#f22e8e5c8f)"><g clip-path="url(#b8a2489017)"><path fill="#bb5f66" d="M 22.558594 32.460938 C 25.839844 29.035156 29.398438 25.925781 33.230469 23.132812 C 37.066406 20.339844 41.117188 17.90625 45.382812 15.835938 C 49.648438 13.765625 54.066406 12.085938 58.632812 10.800781 C 63.199219 9.515625 67.839844 8.644531 72.5625 8.183594 C 96.199219 6.015625 131.386719 9.695312 155.679688 46.1875 C 194.144531 103.980469 85.007812 127.433594 27.265625 95.292969 C -8.476562 75.410156 6.195312 49.382812 22.558594 32.460938 Z M 22.558594 32.460938 " fill-opacity="1" fill-rule="nonzero"/></g></g></g><g clip-path="url(#f473d51873)"><g clip-path="url(#7768630367)"><g clip-path="url(#51f2772b76)"><path fill="#86383f" d="M 95.546875 45.050781 C 95.542969 53.699219 99.367188 60.722656 104.082031 60.71875 C 108.800781 60.710938 112.652344 53.710938 112.699219 45.058594 C 112.746094 36.40625 108.878906 29.402344 104.160156 29.394531 C 99.445312 29.382812 95.621094 36.398438 95.546875 45.050781 Z M 95.546875 45.050781 " fill-opacity="1" fill-rule="nonzero"/></g></g></g><g clip-path="url(#32c1c33a77)"><g clip-path="url(#6dd764a531)"><g clip-path="url(#8614ca0ad5)"><path fill="#86383f" d="M 57.035156 45.023438 C 57.03125 53.671875 60.855469 60.679688 65.574219 60.691406 C 70.292969 60.699219 74.128906 53.683594 74.191406 45.03125 C 74.25 36.378906 70.367188 29.363281 65.652344 29.367188 C 60.9375 29.371094 57.027344 36.378906 57.035156 45.023438 Z M 57.035156 45.023438 " fill-opacity="1" fill-rule="nonzero"/></g></g></g><g clip-path="url(#deb1fdffe1)"><g clip-path="url(#4bf36fcbc4)"><g clip-path="url(#ac5fe43c02)"><path fill="#d69397" d="M 396.269531 9.621094 C 397.992188 49.949219 389.582031 90.804688 366.535156 128.882812 C 361.832031 136.613281 356.378906 143.765625 350.171875 150.347656 C 343.703125 157.195312 336.679688 163.417969 329.101562 169.011719 C 325.289062 167.371094 321.75 165.273438 318.480469 162.71875 C 315.210938 160.164062 312.320312 157.234375 309.808594 153.929688 L -94.484375 189.820312 C -95.867188 192.675781 -97.535156 195.355469 -99.488281 197.855469 C -104.699219 195.84375 -109.714844 193.773438 -114.523438 191.597656 C -137.914062 181.054688 -156.347656 168.582031 -167.777344 154.304688 C -193.261719 122.605469 -206.628906 95.015625 -211.433594 67.972656 C -220.691406 15.535156 -197.875 -34.988281 -168.636719 -109.953125 C -168.082031 -111.429688 -167.460938 -112.785156 -166.941406 -114.175781 C -163.261719 -123.222656 -159.023438 -132 -154.226562 -140.503906 C -152.050781 -144.34375 -149.773438 -148.121094 -147.390625 -151.832031 C -145.007812 -155.546875 -142.523438 -159.1875 -139.941406 -162.765625 C -137.355469 -166.339844 -134.671875 -169.839844 -131.894531 -173.265625 C -129.113281 -176.691406 -126.242188 -180.039062 -123.277344 -183.304688 C -120.3125 -186.570312 -117.257812 -189.753906 -114.117188 -192.851562 C -110.972656 -195.949219 -107.75 -198.957031 -104.441406 -201.875 C -101.132812 -204.792969 -97.746094 -207.617188 -94.28125 -210.347656 C -90.8125 -213.078125 -87.277344 -215.707031 -83.664062 -218.242188 C -80.050781 -220.777344 -76.375 -223.207031 -72.628906 -225.539062 C -68.882812 -227.867188 -65.074219 -230.089844 -61.203125 -232.210938 C -57.332031 -234.328125 -53.40625 -236.335938 -49.425781 -238.238281 C -45.445312 -240.140625 -41.414062 -241.925781 -37.332031 -243.605469 C -33.253906 -245.28125 -29.128906 -246.84375 -24.960938 -248.292969 C -20.792969 -249.738281 -16.589844 -251.070312 -12.347656 -252.285156 C -8.109375 -253.5 -3.835938 -254.597656 0.464844 -255.574219 C 4.769531 -256.550781 9.09375 -257.410156 13.441406 -258.144531 C 20.074219 -259.304688 26.785156 -260.160156 33.550781 -260.746094 C 75.398438 -264.332031 130.8125 -266.292969 180.015625 -258.839844 C 209.945312 -254.347656 237.589844 -246.296875 258.433594 -233.039062 C 287.140625 -214.789062 317.691406 -183.8125 342.742188 -145.570312 C 372.167969 -100.855469 393.882812 -46.066406 396.269531 9.621094 Z M 396.269531 9.621094 " fill-opacity="1" fill-rule="nonzero"/></g></g></g><g clip-path="url(#b39540c61c)"><g clip-path="url(#9bae815501)"><g clip-path="url(#73605be321)"><path fill="#d69397" d="M 7.191406 -47.382812 C 8.191406 -47.347656 9.191406 -47.253906 10.183594 -47.097656 C 11.175781 -46.945312 12.160156 -46.730469 13.132812 -46.457031 C 14.105469 -46.183594 15.066406 -45.855469 16.011719 -45.464844 C 16.957031 -45.078125 17.886719 -44.632812 18.796875 -44.132812 C 19.703125 -43.632812 20.589844 -43.078125 21.453125 -42.472656 C 22.316406 -41.863281 23.15625 -41.207031 23.964844 -40.496094 C 24.773438 -39.789062 25.550781 -39.03125 26.300781 -38.230469 C 27.046875 -37.425781 27.757812 -36.578125 28.4375 -35.691406 C 29.117188 -34.800781 29.757812 -33.871094 30.359375 -32.902344 C 30.960938 -31.933594 31.523438 -30.933594 32.046875 -29.894531 C 32.566406 -28.859375 33.046875 -27.792969 33.480469 -26.695312 C 33.914062 -25.597656 34.304688 -24.480469 34.648438 -23.335938 C 34.996094 -22.191406 35.292969 -21.027344 35.542969 -19.847656 C 35.792969 -18.664062 35.996094 -17.46875 36.148438 -16.261719 C 36.304688 -15.054688 36.410156 -13.839844 36.464844 -12.621094 C 36.519531 -11.398438 36.527344 -10.175781 36.488281 -8.949219 C 36.445312 -7.726562 36.351562 -6.507812 36.214844 -5.292969 C 36.074219 -4.078125 35.886719 -2.871094 35.648438 -1.679688 C 35.410156 -0.484375 35.128906 0.695312 34.796875 1.855469 C 34.464844 3.015625 34.089844 4.15625 33.667969 5.273438 C 33.246094 6.390625 32.78125 7.484375 32.269531 8.546875 C 31.761719 9.609375 31.210938 10.640625 30.621094 11.640625 C 30.027344 12.636719 29.398438 13.601562 28.730469 14.523438 C 28.0625 15.449219 27.359375 16.332031 26.621094 17.171875 C 25.882812 18.015625 25.113281 18.8125 24.3125 19.5625 C 23.511719 20.3125 22.683594 21.011719 21.828125 21.664062 C 20.972656 22.316406 20.09375 22.914062 19.191406 23.460938 C 18.289062 24.007812 17.363281 24.5 16.421875 24.9375 C 15.480469 25.371094 14.527344 25.753906 13.554688 26.074219 C 12.585938 26.398438 11.605469 26.660156 10.613281 26.867188 C 9.625 27.070312 8.628906 27.214844 7.628906 27.300781 C 6.625 27.386719 5.625 27.414062 4.625 27.378906 C 3.621094 27.34375 2.625 27.25 1.632812 27.097656 C 0.640625 26.941406 -0.34375 26.730469 -1.316406 26.457031 C -2.289062 26.183594 -3.25 25.851562 -4.199219 25.464844 C -5.144531 25.078125 -6.070312 24.632812 -6.980469 24.132812 C -7.890625 23.632812 -8.777344 23.078125 -9.640625 22.46875 C -10.503906 21.863281 -11.339844 21.203125 -12.148438 20.496094 C -12.957031 19.789062 -13.734375 19.03125 -14.484375 18.226562 C -15.230469 17.425781 -15.945312 16.578125 -16.621094 15.6875 C -17.300781 14.796875 -17.941406 13.871094 -18.542969 12.902344 C -19.148438 11.933594 -19.710938 10.929688 -20.230469 9.894531 C -20.753906 8.855469 -21.230469 7.789062 -21.664062 6.695312 C -22.101562 5.597656 -22.488281 4.476562 -22.835938 3.332031 C -23.179688 2.191406 -23.476562 1.027344 -23.726562 -0.15625 C -23.976562 -1.335938 -24.179688 -2.53125 -24.332031 -3.738281 C -24.488281 -4.945312 -24.59375 -6.160156 -24.648438 -7.382812 C -24.707031 -8.605469 -24.710938 -9.828125 -24.671875 -11.050781 C -24.628906 -12.273438 -24.539062 -13.496094 -24.398438 -14.710938 C -24.257812 -15.925781 -24.070312 -17.128906 -23.832031 -18.324219 C -23.597656 -19.515625 -23.3125 -20.695312 -22.980469 -21.855469 C -22.652344 -23.019531 -22.273438 -24.15625 -21.851562 -25.277344 C -21.429688 -26.394531 -20.964844 -27.484375 -20.453125 -28.546875 C -19.945312 -29.613281 -19.394531 -30.640625 -18.804688 -31.640625 C -18.210938 -32.640625 -17.582031 -33.601562 -16.914062 -34.527344 C -16.246094 -35.449219 -15.542969 -36.332031 -14.808594 -37.175781 C -14.070312 -38.015625 -13.300781 -38.8125 -12.5 -39.5625 C -11.699219 -40.3125 -10.871094 -41.011719 -10.011719 -41.664062 C -9.15625 -42.316406 -8.277344 -42.914062 -7.375 -43.460938 C -6.472656 -44.007812 -5.550781 -44.5 -4.609375 -44.9375 C -3.667969 -45.375 -2.710938 -45.753906 -1.738281 -46.078125 C -0.769531 -46.398438 0.210938 -46.664062 1.203125 -46.867188 C 2.191406 -47.074219 3.1875 -47.21875 4.1875 -47.304688 C 5.1875 -47.390625 6.191406 -47.414062 7.191406 -47.382812 Z M 7.191406 -47.382812 " fill-opacity="1" fill-rule="nonzero"/></g></g></g><g clip-path="url(#d2b401742b)"><g clip-path="url(#f9593db57f)"><g clip-path="url(#32742c37fc)"><path fill="#d69397" d="M 161.835938 -51.992188 C 162.835938 -51.960938 163.835938 -51.863281 164.828125 -51.710938 C 165.820312 -51.554688 166.800781 -51.34375 167.777344 -51.070312 C 168.75 -50.796875 169.710938 -50.46875 170.65625 -50.078125 C 171.601562 -49.691406 172.53125 -49.246094 173.441406 -48.746094 C 174.347656 -48.246094 175.234375 -47.691406 176.097656 -47.085938 C 176.960938 -46.476562 177.796875 -45.820312 178.609375 -45.109375 C 179.417969 -44.402344 180.195312 -43.644531 180.941406 -42.84375 C 181.691406 -42.039062 182.402344 -41.191406 183.082031 -40.300781 C 183.761719 -39.414062 184.402344 -38.484375 185.003906 -37.515625 C 185.605469 -36.546875 186.167969 -35.542969 186.691406 -34.507812 C 187.210938 -33.46875 187.691406 -32.402344 188.125 -31.308594 C 188.558594 -30.210938 188.949219 -29.09375 189.292969 -27.949219 C 189.636719 -26.804688 189.9375 -25.640625 190.1875 -24.460938 C 190.4375 -23.277344 190.640625 -22.082031 190.792969 -20.875 C 190.949219 -19.667969 191.054688 -18.453125 191.109375 -17.230469 C 191.164062 -16.011719 191.171875 -14.789062 191.128906 -13.5625 C 191.089844 -12.339844 190.996094 -11.121094 190.855469 -9.902344 C 190.71875 -8.6875 190.527344 -7.484375 190.292969 -6.289062 C 190.054688 -5.097656 189.773438 -3.917969 189.441406 -2.757812 C 189.109375 -1.597656 188.734375 -0.457031 188.3125 0.660156 C 187.890625 1.78125 187.421875 2.871094 186.914062 3.933594 C 186.40625 4.996094 185.855469 6.027344 185.265625 7.027344 C 184.671875 8.027344 184.042969 8.988281 183.375 9.914062 C 182.707031 10.835938 182.003906 11.71875 181.265625 12.5625 C 180.527344 13.402344 179.757812 14.199219 178.957031 14.949219 C 178.15625 15.699219 177.328125 16.398438 176.472656 17.050781 C 175.617188 17.703125 174.738281 18.300781 173.835938 18.847656 C 172.929688 19.394531 172.007812 19.886719 171.066406 20.324219 C 170.125 20.761719 169.171875 21.140625 168.199219 21.460938 C 167.230469 21.785156 166.25 22.046875 165.257812 22.253906 C 164.269531 22.457031 163.273438 22.605469 162.269531 22.691406 C 161.269531 22.777344 160.269531 22.800781 159.269531 22.765625 C 158.265625 22.730469 157.269531 22.636719 156.277344 22.484375 C 155.285156 22.328125 154.300781 22.117188 153.328125 21.84375 C 152.351562 21.570312 151.394531 21.242188 150.445312 20.851562 C 149.5 20.464844 148.574219 20.019531 147.664062 19.519531 C 146.753906 19.019531 145.867188 18.464844 145.003906 17.859375 C 144.140625 17.25 143.304688 16.59375 142.496094 15.882812 C 141.6875 15.175781 140.90625 14.417969 140.160156 13.617188 C 139.414062 12.8125 138.699219 11.964844 138.023438 11.074219 C 137.34375 10.1875 136.703125 9.257812 136.101562 8.289062 C 135.496094 7.320312 134.933594 6.316406 134.414062 5.28125 C 133.890625 4.242188 133.414062 3.175781 132.980469 2.082031 C 132.542969 0.984375 132.152344 -0.132812 131.808594 -1.277344 C 131.464844 -2.421875 131.167969 -3.585938 130.917969 -4.765625 C 130.667969 -5.949219 130.464844 -7.144531 130.308594 -8.351562 C 130.15625 -9.558594 130.050781 -10.773438 129.996094 -11.996094 C 129.9375 -13.214844 129.929688 -14.4375 129.972656 -15.664062 C 130.015625 -16.886719 130.105469 -18.109375 130.246094 -19.324219 C 130.386719 -20.539062 130.574219 -21.742188 130.8125 -22.9375 C 131.046875 -24.128906 131.332031 -25.308594 131.664062 -26.46875 C 131.992188 -27.628906 132.371094 -28.769531 132.792969 -29.886719 C 133.214844 -31.007812 133.679688 -32.097656 134.1875 -33.160156 C 134.699219 -34.222656 135.25 -35.253906 135.839844 -36.253906 C 136.429688 -37.253906 137.0625 -38.214844 137.730469 -39.140625 C 138.398438 -40.0625 139.097656 -40.945312 139.835938 -41.789062 C 140.574219 -42.628906 141.34375 -43.425781 142.144531 -44.175781 C 142.945312 -44.925781 143.773438 -45.625 144.628906 -46.277344 C 145.488281 -46.929688 146.367188 -47.527344 147.269531 -48.074219 C 148.171875 -48.621094 149.09375 -49.113281 150.035156 -49.550781 C 150.976562 -49.988281 151.933594 -50.367188 152.902344 -50.6875 C 153.875 -51.011719 154.855469 -51.273438 155.84375 -51.480469 C 156.835938 -51.683594 157.832031 -51.832031 158.832031 -51.917969 C 159.832031 -52.003906 160.835938 -52.027344 161.835938 -51.992188 Z M 161.835938 -51.992188 " fill-opacity="1" fill-rule="nonzero"/></g></g></g><g clip-path="url(#71085e6e29)"><g clip-path="url(#4c693493d4)"><g clip-path="url(#ff8871e4dc)"><path fill="#d69397" d="M 44.300781 131.945312 C -0.882812 135.957031 -29.144531 107.121094 -30.40625 105.800781 C -30.613281 105.558594 -30.796875 105.300781 -30.957031 105.023438 C -31.117188 104.746094 -31.25 104.457031 -31.355469 104.15625 C -31.457031 103.851562 -31.535156 103.542969 -31.578125 103.226562 C -31.625 102.910156 -31.640625 102.59375 -31.625 102.273438 C -31.609375 101.953125 -31.566406 101.640625 -31.492188 101.328125 C -31.417969 101.019531 -31.3125 100.71875 -31.179688 100.425781 C -31.050781 100.136719 -30.890625 99.859375 -30.707031 99.597656 C -30.523438 99.335938 -30.3125 99.09375 -30.082031 98.875 C -29.851562 98.652344 -29.605469 98.453125 -29.335938 98.28125 C -29.066406 98.105469 -28.785156 97.960938 -28.488281 97.839844 C -28.195312 97.71875 -27.890625 97.625 -27.574219 97.5625 C -27.261719 97.5 -26.945312 97.46875 -26.625 97.46875 C -26.304688 97.464844 -25.988281 97.492188 -25.675781 97.550781 C -25.359375 97.609375 -25.054688 97.695312 -24.757812 97.8125 C -24.457031 97.929688 -24.175781 98.074219 -23.902344 98.242188 C -23.632812 98.414062 -23.382812 98.609375 -23.148438 98.828125 C -22.863281 99.144531 7.007812 129.394531 52.617188 120.6875 C 53.246094 120.621094 53.863281 120.667969 54.472656 120.835938 C 55.082031 121 55.636719 121.269531 56.144531 121.644531 C 56.652344 122.019531 57.074219 122.472656 57.410156 123.007812 C 57.746094 123.542969 57.972656 124.117188 58.089844 124.738281 C 58.210938 125.355469 58.210938 125.976562 58.097656 126.597656 C 57.984375 127.214844 57.761719 127.792969 57.429688 128.332031 C 57.097656 128.867188 56.679688 129.324219 56.175781 129.703125 C 55.671875 130.082031 55.113281 130.355469 54.507812 130.523438 C 51.128906 131.171875 47.726562 131.644531 44.300781 131.945312 Z M 44.300781 131.945312 " fill-opacity="1" fill-rule="nonzero"/></g></g></g><g clip-path="url(#87e29290fa)"><g clip-path="url(#881de837ef)"><g clip-path="url(#d10736e96e)"><path fill="#bb5f66" d="M 22.558594 32.460938 C 25.839844 29.035156 29.398438 25.925781 33.230469 23.132812 C 37.066406 20.339844 41.117188 17.90625 45.382812 15.835938 C 49.648438 13.765625 54.066406 12.085938 58.632812 10.800781 C 63.199219 9.515625 67.839844 8.644531 72.5625 8.183594 C 96.199219 6.015625 131.386719 9.695312 155.679688 46.1875 C 194.144531 103.980469 85.007812 127.433594 27.265625 95.292969 C -8.476562 75.410156 6.195312 49.382812 22.558594 32.460938 Z M 22.558594 32.460938 " fill-opacity="1" fill-rule="nonzero"/></g></g></g><g clip-path="url(#7d58ac0bd9)"><g clip-path="url(#26b95e2364)"><g clip-path="url(#00567703a1)"><path fill="#86383f" d="M 95.546875 45.050781 C 95.542969 53.699219 99.367188 60.722656 104.082031 60.71875 C 108.800781 60.710938 112.652344 53.710938 112.699219 45.058594 C 112.746094 36.40625 108.878906 29.402344 104.160156 29.394531 C 99.445312 29.382812 95.621094 36.398438 95.546875 45.050781 Z M 95.546875 45.050781 " fill-opacity="1" fill-rule="nonzero"/></g></g></g><g clip-path="url(#1466ea6ca3)"><g clip-path="url(#ed2545e6c7)"><g clip-path="url(#032c2d49ba)"><path fill="#86383f" d="M 57.035156 45.023438 C 57.03125 53.671875 60.855469 60.679688 65.574219 60.691406 C 70.292969 60.699219 74.128906 53.683594 74.191406 45.03125 C 74.25 36.378906 70.367188 29.363281 65.652344 29.367188 C 60.9375 29.371094 57.027344 36.378906 57.035156 45.023438 Z M 57.035156 45.023438 " fill-opacity="1" fill-rule="nonzero"/></g></g></g></svg>