<svg xmlns="http://www.w3.org/2000/svg" xmlns:xlink="http://www.w3.org/1999/xlink" width="367" zoomAndPan="magnify" viewBox="0 0 275.25 263.99999" height="352" preserveAspectRatio="xMidYMid meet" version="1.0"><defs><clipPath id="ee51c5677a"><path d="M 0 180 L 174 180 L 174 263.640625 L 0 263.640625 Z M 0 180 " clip-rule="nonzero"/></clipPath><clipPath id="4c0e1f1297"><path d="M 5 5 L 74 5 L 74 54 L 5 54 Z M 5 5 " clip-rule="nonzero"/></clipPath><clipPath id="14c7f3cd6e"><path d="M 0 30.765625 L 65.425781 0.335938 L 78.496094 28.4375 L 13.070312 58.867188 Z M 0 30.765625 " clip-rule="nonzero"/></clipPath><clipPath id="30211cadb8"><path d="M 51.328125 6.890625 C 59.085938 3.28125 68.304688 6.648438 71.914062 14.410156 C 75.523438 22.167969 72.160156 31.386719 64.398438 34.996094 L 27.121094 52.332031 C 19.363281 55.941406 10.144531 52.578125 6.535156 44.816406 C 2.925781 37.054688 6.289062 27.839844 14.050781 24.230469 Z M 51.328125 6.890625 " clip-rule="nonzero"/></clipPath><clipPath id="9070012163"><path d="M 200 5 L 269 5 L 269 55 L 200 55 Z M 200 5 " clip-rule="nonzero"/></clipPath><clipPath id="90d65002d5"><path d="M 208.839844 0.390625 L 274.027344 31.332031 L 260.738281 59.332031 L 195.550781 28.390625 Z M 208.839844 0.390625 " clip-rule="nonzero"/></clipPath><clipPath id="30e90d677c"><path d="M 259.980469 24.664062 C 267.710938 28.335938 271.003906 37.578125 267.332031 45.3125 C 263.664062 53.042969 254.421875 56.335938 246.6875 52.664062 L 209.550781 35.035156 C 201.816406 31.367188 198.523438 22.121094 202.195312 14.390625 C 205.867188 6.660156 215.109375 3.367188 222.839844 7.035156 Z M 259.980469 24.664062 " clip-rule="nonzero"/></clipPath></defs><g clip-path="url(#ee51c5677a)"><path stroke-linecap="round" transform="matrix(-0.716833, -0.213535, 0.213535, -0.716833, 126.659887, 263.339533)" fill="none" stroke-linejoin="miter" d="M 8.172267 7.989699 C 45.62262 25.121146 83.077227 25.107783 120.529592 7.946094 " stroke="#232126" stroke-width="12" stroke-opacity="1" stroke-miterlimit="4"/></g><g clip-path="url(#4c0e1f1297)"><g clip-path="url(#14c7f3cd6e)"><g clip-path="url(#30211cadb8)"><path fill="#232126" d="M 0 30.765625 L 65.425781 0.335938 L 78.496094 28.4375 L 13.070312 58.867188 Z M 0 30.765625 " fill-opacity="1" fill-rule="nonzero"/></g></g></g><g clip-path="url(#9070012163)"><g clip-path="url(#90d65002d5)"><g clip-path="url(#30e90d677c)"><path fill="#232126" d="M 208.839844 0.390625 L 274.027344 31.332031 L 260.738281 59.332031 L 195.550781 28.390625 Z M 208.839844 0.390625 " fill-opacity="1" fill-rule="nonzero"/></g></g></g></svg>