<svg xmlns="http://www.w3.org/2000/svg" xmlns:xlink="http://www.w3.org/1999/xlink" width="800" zoomAndPan="magnify" viewBox="0 0 600 620.249985" height="827" preserveAspectRatio="xMidYMid meet" version="1.0"><defs><clipPath id="6760ea5e0d"><path d="M 0.363281 293 L 163 293 L 163 426 L 0.363281 426 Z M 0.363281 293 " clip-rule="nonzero"/></clipPath><clipPath id="7bb57e7bd7"><path d="M 0.363281 265.5625 L 162.167969 265.140625 L 162.582031 424.699219 L 0.777344 425.117188 Z M 0.363281 265.5625 " clip-rule="nonzero"/></clipPath><clipPath id="313a799960"><path d="M -86.210938 256.738281 L 477.855469 255.269531 L 478.960938 680.003906 L -85.105469 681.472656 Z M -86.210938 256.738281 " clip-rule="nonzero"/></clipPath><clipPath id="3e880eb4c7"><path d="M 107 377 L 157 377 L 157 407 L 107 407 Z M 107 377 " clip-rule="nonzero"/></clipPath><clipPath id="3e1e23545c"><path d="M 0.363281 265.5625 L 162.167969 265.140625 L 162.582031 424.699219 L 0.777344 425.117188 Z M 0.363281 265.5625 " clip-rule="nonzero"/></clipPath><clipPath id="60257bf450"><path d="M -86.210938 256.738281 L 477.855469 255.269531 L 478.960938 680.003906 L -85.105469 681.472656 Z M -86.210938 256.738281 " clip-rule="nonzero"/></clipPath><clipPath id="7947d09a79"><path d="M 7 272 L 150 272 L 150 417 L 7 417 Z M 7 272 " clip-rule="nonzero"/></clipPath><clipPath id="f6f990c03a"><path d="M 0.363281 265.5625 L 162.167969 265.140625 L 162.582031 424.699219 L 0.777344 425.117188 Z M 0.363281 265.5625 " clip-rule="nonzero"/></clipPath><clipPath id="6760526a49"><path d="M -86.210938 256.738281 L 477.855469 255.269531 L 478.960938 680.003906 L -85.105469 681.472656 Z M -86.210938 256.738281 " clip-rule="nonzero"/></clipPath><clipPath id="20160679ef"><path d="M 437 293 L 599.636719 293 L 599.636719 426 L 437 426 Z M 437 293 " clip-rule="nonzero"/></clipPath><clipPath id="17708721d7"><path d="M 437.535156 265.5625 L 599.335938 265.140625 L 599.753906 424.699219 L 437.949219 425.117188 Z M 437.535156 265.5625 " clip-rule="nonzero"/></clipPath><clipPath id="5d391d968b"><path d="M 685.582031 255.867188 L 121.515625 257.332031 L 122.621094 682.070312 L 686.6875 680.601562 Z M 685.582031 255.867188 " clip-rule="nonzero"/></clipPath><clipPath id="eee6478b8d"><path d="M 443 377 L 493 377 L 493 407 L 443 407 Z M 443 377 " clip-rule="nonzero"/></clipPath><clipPath id="67b3f84c09"><path d="M 437.535156 265.5625 L 599.335938 265.140625 L 599.753906 424.699219 L 437.949219 425.117188 Z M 437.535156 265.5625 " clip-rule="nonzero"/></clipPath><clipPath id="374ee773be"><path d="M 685.582031 255.867188 L 121.515625 257.332031 L 122.621094 682.070312 L 686.6875 680.601562 Z M 685.582031 255.867188 " clip-rule="nonzero"/></clipPath><clipPath id="0aa45416a7"><path d="M 449 272 L 593 272 L 593 417 L 449 417 Z M 449 272 " clip-rule="nonzero"/></clipPath><clipPath id="ccbb287ccd"><path d="M 437.535156 265.5625 L 599.335938 265.140625 L 599.753906 424.699219 L 437.949219 425.117188 Z M 437.535156 265.5625 " clip-rule="nonzero"/></clipPath><clipPath id="1771703805"><path d="M 685.582031 255.867188 L 121.515625 257.332031 L 122.621094 682.070312 L 686.6875 680.601562 Z M 685.582031 255.867188 " clip-rule="nonzero"/></clipPath><clipPath id="c0a37bafe3"><path d="M 417.789062 499.582031 L 504.675781 499.582031 L 504.675781 562.59375 L 417.789062 562.59375 Z M 417.789062 499.582031 " clip-rule="nonzero"/></clipPath><clipPath id="1b79a7673d"><path d="M 461.136719 499.582031 C 437.195312 499.582031 417.789062 513.6875 417.789062 531.089844 C 417.789062 548.488281 437.195312 562.59375 461.136719 562.59375 C 485.078125 562.59375 504.488281 548.488281 504.488281 531.089844 C 504.488281 513.6875 485.078125 499.582031 461.136719 499.582031 Z M 461.136719 499.582031 " clip-rule="nonzero"/></clipPath><clipPath id="b21b10e312"><path d="M 95.351562 499.582031 L 182 499.582031 L 182 562.59375 L 95.351562 562.59375 Z M 95.351562 499.582031 " clip-rule="nonzero"/></clipPath><clipPath id="cb2474cbc8"><path d="M 138.699219 499.582031 C 114.757812 499.582031 95.351562 513.6875 95.351562 531.089844 C 95.351562 548.488281 114.757812 562.59375 138.699219 562.59375 C 162.640625 562.59375 182.050781 548.488281 182.050781 531.089844 C 182.050781 513.6875 162.640625 499.582031 138.699219 499.582031 Z M 138.699219 499.582031 " clip-rule="nonzero"/></clipPath><clipPath id="c1ed6ed4bd"><path d="M 216 469 L 384 469 L 384 588 L 216 588 Z M 216 469 " clip-rule="nonzero"/></clipPath><clipPath id="a99304a0b4"><path d="M 216.171875 483.496094 L 374.359375 469.453125 L 383.566406 573.167969 L 225.378906 587.210938 Z M 216.171875 483.496094 " clip-rule="nonzero"/></clipPath><clipPath id="3d65a9162a"><path d="M -72.277344 188.980469 L 639.558594 125.789062 L 687.117188 661.53125 L -24.71875 724.722656 Z M -72.277344 188.980469 " clip-rule="nonzero"/></clipPath><clipPath id="f9bd8c083a"><path d="M 216 469 L 253 469 L 253 497 L 216 497 Z M 216 469 " clip-rule="nonzero"/></clipPath><clipPath id="ecc5dcb548"><path d="M 216.171875 483.496094 L 374.359375 469.453125 L 383.566406 573.167969 L 225.378906 587.210938 Z M 216.171875 483.496094 " clip-rule="nonzero"/></clipPath><clipPath id="c47470d46c"><path d="M -72.277344 188.980469 L 639.558594 125.789062 L 687.117188 661.53125 L -24.71875 724.722656 Z M -72.277344 188.980469 " clip-rule="nonzero"/></clipPath><clipPath id="9c25abbb15"><path d="M 346 469 L 384 469 L 384 493 L 346 493 Z M 346 469 " clip-rule="nonzero"/></clipPath><clipPath id="f1d7f96cf3"><path d="M 216.171875 483.496094 L 374.359375 469.453125 L 383.566406 573.167969 L 225.378906 587.210938 Z M 216.171875 483.496094 " clip-rule="nonzero"/></clipPath><clipPath id="0b85d01487"><path d="M -72.277344 188.980469 L 639.558594 125.789062 L 687.117188 661.53125 L -24.71875 724.722656 Z M -72.277344 188.980469 " clip-rule="nonzero"/></clipPath><clipPath id="480cca0b31"><path d="M 216 567 L 275 567 L 275 588 L 216 588 Z M 216 567 " clip-rule="nonzero"/></clipPath><clipPath id="313660dcc7"><path d="M 216.171875 483.496094 L 374.359375 469.453125 L 383.566406 573.167969 L 225.378906 587.210938 Z M 216.171875 483.496094 " clip-rule="nonzero"/></clipPath><clipPath id="a163d39eb0"><path d="M -72.277344 188.980469 L 639.558594 125.789062 L 687.117188 661.53125 L -24.71875 724.722656 Z M -72.277344 188.980469 " clip-rule="nonzero"/></clipPath><clipPath id="9415a6d09c"><path d="M 221 477 L 381 477 L 381 580 L 221 580 Z M 221 477 " clip-rule="nonzero"/></clipPath><clipPath id="5c96b65e29"><path d="M 216.171875 483.496094 L 374.359375 469.453125 L 383.566406 573.167969 L 225.378906 587.210938 Z M 216.171875 483.496094 " clip-rule="nonzero"/></clipPath><clipPath id="3ef0b862b1"><path d="M -72.277344 188.980469 L 639.558594 125.789062 L 687.117188 661.53125 L -24.71875 724.722656 Z M -72.277344 188.980469 " clip-rule="nonzero"/></clipPath><clipPath id="596ff814c4"><path d="M 311 498 L 329 498 L 329 531 L 311 531 Z M 311 498 " clip-rule="nonzero"/></clipPath><clipPath id="68c42986b4"><path d="M 216.171875 483.496094 L 374.359375 469.453125 L 383.566406 573.167969 L 225.378906 587.210938 Z M 216.171875 483.496094 " clip-rule="nonzero"/></clipPath><clipPath id="a573342a53"><path d="M -72.277344 188.980469 L 639.558594 125.789062 L 687.117188 661.53125 L -24.71875 724.722656 Z M -72.277344 188.980469 " clip-rule="nonzero"/></clipPath><clipPath id="2084be48aa"><path d="M 273 498 L 291 498 L 291 531 L 273 531 Z M 273 498 " clip-rule="nonzero"/></clipPath><clipPath id="e9e15b75b4"><path d="M 216.171875 483.496094 L 374.359375 469.453125 L 383.566406 573.167969 L 225.378906 587.210938 Z M 216.171875 483.496094 " clip-rule="nonzero"/></clipPath><clipPath id="7d830c8e65"><path d="M -72.277344 188.980469 L 639.558594 125.789062 L 687.117188 661.53125 L -24.71875 724.722656 Z M -72.277344 188.980469 " clip-rule="nonzero"/></clipPath><clipPath id="86c30be226"><path d="M 356.144531 425.066406 L 417.789062 425.066406 L 417.789062 499.714844 L 356.144531 499.714844 Z M 356.144531 425.066406 " clip-rule="nonzero"/></clipPath><clipPath id="6ed385cfb6"><path d="M 386.96875 425.066406 C 369.945312 425.066406 356.144531 441.75 356.144531 462.324219 C 356.144531 482.902344 369.945312 499.582031 386.96875 499.582031 C 403.988281 499.582031 417.789062 482.902344 417.789062 462.324219 C 417.789062 441.75 403.988281 425.066406 386.96875 425.066406 Z M 386.96875 425.066406 " clip-rule="nonzero"/></clipPath><clipPath id="cf956068a4"><path d="M 182.050781 425.066406 L 243.691406 425.066406 L 243.691406 499.714844 L 182.050781 499.714844 Z M 182.050781 425.066406 " clip-rule="nonzero"/></clipPath><clipPath id="149af3394e"><path d="M 212.871094 425.066406 C 195.847656 425.066406 182.050781 441.75 182.050781 462.324219 C 182.050781 482.902344 195.847656 499.582031 212.871094 499.582031 C 229.894531 499.582031 243.691406 482.902344 243.691406 462.324219 C 243.691406 441.75 229.894531 425.066406 212.871094 425.066406 Z M 212.871094 425.066406 " clip-rule="nonzero"/></clipPath><clipPath id="981f433241"><path d="M 153 529 L 337 529 L 337 619.5 L 153 619.5 Z M 153 529 " clip-rule="nonzero"/></clipPath><clipPath id="ff80c78b7e"><path d="M 166 367 L 238 367 L 238 406 L 166 406 Z M 166 367 " clip-rule="nonzero"/></clipPath><clipPath id="318064a519"><path d="M 163.691406 377.605469 L 234.828125 364.871094 L 240.296875 395.425781 L 169.160156 408.160156 Z M 163.691406 377.605469 " clip-rule="nonzero"/></clipPath><clipPath id="6fdb1aa0f1"><path d="M 219.5 367.617188 C 227.9375 366.105469 236 371.722656 237.511719 380.160156 C 239.023438 388.597656 233.40625 396.660156 224.96875 398.171875 L 184.4375 405.425781 C 176 406.9375 167.9375 401.320312 166.425781 392.882812 C 164.917969 384.445312 170.53125 376.378906 178.96875 374.871094 Z M 219.5 367.617188 " clip-rule="nonzero"/></clipPath><clipPath id="f77b701210"><path d="M 362 367 L 434 367 L 434 407 L 362 407 Z M 362 367 " clip-rule="nonzero"/></clipPath><clipPath id="1037988e0f"><path d="M 365.152344 364.882812 L 436.195312 378.125 L 430.507812 408.640625 L 359.464844 395.398438 Z M 365.152344 364.882812 " clip-rule="nonzero"/></clipPath><clipPath id="532fc424ec"><path d="M 420.886719 375.273438 C 429.3125 376.84375 434.871094 384.949219 433.300781 393.375 C 431.730469 401.800781 423.625 407.359375 415.199219 405.789062 L 374.722656 398.242188 C 366.296875 396.671875 360.738281 388.566406 362.308594 380.140625 C 363.878906 371.714844 371.984375 366.15625 380.410156 367.726562 Z M 420.886719 375.273438 " clip-rule="nonzero"/></clipPath><clipPath id="f02682b3f4"><path d="M 0.363281 0 L 592.148438 0 L 592.148438 354.320312 L 0.363281 354.320312 Z M 0.363281 0 " clip-rule="nonzero"/></clipPath><clipPath id="a9603c957c"><path d="M 0.363281 216 L 592.148438 216 L 592.148438 354.320312 L 0.363281 354.320312 Z M 0.363281 216 " clip-rule="nonzero"/></clipPath><clipPath id="870ececb2d"><path d="M 0.363281 216 L 550 216 L 550 354.320312 L 0.363281 354.320312 Z M 0.363281 216 " clip-rule="nonzero"/></clipPath></defs><g clip-path="url(#6760ea5e0d)"><g clip-path="url(#7bb57e7bd7)"><g clip-path="url(#313a799960)"><path fill="#d69397" d="M 433.503906 531.460938 C 432.121094 563.398438 422.707031 595.066406 401.929688 623.550781 C 397.695312 629.332031 392.90625 634.605469 387.558594 639.375 C 381.988281 644.339844 376.023438 648.773438 369.664062 652.675781 C 366.765625 651.121094 364.117188 649.226562 361.710938 646.984375 C 359.304688 644.746094 357.222656 642.238281 355.464844 639.460938 L 33.980469 640.296875 C 32.695312 642.457031 31.199219 644.457031 29.484375 646.296875 C 25.511719 644.355469 21.691406 642.378906 18.046875 640.335938 C 0.304688 630.425781 -13.394531 619.332031 -21.441406 607.285156 C -39.398438 580.539062 -48.074219 557.859375 -50.023438 536.191406 C -53.765625 494.183594 -32.324219 455.863281 -4.15625 398.695312 C -3.617188 397.566406 -3.035156 396.535156 -2.527344 395.476562 C 0.988281 388.585938 4.929688 381.949219 9.292969 375.5625 C 11.269531 372.679688 13.324219 369.855469 15.457031 367.089844 C 17.589844 364.320312 19.796875 361.613281 22.082031 358.96875 C 24.363281 356.324219 26.71875 353.742188 29.144531 351.230469 C 31.570312 348.714844 34.066406 346.269531 36.628906 343.890625 C 39.1875 341.515625 41.816406 339.210938 44.503906 336.980469 C 47.195312 334.75 49.945312 332.597656 52.753906 330.519531 C 55.5625 328.441406 58.429688 326.441406 61.347656 324.523438 C 64.269531 322.605469 67.238281 320.769531 70.261719 319.015625 C 73.285156 317.261719 76.351562 315.589844 79.46875 314.007812 C 82.582031 312.425781 85.738281 310.929688 88.9375 309.519531 C 92.132812 308.109375 95.367188 306.792969 98.640625 305.5625 C 101.910156 304.332031 105.214844 303.195312 108.546875 302.152344 C 111.882812 301.105469 115.242188 300.152344 118.628906 299.292969 C 122.015625 298.433594 125.425781 297.667969 128.855469 297 C 132.28125 296.328125 135.730469 295.753906 139.191406 295.273438 C 142.652344 294.796875 146.125 294.414062 149.605469 294.128906 C 154.917969 293.664062 160.273438 293.445312 165.652344 293.441406 C 198.917969 293.457031 242.78125 295.679688 281.101562 304.90625 C 304.414062 310.480469 325.683594 318.714844 341.230469 330.59375 C 362.644531 346.949219 384.644531 373.46875 401.8125 405.351562 C 421.996094 442.636719 435.40625 487.351562 433.503906 531.460938 Z M 433.503906 531.460938 " fill-opacity="1" fill-rule="nonzero"/></g></g></g><g clip-path="url(#3e880eb4c7)"><g clip-path="url(#3e1e23545c)"><g clip-path="url(#60257bf450)"><path fill="#d69397" d="M 156.683594 388.53125 C 156.800781 389.363281 156.835938 390.199219 156.789062 391.039062 C 156.742188 391.875 156.613281 392.703125 156.402344 393.515625 C 156.195312 394.328125 155.90625 395.113281 155.542969 395.871094 C 155.175781 396.625 154.742188 397.339844 154.234375 398.011719 C 153.730469 398.679688 153.164062 399.296875 152.535156 399.855469 C 151.910156 400.414062 151.234375 400.90625 150.507812 401.332031 C 149.785156 401.757812 149.027344 402.109375 148.234375 402.382812 C 147.441406 402.660156 146.628906 402.855469 145.796875 402.972656 L 122.460938 406.246094 C 121.628906 406.363281 120.792969 406.398438 119.957031 406.347656 C 119.117188 406.300781 118.292969 406.171875 117.480469 405.960938 C 116.667969 405.75 115.882812 405.460938 115.125 405.09375 C 114.371094 404.730469 113.65625 404.292969 112.988281 403.789062 C 112.316406 403.285156 111.703125 402.71875 111.144531 402.089844 C 110.585938 401.464844 110.09375 400.789062 109.664062 400.066406 C 109.238281 399.34375 108.886719 398.585938 108.609375 397.792969 C 108.335938 397 108.136719 396.1875 108.019531 395.355469 C 107.902344 394.527344 107.867188 393.691406 107.917969 392.851562 C 107.964844 392.011719 108.09375 391.1875 108.304688 390.375 C 108.515625 389.5625 108.800781 388.777344 109.167969 388.019531 C 109.53125 387.265625 109.96875 386.550781 110.472656 385.882812 C 110.980469 385.210938 111.546875 384.597656 112.171875 384.039062 C 112.800781 383.476562 113.472656 382.984375 114.199219 382.558594 C 114.921875 382.132812 115.679688 381.78125 116.472656 381.507812 C 117.265625 381.230469 118.078125 381.03125 118.910156 380.917969 L 130.25 379.320312 L 142.246094 377.597656 C 143.078125 377.480469 143.914062 377.445312 144.753906 377.492188 C 145.59375 377.542969 146.421875 377.671875 147.238281 377.882812 C 148.050781 378.09375 148.835938 378.382812 149.59375 378.75 C 150.351562 379.117188 151.066406 379.554688 151.738281 380.0625 C 152.410156 380.570312 153.023438 381.140625 153.582031 381.769531 C 154.140625 382.398438 154.632812 383.078125 155.054688 383.804688 C 155.480469 384.53125 155.832031 385.292969 156.105469 386.085938 C 156.378906 386.882812 156.570312 387.699219 156.683594 388.53125 Z M 156.683594 388.53125 " fill-opacity="1" fill-rule="nonzero"/></g></g></g><g clip-path="url(#7947d09a79)"><g clip-path="url(#f6f990c03a)"><g clip-path="url(#6760526a49)"><path fill="#bb5f66" d="M 149.753906 294.21875 C 149.753906 294.21875 111.628906 256.234375 64.972656 281.515625 C 64.972656 281.515625 7.84375 282.363281 7.65625 356.847656 C 7.464844 431.332031 79.363281 433.628906 108.476562 376.398438 C 137.59375 319.171875 129.113281 305.976562 149.753906 294.21875 Z M 149.753906 294.21875 " fill-opacity="1" fill-rule="nonzero"/></g></g></g><g clip-path="url(#20160679ef)"><g clip-path="url(#17708721d7)"><g clip-path="url(#5d391d968b)"><path fill="#d69397" d="M 167.304688 533.289062 C 168.855469 565.222656 178.429688 596.839844 199.355469 625.214844 C 203.621094 630.972656 208.4375 636.222656 213.808594 640.964844 C 219.40625 645.898438 225.394531 650.300781 231.773438 654.167969 C 234.664062 652.601562 237.304688 650.691406 239.699219 648.441406 C 242.09375 646.1875 244.160156 643.667969 245.902344 640.882812 L 567.390625 640.046875 C 568.683594 642.199219 570.191406 644.191406 571.914062 646.023438 C 575.878906 644.0625 579.6875 642.066406 583.324219 640.003906 C 601.011719 630 614.652344 618.835938 622.640625 606.746094 C 640.453125 579.90625 649.011719 557.183594 650.847656 535.503906 C 654.371094 493.476562 632.734375 455.269531 604.269531 398.25 C 603.722656 397.121094 603.132812 396.097656 602.625 395.039062 C 599.070312 388.167969 595.09375 381.550781 590.699219 375.1875 C 588.707031 372.316406 586.636719 369.503906 584.492188 366.746094 C 582.34375 363.988281 580.121094 361.292969 577.824219 358.660156 C 575.527344 356.027344 573.160156 353.460938 570.71875 350.957031 C 568.28125 348.453125 565.773438 346.023438 563.199219 343.660156 C 560.625 341.296875 557.988281 339.007812 555.285156 336.789062 C 552.585938 334.574219 549.824219 332.433594 547.003906 330.371094 C 544.183594 328.308594 541.308594 326.324219 538.378906 324.421875 C 535.449219 322.515625 532.46875 320.695312 529.4375 318.957031 C 526.40625 317.21875 523.328125 315.566406 520.203125 314 C 517.082031 312.429688 513.917969 310.953125 510.710938 309.558594 C 507.507812 308.167969 504.265625 306.867188 500.988281 305.652344 C 497.710938 304.441406 494.402344 303.320312 491.0625 302.292969 C 487.722656 301.265625 484.359375 300.328125 480.96875 299.488281 C 477.574219 298.644531 474.164062 297.898438 470.730469 297.246094 C 467.296875 296.59375 463.847656 296.039062 460.386719 295.578125 C 456.921875 295.117188 453.449219 294.75 449.964844 294.484375 C 444.652344 294.046875 439.292969 293.855469 433.914062 293.882812 C 400.648438 294.070312 356.796875 296.519531 318.527344 305.945312 C 295.242188 311.644531 274.015625 319.988281 258.53125 331.945312 C 237.203125 348.410156 215.339844 375.046875 198.335938 407.015625 C 178.351562 444.40625 165.171875 489.191406 167.304688 533.289062 Z M 167.304688 533.289062 " fill-opacity="1" fill-rule="nonzero"/></g></g></g><g clip-path="url(#eee6478b8d)"><g clip-path="url(#67b3f84c09)"><g clip-path="url(#374ee773be)"><path fill="#d69397" d="M 443.375 388.921875 C 443.261719 389.753906 443.230469 390.589844 443.285156 391.429688 C 443.335938 392.269531 443.46875 393.09375 443.683594 393.90625 C 443.898438 394.71875 444.1875 395.5 444.558594 396.253906 C 444.925781 397.011719 445.367188 397.722656 445.875 398.390625 C 446.382812 399.058594 446.953125 399.667969 447.582031 400.222656 C 448.214844 400.78125 448.890625 401.269531 449.617188 401.691406 C 450.34375 402.113281 451.105469 402.460938 451.898438 402.730469 C 452.695312 403.003906 453.507812 403.195312 454.339844 403.308594 L 477.691406 406.460938 C 478.523438 406.570312 479.359375 406.601562 480.199219 406.546875 C 481.035156 406.496094 481.859375 406.363281 482.671875 406.148438 C 483.484375 405.929688 484.265625 405.640625 485.019531 405.269531 C 485.773438 404.902344 486.484375 404.460938 487.152344 403.953125 C 487.820312 403.445312 488.433594 402.875 488.988281 402.246094 C 489.542969 401.617188 490.03125 400.9375 490.453125 400.214844 C 490.875 399.488281 491.222656 398.726562 491.496094 397.933594 C 491.769531 397.140625 491.964844 396.328125 492.074219 395.496094 C 492.1875 394.664062 492.21875 393.828125 492.167969 392.988281 C 492.113281 392.152344 491.980469 391.328125 491.765625 390.515625 C 491.550781 389.703125 491.257812 388.917969 490.890625 388.164062 C 490.519531 387.410156 490.082031 386.699219 489.574219 386.03125 C 489.0625 385.363281 488.496094 384.753906 487.863281 384.195312 C 487.234375 383.640625 486.558594 383.152344 485.832031 382.730469 C 485.105469 382.308594 484.34375 381.960938 483.550781 381.6875 C 482.757812 381.417969 481.941406 381.222656 481.109375 381.113281 L 469.761719 379.574219 L 457.757812 377.914062 C 456.925781 377.800781 456.089844 377.769531 455.25 377.824219 C 454.410156 377.875 453.582031 378.007812 452.769531 378.226562 C 451.953125 378.441406 451.171875 378.734375 450.414062 379.105469 C 449.660156 379.476562 448.949219 379.917969 448.277344 380.429688 C 447.609375 380.941406 447 381.511719 446.445312 382.144531 C 445.886719 382.777344 445.402344 383.457031 444.980469 384.1875 C 444.558594 384.914062 444.214844 385.679688 443.945312 386.476562 C 443.671875 387.273438 443.484375 388.089844 443.375 388.921875 Z M 443.375 388.921875 " fill-opacity="1" fill-rule="nonzero"/></g></g></g><g clip-path="url(#0aa45416a7)"><g clip-path="url(#ccbb287ccd)"><g clip-path="url(#1771703805)"><path fill="#bb5f66" d="M 449.816406 294.574219 C 449.816406 294.574219 487.746094 256.390625 534.53125 281.429688 C 534.53125 281.429688 591.660156 281.980469 592.238281 356.464844 C 592.816406 430.949219 520.933594 433.617188 491.519531 376.539062 C 462.105469 319.464844 470.519531 306.226562 449.816406 294.574219 Z M 449.816406 294.574219 " fill-opacity="1" fill-rule="nonzero"/></g></g></g><g clip-path="url(#c0a37bafe3)"><g clip-path="url(#1b79a7673d)"><path fill="#bb5f66" d="M 417.789062 499.582031 L 504.429688 499.582031 L 504.429688 562.59375 L 417.789062 562.59375 Z M 417.789062 499.582031 " fill-opacity="1" fill-rule="nonzero"/></g></g><g clip-path="url(#b21b10e312)"><g clip-path="url(#cb2474cbc8)"><path fill="#bb5f66" d="M 95.351562 499.582031 L 181.992188 499.582031 L 181.992188 562.59375 L 95.351562 562.59375 Z M 95.351562 499.582031 " fill-opacity="1" fill-rule="nonzero"/></g></g><g clip-path="url(#c1ed6ed4bd)"><g clip-path="url(#a99304a0b4)"><g clip-path="url(#3d65a9162a)"><path fill="#d69397" d="M 613.277344 479.097656 C 615.003906 519.542969 606.570312 560.519531 583.453125 598.714844 C 578.738281 606.46875 573.269531 613.644531 567.042969 620.242188 C 560.554688 627.113281 553.507812 633.351562 545.910156 638.964844 C 542.085938 637.320312 538.535156 635.214844 535.253906 632.652344 C 531.976562 630.089844 529.078125 627.152344 526.558594 623.835938 L 121.046875 659.835938 C 119.664062 662.703125 117.988281 665.386719 116.027344 667.894531 C 110.804688 665.878906 105.773438 663.800781 100.949219 661.621094 C 77.488281 651.042969 59 638.535156 47.535156 624.210938 C 21.976562 592.417969 8.566406 564.746094 3.75 537.621094 C -5.535156 485.027344 17.347656 434.351562 46.671875 359.160156 C 47.230469 357.679688 47.855469 356.320312 48.375 354.925781 C 52.066406 345.851562 56.316406 337.050781 61.128906 328.515625 C 63.308594 324.667969 65.59375 320.878906 67.984375 317.15625 C 70.371094 313.429688 72.863281 309.777344 75.457031 306.191406 C 78.050781 302.605469 80.742188 299.09375 83.527344 295.65625 C 86.316406 292.222656 89.195312 288.867188 92.171875 285.589844 C 95.144531 282.3125 98.207031 279.121094 101.359375 276.015625 C 104.507812 272.90625 107.746094 269.890625 111.0625 266.964844 C 114.382812 264.039062 117.777344 261.203125 121.253906 258.464844 C 124.730469 255.726562 128.28125 253.085938 131.902344 250.546875 C 135.523438 248.003906 139.214844 245.566406 142.972656 243.230469 C 146.730469 240.890625 150.550781 238.660156 154.429688 236.535156 C 158.3125 234.410156 162.25 232.394531 166.242188 230.488281 C 170.234375 228.582031 174.277344 226.789062 178.371094 225.109375 C 182.464844 223.425781 186.601562 221.859375 190.78125 220.40625 C 194.960938 218.953125 199.175781 217.621094 203.429688 216.402344 C 207.683594 215.183594 211.96875 214.082031 216.285156 213.101562 C 220.601562 212.121094 224.9375 211.261719 229.300781 210.523438 C 235.949219 209.359375 242.683594 208.503906 249.46875 207.914062 C 291.445312 204.316406 347.023438 202.351562 396.375 209.828125 C 426.394531 214.332031 454.121094 222.40625 475.027344 235.703125 C 503.820312 254.007812 534.464844 285.078125 559.589844 323.4375 C 589.105469 368.285156 610.886719 423.238281 613.277344 479.097656 Z M 613.277344 479.097656 " fill-opacity="1" fill-rule="nonzero"/></g></g></g><g clip-path="url(#f9bd8c083a)"><g clip-path="url(#ecc5dcb548)"><g clip-path="url(#c47470d46c)"><path fill="#d69397" d="M 223.03125 421.921875 C 224.035156 421.957031 225.035156 422.050781 226.03125 422.203125 C 227.027344 422.359375 228.011719 422.574219 228.988281 422.847656 C 229.964844 423.121094 230.929688 423.453125 231.878906 423.839844 C 232.828125 424.230469 233.757812 424.675781 234.667969 425.179688 C 235.582031 425.679688 236.46875 426.234375 237.335938 426.84375 C 238.203125 427.453125 239.042969 428.113281 239.851562 428.824219 C 240.664062 429.535156 241.445312 430.292969 242.195312 431.101562 C 242.945312 431.90625 243.660156 432.753906 244.339844 433.648438 C 245.019531 434.539062 245.664062 435.472656 246.269531 436.441406 C 246.875 437.414062 247.4375 438.417969 247.960938 439.460938 C 248.484375 440.5 248.960938 441.570312 249.398438 442.667969 C 249.835938 443.769531 250.226562 444.890625 250.570312 446.039062 C 250.917969 447.1875 251.214844 448.351562 251.464844 449.539062 C 251.71875 450.722656 251.921875 451.921875 252.074219 453.132812 C 252.230469 454.34375 252.335938 455.5625 252.390625 456.789062 C 252.449219 458.011719 252.457031 459.238281 252.414062 460.46875 C 252.371094 461.695312 252.28125 462.917969 252.140625 464.136719 C 252 465.355469 251.808594 466.5625 251.574219 467.761719 C 251.335938 468.957031 251.050781 470.140625 250.71875 471.304688 C 250.386719 472.46875 250.007812 473.613281 249.585938 474.734375 C 249.164062 475.855469 248.695312 476.949219 248.183594 478.015625 C 247.675781 479.082031 247.121094 480.117188 246.527344 481.121094 C 245.9375 482.121094 245.304688 483.085938 244.632812 484.011719 C 243.964844 484.941406 243.261719 485.824219 242.519531 486.667969 C 241.78125 487.515625 241.007812 488.3125 240.203125 489.0625 C 239.402344 489.816406 238.570312 490.519531 237.710938 491.171875 C 236.851562 491.828125 235.972656 492.425781 235.066406 492.976562 C 234.160156 493.523438 233.234375 494.015625 232.289062 494.457031 C 231.347656 494.894531 230.386719 495.273438 229.414062 495.597656 C 228.441406 495.921875 227.457031 496.1875 226.464844 496.390625 C 225.46875 496.597656 224.472656 496.742188 223.46875 496.828125 C 222.464844 496.914062 221.460938 496.941406 220.457031 496.90625 C 219.449219 496.871094 218.449219 496.777344 217.457031 496.621094 C 216.460938 496.46875 215.472656 496.253906 214.496094 495.980469 C 213.519531 495.707031 212.554688 495.375 211.609375 494.984375 C 210.660156 494.597656 209.726562 494.152344 208.816406 493.648438 C 207.902344 493.148438 207.015625 492.59375 206.148438 491.984375 C 205.285156 491.375 204.445312 490.714844 203.632812 490.003906 C 202.820312 489.292969 202.039062 488.535156 201.289062 487.726562 C 200.539062 486.921875 199.824219 486.074219 199.144531 485.179688 C 198.464844 484.289062 197.820312 483.355469 197.21875 482.382812 C 196.613281 481.414062 196.050781 480.40625 195.527344 479.367188 C 195.003906 478.328125 194.523438 477.257812 194.085938 476.160156 C 193.652344 475.058594 193.257812 473.9375 192.914062 472.789062 C 192.570312 471.640625 192.269531 470.472656 192.019531 469.289062 C 191.769531 468.105469 191.566406 466.90625 191.410156 465.695312 C 191.257812 464.484375 191.148438 463.265625 191.09375 462.039062 C 191.039062 460.816406 191.03125 459.589844 191.074219 458.359375 C 191.113281 457.132812 191.207031 455.910156 191.347656 454.691406 C 191.488281 453.472656 191.675781 452.265625 191.914062 451.066406 C 192.148438 449.867188 192.433594 448.6875 192.765625 447.523438 C 193.097656 446.355469 193.476562 445.214844 193.898438 444.09375 C 194.324219 442.972656 194.789062 441.878906 195.300781 440.8125 C 195.8125 439.746094 196.363281 438.710938 196.957031 437.707031 C 197.550781 436.707031 198.179688 435.742188 198.851562 434.816406 C 199.519531 433.886719 200.226562 433 200.964844 432.15625 C 201.707031 431.3125 202.476562 430.515625 203.28125 429.761719 C 204.085938 429.011719 204.914062 428.308594 205.773438 427.65625 C 206.632812 427 207.515625 426.398438 208.421875 425.851562 C 209.328125 425.304688 210.25 424.808594 211.195312 424.371094 C 212.140625 423.933594 213.097656 423.554688 214.070312 423.230469 C 215.046875 422.90625 216.027344 422.640625 217.023438 422.4375 C 218.015625 422.230469 219.015625 422.085938 220.019531 422 C 221.023438 421.914062 222.027344 421.886719 223.03125 421.921875 Z M 223.03125 421.921875 " fill-opacity="1" fill-rule="nonzero"/></g></g></g><g clip-path="url(#9c25abbb15)"><g clip-path="url(#f1d7f96cf3)"><g clip-path="url(#0b85d01487)"><path fill="#d69397" d="M 378.140625 417.292969 C 379.144531 417.328125 380.144531 417.425781 381.140625 417.578125 C 382.136719 417.734375 383.121094 417.949219 384.097656 418.222656 C 385.074219 418.496094 386.039062 418.824219 386.988281 419.214844 C 387.9375 419.605469 388.867188 420.050781 389.777344 420.550781 C 390.691406 421.054688 391.578125 421.609375 392.445312 422.21875 C 393.3125 422.828125 394.152344 423.488281 394.960938 424.199219 C 395.773438 424.910156 396.554688 425.667969 397.304688 426.472656 C 398.054688 427.277344 398.769531 428.128906 399.449219 429.019531 C 400.128906 429.914062 400.773438 430.84375 401.378906 431.816406 C 401.980469 432.789062 402.546875 433.792969 403.070312 434.832031 C 403.59375 435.875 404.070312 436.945312 404.507812 438.042969 C 404.945312 439.140625 405.335938 440.265625 405.679688 441.414062 C 406.027344 442.558594 406.324219 443.726562 406.574219 444.910156 C 406.828125 446.097656 407.03125 447.296875 407.183594 448.507812 C 407.339844 449.71875 407.445312 450.933594 407.5 452.160156 C 407.558594 453.386719 407.566406 454.613281 407.523438 455.839844 C 407.480469 457.070312 407.390625 458.292969 407.25 459.511719 C 407.109375 460.730469 406.917969 461.9375 406.683594 463.136719 C 406.445312 464.332031 406.160156 465.515625 405.828125 466.679688 C 405.496094 467.84375 405.117188 468.988281 404.695312 470.109375 C 404.273438 471.230469 403.804688 472.324219 403.292969 473.390625 C 402.785156 474.457031 402.230469 475.492188 401.636719 476.492188 C 401.046875 477.496094 400.414062 478.460938 399.742188 479.386719 C 399.074219 480.3125 398.367188 481.199219 397.628906 482.042969 C 396.890625 482.886719 396.117188 483.683594 395.3125 484.4375 C 394.511719 485.191406 393.679688 485.894531 392.820312 486.546875 C 391.960938 487.199219 391.082031 487.800781 390.175781 488.347656 C 389.269531 488.898438 388.34375 489.390625 387.398438 489.828125 C 386.457031 490.265625 385.496094 490.648438 384.523438 490.972656 C 383.550781 491.292969 382.566406 491.558594 381.574219 491.765625 C 380.578125 491.972656 379.582031 492.117188 378.578125 492.203125 C 377.574219 492.289062 376.570312 492.3125 375.5625 492.28125 C 374.558594 492.246094 373.558594 492.152344 372.5625 491.996094 C 371.570312 491.839844 370.582031 491.628906 369.605469 491.355469 C 368.628906 491.082031 367.664062 490.75 366.714844 490.359375 C 365.765625 489.96875 364.835938 489.523438 363.925781 489.023438 C 363.011719 488.519531 362.125 487.964844 361.257812 487.355469 C 360.390625 486.746094 359.554688 486.085938 358.742188 485.375 C 357.929688 484.664062 357.148438 483.90625 356.398438 483.101562 C 355.648438 482.296875 354.933594 481.445312 354.253906 480.554688 C 353.574219 479.660156 352.929688 478.730469 352.328125 477.757812 C 351.722656 476.785156 351.15625 475.78125 350.636719 474.742188 C 350.113281 473.699219 349.632812 472.632812 349.195312 471.53125 C 348.757812 470.433594 348.367188 469.308594 348.023438 468.160156 C 347.679688 467.015625 347.378906 465.847656 347.128906 464.664062 C 346.878906 463.476562 346.675781 462.28125 346.519531 461.070312 C 346.363281 459.859375 346.257812 458.640625 346.203125 457.414062 C 346.148438 456.1875 346.140625 454.960938 346.179688 453.734375 C 346.222656 452.507812 346.316406 451.28125 346.457031 450.0625 C 346.597656 448.84375 346.785156 447.636719 347.023438 446.441406 C 347.257812 445.242188 347.542969 444.0625 347.875 442.894531 C 348.207031 441.730469 348.585938 440.585938 349.007812 439.464844 C 349.433594 438.34375 349.898438 437.25 350.410156 436.183594 C 350.921875 435.117188 351.472656 434.082031 352.066406 433.082031 C 352.660156 432.078125 353.289062 431.117188 353.960938 430.1875 C 354.628906 429.261719 355.335938 428.375 356.074219 427.53125 C 356.816406 426.6875 357.585938 425.890625 358.390625 425.136719 C 359.195312 424.382812 360.023438 423.683594 360.882812 423.027344 C 361.742188 422.375 362.625 421.773438 363.53125 421.226562 C 364.433594 420.675781 365.359375 420.183594 366.304688 419.746094 C 367.25 419.308594 368.207031 418.925781 369.179688 418.601562 C 370.15625 418.28125 371.136719 418.015625 372.132812 417.808594 C 373.125 417.605469 374.125 417.457031 375.128906 417.371094 C 376.132812 417.285156 377.136719 417.261719 378.140625 417.292969 Z M 378.140625 417.292969 " fill-opacity="1" fill-rule="nonzero"/></g></g></g><g clip-path="url(#480cca0b31)"><g clip-path="url(#313660dcc7)"><g clip-path="url(#a163d39eb0)"><path fill="#d69397" d="M 260.25 601.789062 C 214.929688 605.8125 186.585938 576.886719 185.320312 575.566406 C 185.113281 575.324219 184.925781 575.0625 184.765625 574.785156 C 184.605469 574.507812 184.472656 574.214844 184.371094 573.914062 C 184.265625 573.609375 184.1875 573.300781 184.144531 572.984375 C 184.097656 572.664062 184.082031 572.347656 184.097656 572.027344 C 184.113281 571.707031 184.15625 571.390625 184.230469 571.078125 C 184.304688 570.765625 184.410156 570.464844 184.542969 570.171875 C 184.675781 569.878906 184.832031 569.605469 185.019531 569.34375 C 185.203125 569.082031 185.410156 568.839844 185.644531 568.617188 C 185.875 568.394531 186.125 568.195312 186.394531 568.019531 C 186.660156 567.847656 186.945312 567.699219 187.242188 567.578125 C 187.539062 567.457031 187.84375 567.363281 188.160156 567.300781 C 188.472656 567.238281 188.792969 567.207031 189.113281 567.207031 C 189.433594 567.203125 189.75 567.230469 190.066406 567.289062 C 190.382812 567.347656 190.6875 567.433594 190.988281 567.550781 C 191.285156 567.667969 191.570312 567.8125 191.839844 567.984375 C 192.113281 568.152344 192.367188 568.347656 192.601562 568.566406 C 192.886719 568.886719 222.847656 599.230469 268.59375 590.496094 C 269.222656 590.425781 269.84375 590.476562 270.453125 590.640625 C 271.0625 590.808594 271.625 591.078125 272.132812 591.457031 C 272.640625 591.832031 273.0625 592.285156 273.398438 592.824219 C 273.734375 593.359375 273.964844 593.9375 274.082031 594.558594 C 274.203125 595.179688 274.203125 595.800781 274.089844 596.421875 C 273.976562 597.042969 273.75 597.625 273.417969 598.160156 C 273.085938 598.699219 272.667969 599.15625 272.160156 599.539062 C 271.65625 599.917969 271.097656 600.191406 270.488281 600.363281 C 267.097656 601.007812 263.6875 601.484375 260.25 601.789062 Z M 260.25 601.789062 " fill-opacity="1" fill-rule="nonzero"/></g></g></g><g clip-path="url(#9415a6d09c)"><g clip-path="url(#5c96b65e29)"><g clip-path="url(#3ef0b862b1)"><path fill="#bb5f66" d="M 238.445312 502.003906 C 241.734375 498.570312 245.304688 495.449219 249.148438 492.648438 C 252.996094 489.847656 257.058594 487.40625 261.335938 485.328125 C 265.617188 483.25 270.046875 481.566406 274.625 480.277344 C 279.207031 478.988281 283.863281 478.113281 288.597656 477.652344 C 312.304688 475.476562 347.597656 479.167969 371.964844 515.773438 C 410.542969 573.734375 301.078125 597.261719 243.164062 565.027344 C 207.316406 545.082031 222.03125 518.972656 238.445312 502.003906 Z M 238.445312 502.003906 " fill-opacity="1" fill-rule="nonzero"/></g></g></g><g clip-path="url(#596ff814c4)"><g clip-path="url(#68c42986b4)"><g clip-path="url(#a573342a53)"><path fill="#86383f" d="M 311.652344 514.632812 C 311.648438 523.304688 315.484375 530.347656 320.214844 530.34375 C 324.945312 530.339844 328.808594 523.316406 328.855469 514.636719 C 328.902344 505.960938 325.023438 498.9375 320.292969 498.925781 C 315.558594 498.914062 311.726562 505.953125 311.652344 514.632812 Z M 311.652344 514.632812 " fill-opacity="1" fill-rule="nonzero"/></g></g></g><g clip-path="url(#2084be48aa)"><g clip-path="url(#e9e15b75b4)"><g clip-path="url(#7d830c8e65)"><path fill="#86383f" d="M 273.027344 514.605469 C 273.023438 523.277344 276.855469 530.308594 281.589844 530.316406 C 286.320312 530.328125 290.167969 523.292969 290.230469 514.613281 C 290.292969 505.933594 286.398438 498.894531 281.667969 498.898438 C 276.9375 498.902344 273.015625 505.933594 273.027344 514.605469 Z M 273.027344 514.605469 " fill-opacity="1" fill-rule="nonzero"/></g></g></g><g clip-path="url(#86c30be226)"><g clip-path="url(#6ed385cfb6)"><path fill="#232126" d="M 356.144531 425.066406 L 417.789062 425.066406 L 417.789062 499.472656 L 356.144531 499.472656 Z M 356.144531 425.066406 " fill-opacity="1" fill-rule="nonzero"/></g></g><g clip-path="url(#cf956068a4)"><g clip-path="url(#149af3394e)"><path fill="#232126" d="M 182.050781 425.066406 L 243.691406 425.066406 L 243.691406 499.472656 L 182.050781 499.472656 Z M 182.050781 425.066406 " fill-opacity="1" fill-rule="nonzero"/></g></g><g clip-path="url(#981f433241)"><path stroke-linecap="round" transform="matrix(0.718618, 0.211496, -0.211496, 0.718618, 200.457839, 572.822639)" fill="none" stroke-linejoin="miter" d="M 8.172209 7.990256 C 45.62338 25.125371 83.076817 25.109924 120.527517 7.945385 " stroke="#232126" stroke-width="12" stroke-opacity="1" stroke-miterlimit="4"/></g><g clip-path="url(#ff80c78b7e)"><g clip-path="url(#318064a519)"><g clip-path="url(#6fdb1aa0f1)"><path fill="#232126" d="M 163.691406 377.605469 L 234.828125 364.871094 L 240.296875 395.425781 L 169.160156 408.160156 Z M 163.691406 377.605469 " fill-opacity="1" fill-rule="nonzero"/></g></g></g><g clip-path="url(#f77b701210)"><g clip-path="url(#1037988e0f)"><g clip-path="url(#532fc424ec)"><path fill="#232126" d="M 365.152344 364.882812 L 436.195312 378.125 L 430.507812 408.640625 L 359.464844 395.398438 Z M 365.152344 364.882812 " fill-opacity="1" fill-rule="nonzero"/></g></g></g><g clip-path="url(#f02682b3f4)"><path fill="#efcfb1" d="M 579.945312 269.523438 L 486.695312 216.695312 C 465.539062 222.761719 450.714844 220.902344 453.007812 197.621094 L 447.421875 169.835938 L 332.929688 40.429688 C 332.929688 40.429688 322.777344 0 296.253906 0 C 269.734375 0 259.582031 40.429688 259.582031 40.429688 L 145.085938 169.835938 L 139.503906 197.621094 C 137.65625 211.527344 123.929688 215.878906 105.8125 216.695312 L 12.566406 269.523438 C 8.808594 271.660156 5.753906 274.722656 3.652344 278.328125 C 1.554688 281.941406 0.382812 286.105469 0.382812 290.4375 C 0.382812 299.480469 5.476562 307.734375 13.542969 311.863281 C 41.414062 326.105469 119.007812 354.320312 296.253906 354.320312 C 473.503906 354.320312 551.097656 326.105469 578.964844 311.863281 C 583 309.796875 586.292969 306.695312 588.570312 303 C 590.847656 299.277344 592.125 294.957031 592.125 290.4375 C 592.125 281.773438 587.472656 273.792969 579.945312 269.523438 Z M 277.917969 37.269531 C 277.917969 37.269531 279.589844 17.238281 296.253906 17.238281 C 312.921875 17.238281 314.589844 37.269531 314.589844 37.269531 Z M 277.917969 37.269531 " fill-opacity="1" fill-rule="nonzero"/></g><path fill="#604533" d="M 403.496094 123.355469 C 409.734375 123.355469 414.78125 128.414062 414.78125 134.652344 C 414.78125 140.894531 409.734375 145.953125 403.496094 145.953125 C 397.257812 145.953125 392.199219 140.894531 392.199219 134.652344 C 392.199219 128.414062 397.257812 123.355469 403.496094 123.355469 Z M 403.496094 123.355469 " fill-opacity="1" fill-rule="nonzero"/><path fill="#604533" d="M 296.253906 133.832031 C 302.492188 133.832031 307.550781 138.890625 307.550781 145.128906 C 307.550781 151.355469 302.492188 156.414062 296.253906 156.414062 C 290.015625 156.414062 284.957031 151.355469 284.957031 145.128906 C 284.957031 138.890625 290.015625 133.832031 296.253906 133.832031 Z M 296.253906 133.832031 " fill-opacity="1" fill-rule="nonzero"/><path fill="#604533" d="M 189.011719 123.355469 C 195.253906 123.355469 200.3125 128.414062 200.3125 134.652344 C 200.3125 140.894531 195.253906 145.953125 189.011719 145.953125 C 182.773438 145.953125 177.726562 140.894531 177.726562 134.652344 C 177.726562 128.414062 182.773438 123.355469 189.011719 123.355469 Z M 189.011719 123.355469 " fill-opacity="1" fill-rule="nonzero"/><path fill="#c19b7a" d="M 277.917969 37.269531 C 279.800781 37.066406 281.699219 36.886719 283.632812 36.757812 C 237.914062 62.691406 220.675781 145.535156 220.675781 192.15625 L 220.675781 192.167969 C 168.695312 184.082031 145.085938 169.835938 145.085938 169.835938 C 155.667969 129.691406 184.707031 58.300781 259.582031 40.429688 C 265.414062 39.035156 271.523438 37.972656 277.917969 37.269531 Z M 200.3125 134.652344 C 200.3125 128.414062 195.253906 123.355469 189.011719 123.355469 C 182.773438 123.355469 177.726562 128.414062 177.726562 134.652344 C 177.726562 140.894531 182.773438 145.953125 189.011719 145.953125 C 195.253906 145.953125 200.3125 140.894531 200.3125 134.652344 Z M 200.3125 134.652344 " fill-opacity="1" fill-rule="nonzero"/><path fill="#c19b7a" d="M 314.589844 37.269531 C 320.984375 37.972656 327.09375 39.035156 332.929688 40.429688 C 407.800781 58.300781 436.839844 129.691406 447.421875 169.835938 C 447.421875 169.835938 423.8125 184.082031 371.832031 192.167969 L 371.832031 192.15625 C 371.832031 145.535156 354.59375 62.691406 308.875 36.757812 C 310.808594 36.886719 312.707031 37.066406 314.589844 37.269531 Z M 414.78125 134.652344 C 414.78125 128.414062 409.734375 123.355469 403.496094 123.355469 C 397.257812 123.355469 392.199219 128.414062 392.199219 134.652344 C 392.199219 140.894531 397.257812 145.953125 403.496094 145.953125 C 409.734375 145.953125 414.78125 140.894531 414.78125 134.652344 Z M 414.78125 134.652344 " fill-opacity="1" fill-rule="nonzero"/><path fill="#d1af8f" d="M 371.832031 192.15625 L 371.832031 192.167969 C 351.207031 195.378906 326.117188 197.621094 296.253906 197.621094 C 266.394531 197.621094 241.304688 195.378906 220.675781 192.167969 L 220.675781 192.15625 C 220.675781 145.535156 237.914062 62.691406 283.632812 36.757812 C 287.722656 36.445312 291.925781 36.292969 296.253906 36.292969 C 300.585938 36.292969 304.785156 36.445312 308.875 36.757812 C 354.59375 62.691406 371.832031 145.535156 371.832031 192.15625 Z M 307.550781 145.128906 C 307.550781 138.890625 302.492188 133.832031 296.253906 133.832031 C 290.015625 133.832031 284.957031 138.890625 284.957031 145.128906 C 284.957031 151.355469 290.015625 156.414062 296.253906 156.414062 C 302.492188 156.414062 307.550781 151.355469 307.550781 145.128906 Z M 307.550781 145.128906 " fill-opacity="1" fill-rule="nonzero"/><path fill="#c19b7a" d="M 453.007812 197.621094 L 486.695312 216.695312 C 486.695312 216.695312 435.992188 268.113281 296.253906 268.113281 C 156.515625 268.113281 105.8125 216.695312 105.8125 216.695312 L 139.503906 197.621094 C 139.503906 197.621094 182.296875 229.9375 296.253906 229.9375 C 410.210938 229.9375 453.007812 197.621094 453.007812 197.621094 Z M 453.007812 197.621094 " fill-opacity="1" fill-rule="nonzero"/><path fill="#dbbb9c" d="M 296.253906 0 C 322.777344 0 332.929688 22.355469 332.929688 40.429688 C 327.09375 39.035156 320.984375 37.972656 314.589844 37.269531 C 314.589844 37.269531 312.921875 17.238281 296.253906 17.238281 C 279.589844 17.238281 277.917969 37.269531 277.917969 37.269531 C 271.523438 37.972656 265.414062 39.035156 259.582031 40.429688 C 259.582031 22.355469 269.734375 0 296.253906 0 Z M 296.253906 0 " fill-opacity="1" fill-rule="nonzero"/><path fill="#dbbb9c" d="M 447.421875 169.835938 C 451.777344 186.382812 453.007812 197.621094 453.007812 197.621094 C 453.007812 197.621094 410.210938 229.9375 296.253906 229.9375 C 182.296875 229.9375 139.503906 197.621094 139.503906 197.621094 C 139.503906 197.621094 140.730469 186.382812 145.085938 169.835938 C 145.085938 169.835938 168.695312 184.082031 220.675781 192.167969 C 241.304688 195.378906 266.394531 197.621094 296.253906 197.621094 C 326.117188 197.621094 351.207031 195.378906 371.832031 192.167969 C 423.8125 184.082031 447.421875 169.835938 447.421875 169.835938 Z M 447.421875 169.835938 " fill-opacity="1" fill-rule="nonzero"/><g clip-path="url(#a9603c957c)"><path fill="#dbbb9c" d="M 592.125 290.4375 C 592.125 294.957031 590.847656 299.277344 588.570312 303 C 586.292969 306.695312 583 309.796875 578.964844 311.863281 C 572.214844 315.308594 562.550781 319.582031 549.246094 324.066406 C 507.648438 338.121094 430.566406 354.320312 296.253906 354.320312 C 119.007812 354.320312 41.414062 326.105469 13.542969 311.863281 C 5.476562 307.734375 0.382812 299.480469 0.382812 290.4375 C 0.382812 286.105469 1.554688 281.941406 3.652344 278.328125 C 5.753906 274.722656 8.808594 271.660156 12.566406 269.523438 L 105.8125 216.695312 C 105.8125 216.695312 156.515625 268.113281 296.253906 268.113281 C 435.992188 268.113281 486.695312 216.695312 486.695312 216.695312 L 549.246094 252.128906 L 579.945312 269.523438 C 587.472656 273.792969 592.125 281.773438 592.125 290.4375 Z M 592.125 290.4375 " fill-opacity="1" fill-rule="nonzero"/></g><g clip-path="url(#870ececb2d)"><path fill="#d1af8f" d="M 105.8125 216.695312 L 12.566406 269.523438 C 8.808594 271.660156 5.753906 274.722656 3.652344 278.328125 C 1.554688 281.941406 0.382812 286.105469 0.382812 290.4375 C 0.382812 299.480469 5.476562 307.734375 13.542969 311.863281 C 41.414062 326.105469 119.007812 354.320312 296.253906 354.320312 C 430.566406 354.320312 507.648438 338.121094 549.246094 324.066406 C 329.945312 317.84375 167.226562 288.21875 105.8125 216.695312 Z M 105.8125 216.695312 " fill-opacity="1" fill-rule="nonzero"/></g></svg>