<svg xmlns="http://www.w3.org/2000/svg" xmlns:xlink="http://www.w3.org/1999/xlink" width="800" zoomAndPan="magnify" viewBox="0 0 600 343.499995" height="458" preserveAspectRatio="xMidYMid meet" version="1.0"><defs><clipPath id="18d5c10ab3"><path d="M 0.4375 28 L 163 28 L 163 160 L 0.4375 160 Z M 0.4375 28 " clip-rule="nonzero"/></clipPath><clipPath id="4b67323948"><path d="M 0.4375 0.421875 L 162.199219 0 L 162.613281 159.515625 L 0.851562 159.9375 Z M 0.4375 0.421875 " clip-rule="nonzero"/></clipPath><clipPath id="2470021178"><path d="M -86.117188 -8.402344 L 477.8125 -9.871094 L 478.914062 414.761719 L -85.011719 416.226562 Z M -86.117188 -8.402344 " clip-rule="nonzero"/></clipPath><clipPath id="a60c0951bf"><path d="M 107 112 L 157 112 L 157 142 L 107 142 Z M 107 112 " clip-rule="nonzero"/></clipPath><clipPath id="0cf1546d23"><path d="M 0.4375 0.421875 L 162.199219 0 L 162.613281 159.515625 L 0.851562 159.9375 Z M 0.4375 0.421875 " clip-rule="nonzero"/></clipPath><clipPath id="16cb7d1c76"><path d="M -86.117188 -8.402344 L 477.8125 -9.871094 L 478.914062 414.761719 L -85.011719 416.226562 Z M -86.117188 -8.402344 " clip-rule="nonzero"/></clipPath><clipPath id="4a335cab40"><path d="M 7 7 L 150 7 L 150 152 L 7 152 Z M 7 7 " clip-rule="nonzero"/></clipPath><clipPath id="41d4f6013c"><path d="M 0.4375 0.421875 L 162.199219 0 L 162.613281 159.515625 L 0.851562 159.9375 Z M 0.4375 0.421875 " clip-rule="nonzero"/></clipPath><clipPath id="1fbd3aefd5"><path d="M -86.117188 -8.402344 L 477.8125 -9.871094 L 478.914062 414.761719 L -85.011719 416.226562 Z M -86.117188 -8.402344 " clip-rule="nonzero"/></clipPath><clipPath id="691020194c"><path d="M 437 28 L 599.5625 28 L 599.5625 160 L 437 160 Z M 437 28 " clip-rule="nonzero"/></clipPath><clipPath id="fd2ab01b76"><path d="M 437.5 0.421875 L 599.265625 0 L 599.679688 159.515625 L 437.914062 159.9375 Z M 437.5 0.421875 " clip-rule="nonzero"/></clipPath><clipPath id="aed37730dd"><path d="M 685.488281 -9.273438 L 121.5625 -7.808594 L 122.664062 416.824219 L 686.59375 415.355469 Z M 685.488281 -9.273438 " clip-rule="nonzero"/></clipPath><clipPath id="027fee5e9e"><path d="M 443 112 L 493 112 L 493 142 L 443 142 Z M 443 112 " clip-rule="nonzero"/></clipPath><clipPath id="39b31a3269"><path d="M 437.5 0.421875 L 599.265625 0 L 599.679688 159.515625 L 437.914062 159.9375 Z M 437.5 0.421875 " clip-rule="nonzero"/></clipPath><clipPath id="1417223044"><path d="M 685.488281 -9.273438 L 121.5625 -7.808594 L 122.664062 416.824219 L 686.59375 415.355469 Z M 685.488281 -9.273438 " clip-rule="nonzero"/></clipPath><clipPath id="c6906c33f7"><path d="M 449 7 L 593 7 L 593 152 L 449 152 Z M 449 7 " clip-rule="nonzero"/></clipPath><clipPath id="1a7bdd0928"><path d="M 437.5 0.421875 L 599.265625 0 L 599.679688 159.515625 L 437.914062 159.9375 Z M 437.5 0.421875 " clip-rule="nonzero"/></clipPath><clipPath id="79f7239147"><path d="M 685.488281 -9.273438 L 121.5625 -7.808594 L 122.664062 416.824219 L 686.59375 415.355469 Z M 685.488281 -9.273438 " clip-rule="nonzero"/></clipPath><clipPath id="b808f93776"><path d="M 417.757812 234.382812 L 504.628906 234.382812 L 504.628906 297.378906 L 417.757812 297.378906 Z M 417.757812 234.382812 " clip-rule="nonzero"/></clipPath><clipPath id="2aa881f507"><path d="M 461.097656 234.382812 C 437.164062 234.382812 417.757812 248.484375 417.757812 265.882812 C 417.757812 283.277344 437.164062 297.378906 461.097656 297.378906 C 485.035156 297.378906 504.4375 283.277344 504.4375 265.882812 C 504.4375 248.484375 485.035156 234.382812 461.097656 234.382812 Z M 461.097656 234.382812 " clip-rule="nonzero"/></clipPath><clipPath id="30030f1770"><path d="M 95.402344 234.382812 L 182.269531 234.382812 L 182.269531 297.378906 L 95.402344 297.378906 Z M 95.402344 234.382812 " clip-rule="nonzero"/></clipPath><clipPath id="94a8687b2d"><path d="M 138.738281 234.382812 C 114.804688 234.382812 95.402344 248.484375 95.402344 265.882812 C 95.402344 283.277344 114.804688 297.378906 138.738281 297.378906 C 162.675781 297.378906 182.078125 283.277344 182.078125 265.882812 C 182.078125 248.484375 162.675781 234.382812 138.738281 234.382812 Z M 138.738281 234.382812 " clip-rule="nonzero"/></clipPath><clipPath id="639ac16271"><path d="M 216 204 L 384 204 L 384 322 L 216 322 Z M 216 204 " clip-rule="nonzero"/></clipPath><clipPath id="4717c1e17e"><path d="M 216.191406 218.296875 L 374.339844 204.257812 L 383.542969 307.949219 L 225.398438 321.988281 Z M 216.191406 218.296875 " clip-rule="nonzero"/></clipPath><clipPath id="2986fe5606"><path d="M -72.1875 -76.144531 L 639.472656 -139.320312 L 687.019531 396.292969 L -24.640625 459.46875 Z M -72.1875 -76.144531 " clip-rule="nonzero"/></clipPath><clipPath id="fb9352627e"><path d="M 216 204 L 253 204 L 253 232 L 216 232 Z M 216 204 " clip-rule="nonzero"/></clipPath><clipPath id="89584f1dd5"><path d="M 216.191406 218.296875 L 374.339844 204.257812 L 383.542969 307.949219 L 225.398438 321.988281 Z M 216.191406 218.296875 " clip-rule="nonzero"/></clipPath><clipPath id="03b9e37a49"><path d="M -72.1875 -76.144531 L 639.472656 -139.320312 L 687.019531 396.292969 L -24.640625 459.46875 Z M -72.1875 -76.144531 " clip-rule="nonzero"/></clipPath><clipPath id="eceb831a56"><path d="M 346 204 L 384 204 L 384 228 L 346 228 Z M 346 204 " clip-rule="nonzero"/></clipPath><clipPath id="fb108c128c"><path d="M 216.191406 218.296875 L 374.339844 204.257812 L 383.542969 307.949219 L 225.398438 321.988281 Z M 216.191406 218.296875 " clip-rule="nonzero"/></clipPath><clipPath id="d81857e0dd"><path d="M -72.1875 -76.144531 L 639.472656 -139.320312 L 687.019531 396.292969 L -24.640625 459.46875 Z M -72.1875 -76.144531 " clip-rule="nonzero"/></clipPath><clipPath id="0da7ca3c63"><path d="M 216 301 L 275 301 L 275 322 L 216 322 Z M 216 301 " clip-rule="nonzero"/></clipPath><clipPath id="904530a959"><path d="M 216.191406 218.296875 L 374.339844 204.257812 L 383.542969 307.949219 L 225.398438 321.988281 Z M 216.191406 218.296875 " clip-rule="nonzero"/></clipPath><clipPath id="83db5faa27"><path d="M -72.1875 -76.144531 L 639.472656 -139.320312 L 687.019531 396.292969 L -24.640625 459.46875 Z M -72.1875 -76.144531 " clip-rule="nonzero"/></clipPath><clipPath id="1287913208"><path d="M 221 211 L 380 211 L 380 315 L 221 315 Z M 221 211 " clip-rule="nonzero"/></clipPath><clipPath id="0e74503aab"><path d="M 216.191406 218.296875 L 374.339844 204.257812 L 383.542969 307.949219 L 225.398438 321.988281 Z M 216.191406 218.296875 " clip-rule="nonzero"/></clipPath><clipPath id="685c2c69b5"><path d="M -72.1875 -76.144531 L 639.472656 -139.320312 L 687.019531 396.292969 L -24.640625 459.46875 Z M -72.1875 -76.144531 " clip-rule="nonzero"/></clipPath><clipPath id="ce2a008df6"><path d="M 311 233 L 329 233 L 329 266 L 311 266 Z M 311 233 " clip-rule="nonzero"/></clipPath><clipPath id="c68ba1be93"><path d="M 216.191406 218.296875 L 374.339844 204.257812 L 383.542969 307.949219 L 225.398438 321.988281 Z M 216.191406 218.296875 " clip-rule="nonzero"/></clipPath><clipPath id="2a09cf7165"><path d="M -72.1875 -76.144531 L 639.472656 -139.320312 L 687.019531 396.292969 L -24.640625 459.46875 Z M -72.1875 -76.144531 " clip-rule="nonzero"/></clipPath><clipPath id="78f5c0699a"><path d="M 273 233 L 291 233 L 291 266 L 273 266 Z M 273 233 " clip-rule="nonzero"/></clipPath><clipPath id="127151ce51"><path d="M 216.191406 218.296875 L 374.339844 204.257812 L 383.542969 307.949219 L 225.398438 321.988281 Z M 216.191406 218.296875 " clip-rule="nonzero"/></clipPath><clipPath id="7c0d3827bd"><path d="M -72.1875 -76.144531 L 639.472656 -139.320312 L 687.019531 396.292969 L -24.640625 459.46875 Z M -72.1875 -76.144531 " clip-rule="nonzero"/></clipPath><clipPath id="aa939d8815"><path d="M 356.132812 159.886719 L 417.757812 159.886719 L 417.757812 234.511719 L 356.132812 234.511719 Z M 356.132812 159.886719 " clip-rule="nonzero"/></clipPath><clipPath id="7004627f06"><path d="M 386.945312 159.886719 C 369.925781 159.886719 356.132812 176.5625 356.132812 197.132812 C 356.132812 217.707031 369.925781 234.382812 386.945312 234.382812 C 403.964844 234.382812 417.757812 217.707031 417.757812 197.132812 C 417.757812 176.5625 403.964844 159.886719 386.945312 159.886719 Z M 386.945312 159.886719 " clip-rule="nonzero"/></clipPath><clipPath id="e22ed4803b"><path d="M 182.078125 159.886719 L 243.707031 159.886719 L 243.707031 234.511719 L 182.078125 234.511719 Z M 182.078125 159.886719 " clip-rule="nonzero"/></clipPath><clipPath id="f9a1fa8192"><path d="M 212.890625 159.886719 C 195.875 159.886719 182.078125 176.5625 182.078125 197.132812 C 182.078125 217.707031 195.875 234.382812 212.890625 234.382812 C 229.910156 234.382812 243.707031 217.707031 243.707031 197.132812 C 243.707031 176.5625 229.910156 159.886719 212.890625 159.886719 Z M 212.890625 159.886719 " clip-rule="nonzero"/></clipPath><clipPath id="33d86ebd6f"><path d="M 154 262 L 337 262 L 337 343 L 154 343 Z M 154 262 " clip-rule="nonzero"/></clipPath></defs><g clip-path="url(#18d5c10ab3)"><g clip-path="url(#4b67323948)"><g clip-path="url(#2470021178)"><path fill="#d69397" d="M 433.472656 266.25 C 432.089844 298.183594 422.675781 329.84375 401.90625 358.320312 C 397.671875 364.097656 392.882812 369.371094 387.539062 374.140625 C 381.96875 379.105469 376.003906 383.535156 369.644531 387.4375 C 366.75 385.882812 364.101562 383.988281 361.695312 381.75 C 359.289062 379.511719 357.207031 377.003906 355.453125 374.226562 L 34.046875 375.0625 C 32.761719 377.222656 31.265625 379.222656 29.550781 381.058594 C 25.578125 379.121094 21.761719 377.144531 18.113281 375.101562 C 0.378906 365.195312 -13.316406 354.101562 -21.363281 342.058594 C -39.3125 315.316406 -47.988281 292.644531 -49.9375 270.980469 C -53.675781 228.984375 -32.242188 190.671875 -4.082031 133.519531 C -3.542969 132.390625 -2.960938 131.363281 -2.453125 130.300781 C 1.0625 123.414062 5.003906 116.777344 9.367188 110.394531 C 11.339844 107.511719 13.394531 104.6875 15.527344 101.921875 C 17.660156 99.152344 19.867188 96.449219 22.148438 93.804688 C 24.433594 91.160156 26.785156 88.578125 29.210938 86.066406 C 31.636719 83.550781 34.128906 81.105469 36.691406 78.730469 C 39.253906 76.355469 41.878906 74.050781 44.566406 71.820312 C 47.257812 69.59375 50.007812 67.4375 52.816406 65.359375 C 55.625 63.285156 58.488281 61.285156 61.40625 59.367188 C 64.328125 57.449219 67.296875 55.613281 70.316406 53.859375 C 73.339844 52.105469 76.40625 50.4375 79.523438 48.851562 C 82.636719 47.269531 85.792969 45.773438 88.988281 44.367188 C 92.183594 42.957031 95.417969 41.640625 98.6875 40.410156 C 101.960938 39.179688 105.261719 38.042969 108.59375 37 C 111.925781 35.953125 115.289062 35 118.671875 34.140625 C 122.058594 33.28125 125.46875 32.519531 128.894531 31.847656 C 132.324219 31.179688 135.769531 30.605469 139.230469 30.125 C 142.691406 29.644531 146.160156 29.265625 149.644531 28.976562 C 154.953125 28.511719 160.304688 28.296875 165.683594 28.292969 C 198.945312 28.308594 242.796875 30.527344 281.105469 39.753906 C 304.414062 45.328125 325.675781 53.558594 341.21875 65.4375 C 362.628906 81.785156 384.625 108.300781 401.789062 140.175781 C 421.964844 177.453125 435.375 222.152344 433.472656 266.25 Z M 433.472656 266.25 " fill-opacity="1" fill-rule="nonzero"/></g></g></g><g clip-path="url(#a60c0951bf)"><g clip-path="url(#0cf1546d23)"><g clip-path="url(#16cb7d1c76)"><path fill="#d69397" d="M 156.71875 123.359375 C 156.835938 124.191406 156.871094 125.027344 156.824219 125.863281 C 156.777344 126.703125 156.648438 127.527344 156.4375 128.339844 C 156.230469 129.152344 155.941406 129.9375 155.578125 130.695312 C 155.210938 131.453125 154.777344 132.164062 154.269531 132.835938 C 153.765625 133.507812 153.199219 134.121094 152.570312 134.679688 C 151.945312 135.238281 151.269531 135.730469 150.546875 136.15625 C 149.820312 136.582031 149.0625 136.933594 148.269531 137.207031 C 147.476562 137.484375 146.664062 137.679688 145.832031 137.796875 L 122.503906 141.070312 C 121.671875 141.1875 120.839844 141.21875 120 141.171875 C 119.160156 141.121094 118.335938 140.992188 117.523438 140.78125 C 116.710938 140.570312 115.929688 140.285156 115.171875 139.917969 C 114.417969 139.554688 113.703125 139.117188 113.035156 138.613281 C 112.363281 138.105469 111.75 137.542969 111.191406 136.914062 C 110.632812 136.289062 110.136719 135.613281 109.710938 134.890625 C 109.285156 134.167969 108.933594 133.410156 108.65625 132.617188 C 108.382812 131.824219 108.183594 131.015625 108.066406 130.183594 C 107.949219 129.351562 107.917969 128.515625 107.964844 127.679688 C 108.011719 126.839844 108.140625 126.015625 108.351562 125.203125 C 108.5625 124.390625 108.851562 123.605469 109.214844 122.847656 C 109.578125 122.09375 110.015625 121.378906 110.519531 120.710938 C 111.027344 120.039062 111.59375 119.425781 112.21875 118.867188 C 112.84375 118.304688 113.519531 117.8125 114.242188 117.386719 C 114.96875 116.960938 115.726562 116.613281 116.519531 116.335938 C 117.3125 116.058594 118.121094 115.863281 118.953125 115.746094 L 130.292969 114.148438 L 142.285156 112.425781 C 143.117188 112.308594 143.953125 112.273438 144.792969 112.324219 C 145.632812 112.371094 146.460938 112.5 147.273438 112.710938 C 148.089844 112.925781 148.875 113.214844 149.632812 113.582031 C 150.390625 113.945312 151.101562 114.382812 151.773438 114.890625 C 152.445312 115.402344 153.058594 115.96875 153.617188 116.597656 C 154.175781 117.226562 154.667969 117.90625 155.09375 118.632812 C 155.515625 119.359375 155.867188 120.121094 156.140625 120.914062 C 156.414062 121.710938 156.609375 122.523438 156.71875 123.359375 Z M 156.71875 123.359375 " fill-opacity="1" fill-rule="nonzero"/></g></g></g><g clip-path="url(#4a335cab40)"><g clip-path="url(#41d4f6013c)"><g clip-path="url(#1fbd3aefd5)"><path fill="#bb5f66" d="M 149.789062 29.066406 C 149.789062 29.066406 111.675781 -8.90625 65.03125 16.367188 C 65.03125 16.367188 7.917969 17.214844 7.726562 91.683594 C 7.539062 166.148438 79.417969 168.441406 108.523438 111.230469 C 137.632812 54.015625 129.15625 40.824219 149.789062 29.066406 Z M 149.789062 29.066406 " fill-opacity="1" fill-rule="nonzero"/></g></g></g><g clip-path="url(#691020194c)"><g clip-path="url(#fd2ab01b76)"><g clip-path="url(#aed37730dd)"><path fill="#d69397" d="M 167.335938 268.082031 C 168.886719 300.003906 178.460938 331.617188 199.382812 359.984375 C 203.644531 365.738281 208.460938 370.988281 213.832031 375.730469 C 219.425781 380.664062 225.414062 385.0625 231.789062 388.929688 C 234.679688 387.363281 237.320312 385.453125 239.714844 383.203125 C 242.105469 380.953125 244.175781 378.433594 245.917969 375.648438 L 567.324219 374.8125 C 568.617188 376.964844 570.125 378.957031 571.847656 380.785156 C 575.8125 378.824219 579.617188 376.832031 583.253906 374.769531 C 600.941406 364.769531 614.574219 353.605469 622.558594 341.519531 C 640.371094 314.6875 648.925781 291.96875 650.761719 270.296875 C 654.285156 228.277344 632.652344 190.082031 604.191406 133.074219 C 603.648438 131.945312 603.058594 130.921875 602.550781 129.863281 C 598.996094 122.996094 595.019531 116.382812 590.625 110.019531 C 588.636719 107.148438 586.566406 104.335938 584.421875 101.578125 C 582.273438 98.820312 580.050781 96.128906 577.757812 93.496094 C 575.460938 90.863281 573.09375 88.292969 570.652344 85.792969 C 568.214844 83.292969 565.707031 80.859375 563.136719 78.496094 C 560.5625 76.136719 557.925781 73.847656 555.222656 71.628906 C 552.523438 69.414062 549.761719 67.273438 546.941406 65.210938 C 544.125 63.148438 541.25 61.167969 538.320312 59.261719 C 535.390625 57.359375 532.410156 55.539062 529.378906 53.800781 C 526.347656 52.0625 523.273438 50.410156 520.152344 48.84375 C 517.027344 47.277344 513.867188 45.796875 510.660156 44.40625 C 507.457031 43.015625 504.214844 41.710938 500.941406 40.5 C 497.664062 39.289062 494.355469 38.167969 491.015625 37.140625 C 487.679688 36.113281 484.3125 35.179688 480.921875 34.335938 C 477.53125 33.496094 474.121094 32.75 470.6875 32.097656 C 467.257812 31.445312 463.808594 30.886719 460.347656 30.425781 C 456.882812 29.964844 453.410156 29.601562 449.925781 29.332031 C 444.617188 28.894531 439.261719 28.707031 433.882812 28.734375 C 400.625 28.921875 356.785156 31.367188 318.519531 40.792969 C 295.242188 46.488281 274.023438 54.832031 258.542969 66.789062 C 237.21875 83.246094 215.359375 109.878906 198.363281 141.839844 C 178.378906 179.222656 165.203125 223.992188 167.335938 268.082031 Z M 167.335938 268.082031 " fill-opacity="1" fill-rule="nonzero"/></g></g></g><g clip-path="url(#027fee5e9e)"><g clip-path="url(#39b31a3269)"><g clip-path="url(#1417223044)"><path fill="#d69397" d="M 443.339844 123.75 C 443.226562 124.582031 443.195312 125.417969 443.25 126.253906 C 443.300781 127.09375 443.433594 127.917969 443.648438 128.730469 C 443.863281 129.542969 444.152344 130.324219 444.523438 131.082031 C 444.890625 131.835938 445.332031 132.546875 445.839844 133.214844 C 446.347656 133.882812 446.917969 134.492188 447.546875 135.050781 C 448.175781 135.605469 448.855469 136.09375 449.582031 136.515625 C 450.308594 136.9375 451.066406 137.285156 451.863281 137.554688 C 452.65625 137.828125 453.46875 138.019531 454.300781 138.128906 L 477.648438 141.28125 C 478.480469 141.394531 479.316406 141.421875 480.152344 141.371094 C 480.992188 141.316406 481.816406 141.183594 482.625 140.96875 C 483.4375 140.753906 484.21875 140.460938 484.972656 140.09375 C 485.726562 139.722656 486.4375 139.285156 487.105469 138.777344 C 487.773438 138.269531 488.386719 137.699219 488.941406 137.070312 C 489.496094 136.441406 489.984375 135.761719 490.40625 135.039062 C 490.828125 134.3125 491.175781 133.550781 491.449219 132.757812 C 491.722656 131.964844 491.914062 131.152344 492.027344 130.320312 C 492.140625 129.488281 492.171875 128.652344 492.117188 127.816406 C 492.066406 126.976562 491.933594 126.152344 491.71875 125.339844 C 491.503906 124.53125 491.210938 123.746094 490.84375 122.992188 C 490.472656 122.238281 490.035156 121.527344 489.527344 120.859375 C 489.015625 120.191406 488.449219 119.582031 487.820312 119.023438 C 487.1875 118.46875 486.511719 117.980469 485.785156 117.558594 C 485.058594 117.136719 484.300781 116.789062 483.503906 116.515625 C 482.710938 116.246094 481.898438 116.054688 481.066406 115.941406 L 469.71875 114.402344 L 457.71875 112.742188 C 456.886719 112.628906 456.050781 112.601562 455.210938 112.652344 C 454.371094 112.703125 453.542969 112.839844 452.730469 113.054688 C 451.917969 113.269531 451.132812 113.5625 450.378906 113.933594 C 449.621094 114.304688 448.910156 114.746094 448.242188 115.257812 C 447.574219 115.769531 446.964844 116.339844 446.40625 116.972656 C 445.851562 117.605469 445.363281 118.285156 444.945312 119.015625 C 444.523438 119.742188 444.179688 120.507812 443.910156 121.304688 C 443.636719 122.101562 443.449219 122.917969 443.339844 123.75 Z M 443.339844 123.75 " fill-opacity="1" fill-rule="nonzero"/></g></g></g><g clip-path="url(#c6906c33f7)"><g clip-path="url(#1a7bdd0928)"><g clip-path="url(#79f7239147)"><path fill="#bb5f66" d="M 449.78125 29.425781 C 449.78125 29.425781 487.699219 -8.746094 534.472656 16.285156 C 534.472656 16.285156 591.589844 16.832031 592.167969 91.300781 C 592.742188 165.765625 520.878906 168.433594 491.472656 111.371094 C 462.066406 54.308594 470.476562 41.074219 449.78125 29.425781 Z M 449.78125 29.425781 " fill-opacity="1" fill-rule="nonzero"/></g></g></g><g clip-path="url(#b808f93776)"><g clip-path="url(#2aa881f507)"><path fill="#bb5f66" d="M 417.757812 234.382812 L 504.382812 234.382812 L 504.382812 297.378906 L 417.757812 297.378906 Z M 417.757812 234.382812 " fill-opacity="1" fill-rule="nonzero"/></g></g><g clip-path="url(#30030f1770)"><g clip-path="url(#94a8687b2d)"><path fill="#bb5f66" d="M 95.402344 234.382812 L 182.023438 234.382812 L 182.023438 297.378906 L 95.402344 297.378906 Z M 95.402344 234.382812 " fill-opacity="1" fill-rule="nonzero"/></g></g><g clip-path="url(#639ac16271)"><g clip-path="url(#4717c1e17e)"><g clip-path="url(#2986fe5606)"><path fill="#d69397" d="M 613.199219 213.902344 C 614.925781 254.339844 606.496094 295.304688 583.382812 333.492188 C 578.667969 341.242188 573.199219 348.414062 566.976562 355.015625 C 560.488281 361.878906 553.445312 368.121094 545.847656 373.730469 C 542.027344 372.085938 538.476562 369.984375 535.199219 367.421875 C 531.917969 364.855469 529.019531 361.917969 526.503906 358.605469 L 121.089844 394.597656 C 119.707031 397.460938 118.035156 400.144531 116.074219 402.652344 C 110.847656 400.636719 105.820312 398.558594 100.996094 396.378906 C 77.542969 385.804688 59.058594 373.300781 47.597656 358.980469 C 22.042969 327.195312 8.636719 299.53125 3.824219 272.410156 C -5.460938 219.832031 17.417969 169.167969 46.734375 93.996094 C 47.292969 92.515625 47.917969 91.152344 48.4375 89.761719 C 52.128906 80.691406 56.378906 71.890625 61.1875 63.359375 C 63.367188 59.507812 65.648438 55.722656 68.039062 52 C 70.429688 48.277344 72.921875 44.625 75.511719 41.039062 C 78.105469 37.453125 80.792969 33.945312 83.582031 30.507812 C 86.367188 27.074219 89.25 23.71875 92.222656 20.441406 C 95.195312 17.164062 98.257812 13.976562 101.40625 10.871094 C 104.558594 7.761719 107.792969 4.746094 111.109375 1.820312 C 114.425781 -1.105469 117.824219 -3.9375 121.296875 -6.675781 C 124.773438 -9.414062 128.320312 -12.050781 131.941406 -14.59375 C 135.566406 -17.132812 139.253906 -19.570312 143.011719 -21.910156 C 146.765625 -24.246094 150.585938 -26.476562 154.464844 -28.597656 C 158.347656 -30.722656 162.28125 -32.738281 166.273438 -34.644531 C 170.269531 -36.550781 174.308594 -38.34375 178.402344 -40.023438 C 182.492188 -41.707031 186.628906 -43.273438 190.808594 -44.722656 C 194.988281 -46.175781 199.203125 -47.511719 203.457031 -48.730469 C 207.707031 -49.945312 211.992188 -51.046875 216.304688 -52.027344 C 220.621094 -53.007812 224.957031 -53.867188 229.320312 -54.605469 C 235.964844 -55.769531 242.699219 -56.625 249.484375 -57.214844 C 291.445312 -60.808594 347.011719 -62.773438 396.351562 -55.300781 C 426.363281 -50.800781 454.082031 -42.726562 474.984375 -29.429688 C 503.773438 -11.132812 534.40625 19.933594 559.527344 58.277344 C 589.03125 103.117188 610.808594 158.058594 613.199219 213.902344 Z M 613.199219 213.902344 " fill-opacity="1" fill-rule="nonzero"/></g></g></g><g clip-path="url(#fb9352627e)"><g clip-path="url(#89584f1dd5)"><g clip-path="url(#03b9e37a49)"><path fill="#d69397" d="M 223.050781 156.742188 C 224.054688 156.773438 225.054688 156.871094 226.050781 157.023438 C 227.042969 157.179688 228.03125 157.394531 229.007812 157.664062 C 229.984375 157.9375 230.945312 158.269531 231.894531 158.660156 C 232.84375 159.050781 233.773438 159.496094 234.6875 159.996094 C 235.597656 160.5 236.484375 161.054688 237.351562 161.664062 C 238.21875 162.273438 239.054688 162.933594 239.867188 163.640625 C 240.679688 164.351562 241.460938 165.109375 242.210938 165.917969 C 242.960938 166.722656 243.675781 167.570312 244.355469 168.464844 C 245.035156 169.355469 245.675781 170.289062 246.28125 171.257812 C 246.886719 172.230469 247.449219 173.234375 247.972656 174.273438 C 248.496094 175.316406 248.976562 176.382812 249.410156 177.484375 C 249.847656 178.582031 250.238281 179.703125 250.582031 180.851562 C 250.929688 182 251.226562 183.164062 251.480469 184.351562 C 251.730469 185.535156 251.933594 186.734375 252.085938 187.945312 C 252.242188 189.15625 252.347656 190.371094 252.402344 191.597656 C 252.460938 192.824219 252.46875 194.050781 252.425781 195.277344 C 252.382812 196.503906 252.292969 197.726562 252.152344 198.945312 C 252.011719 200.164062 251.820312 201.371094 251.585938 202.570312 C 251.347656 203.765625 251.0625 204.949219 250.730469 206.113281 C 250.398438 207.277344 250.023438 208.417969 249.597656 209.539062 C 249.175781 210.660156 248.707031 211.753906 248.199219 212.820312 C 247.6875 213.886719 247.136719 214.921875 246.542969 215.925781 C 245.949219 216.925781 245.316406 217.890625 244.648438 218.816406 C 243.980469 219.742188 243.273438 220.628906 242.535156 221.472656 C 241.792969 222.316406 241.023438 223.113281 240.21875 223.867188 C 239.417969 224.617188 238.585938 225.320312 237.726562 225.976562 C 236.867188 226.628906 235.988281 227.230469 235.082031 227.777344 C 234.175781 228.324219 233.25 228.820312 232.308594 229.257812 C 231.363281 229.695312 230.40625 230.074219 229.429688 230.398438 C 228.457031 230.722656 227.476562 230.988281 226.480469 231.191406 C 225.488281 231.398438 224.488281 231.542969 223.488281 231.628906 C 222.484375 231.714844 221.480469 231.742188 220.476562 231.707031 C 219.46875 231.671875 218.472656 231.578125 217.476562 231.421875 C 216.480469 231.269531 215.496094 231.054688 214.515625 230.78125 C 213.539062 230.507812 212.578125 230.175781 211.628906 229.789062 C 210.679688 229.398438 209.75 228.953125 208.839844 228.449219 C 207.925781 227.949219 207.039062 227.394531 206.171875 226.785156 C 205.304688 226.175781 204.46875 225.515625 203.65625 224.804688 C 202.84375 224.09375 202.0625 223.335938 201.316406 222.53125 C 200.566406 221.726562 199.851562 220.875 199.167969 219.984375 C 198.488281 219.089844 197.847656 218.160156 197.242188 217.1875 C 196.636719 216.21875 196.074219 215.210938 195.550781 214.171875 C 195.027344 213.132812 194.550781 212.0625 194.113281 210.964844 C 193.675781 209.867188 193.285156 208.742188 192.941406 207.59375 C 192.59375 206.449219 192.296875 205.28125 192.046875 204.097656 C 191.792969 202.910156 191.59375 201.714844 191.4375 200.503906 C 191.28125 199.292969 191.175781 198.074219 191.121094 196.847656 C 191.0625 195.625 191.058594 194.398438 191.097656 193.171875 C 191.140625 191.941406 191.234375 190.71875 191.375 189.5 C 191.511719 188.28125 191.703125 187.074219 191.941406 185.878906 C 192.175781 184.679688 192.460938 183.5 192.792969 182.335938 C 193.125 181.171875 193.503906 180.027344 193.925781 178.90625 C 194.347656 177.785156 194.816406 176.691406 195.328125 175.625 C 195.835938 174.558594 196.390625 173.523438 196.980469 172.523438 C 197.574219 171.523438 198.207031 170.558594 198.875 169.628906 C 199.546875 168.703125 200.25 167.816406 200.992188 166.972656 C 201.730469 166.128906 202.5 165.332031 203.304688 164.582031 C 204.109375 163.828125 204.9375 163.125 205.796875 162.472656 C 206.65625 161.820312 207.539062 161.21875 208.441406 160.667969 C 209.347656 160.121094 210.273438 159.628906 211.21875 159.191406 C 212.160156 158.753906 213.121094 158.371094 214.09375 158.046875 C 215.066406 157.726562 216.050781 157.460938 217.042969 157.253906 C 218.035156 157.050781 219.035156 156.902344 220.039062 156.816406 C 221.042969 156.730469 222.046875 156.707031 223.050781 156.742188 Z M 223.050781 156.742188 " fill-opacity="1" fill-rule="nonzero"/></g></g></g><g clip-path="url(#eceb831a56)"><g clip-path="url(#fb108c128c)"><g clip-path="url(#d81857e0dd)"><path fill="#d69397" d="M 378.121094 152.113281 C 379.125 152.148438 380.125 152.242188 381.121094 152.398438 C 382.113281 152.554688 383.101562 152.765625 384.078125 153.039062 C 385.054688 153.3125 386.015625 153.644531 386.964844 154.035156 C 387.914062 154.425781 388.84375 154.871094 389.757812 155.371094 C 390.667969 155.871094 391.558594 156.429688 392.421875 157.039062 C 393.289062 157.648438 394.128906 158.304688 394.9375 159.015625 C 395.75 159.726562 396.53125 160.484375 397.28125 161.292969 C 398.03125 162.097656 398.746094 162.945312 399.425781 163.839844 C 400.105469 164.730469 400.75 165.664062 401.351562 166.632812 C 401.957031 167.605469 402.519531 168.609375 403.042969 169.648438 C 403.566406 170.6875 404.046875 171.757812 404.480469 172.859375 C 404.917969 173.957031 405.308594 175.078125 405.65625 176.226562 C 406 177.375 406.296875 178.539062 406.550781 179.726562 C 406.800781 180.910156 407.003906 182.109375 407.15625 183.320312 C 407.3125 184.53125 407.417969 185.746094 407.476562 186.972656 C 407.53125 188.199219 407.539062 189.421875 407.496094 190.652344 C 407.453125 191.878906 407.363281 193.101562 407.222656 194.320312 C 407.082031 195.539062 406.894531 196.746094 406.65625 197.945312 C 406.417969 199.140625 406.132812 200.320312 405.800781 201.488281 C 405.46875 202.652344 405.09375 203.792969 404.667969 204.914062 C 404.246094 206.035156 403.777344 207.128906 403.269531 208.195312 C 402.757812 209.261719 402.207031 210.296875 401.613281 211.296875 C 401.019531 212.300781 400.390625 213.265625 399.71875 214.191406 C 399.050781 215.117188 398.34375 216.003906 397.605469 216.847656 C 396.863281 217.691406 396.09375 218.488281 395.289062 219.242188 C 394.488281 219.992188 393.65625 220.695312 392.796875 221.351562 C 391.941406 222.003906 391.058594 222.605469 390.152344 223.152344 C 389.246094 223.699219 388.320312 224.195312 387.378906 224.632812 C 386.433594 225.070312 385.476562 225.449219 384.503906 225.773438 C 383.527344 226.097656 382.546875 226.359375 381.550781 226.566406 C 380.558594 226.773438 379.5625 226.917969 378.558594 227.003906 C 377.554688 227.089844 376.550781 227.117188 375.546875 227.082031 C 374.542969 227.046875 373.542969 226.953125 372.546875 226.796875 C 371.550781 226.644531 370.566406 226.429688 369.589844 226.15625 C 368.613281 225.882812 367.648438 225.550781 366.699219 225.160156 C 365.75 224.773438 364.820312 224.328125 363.910156 223.824219 C 362.996094 223.324219 362.109375 222.769531 361.242188 222.160156 C 360.378906 221.550781 359.539062 220.890625 358.726562 220.179688 C 357.914062 219.46875 357.136719 218.710938 356.386719 217.90625 C 355.636719 217.101562 354.921875 216.25 354.242188 215.359375 C 353.558594 214.464844 352.917969 213.535156 352.3125 212.5625 C 351.710938 211.59375 351.144531 210.585938 350.621094 209.546875 C 350.101562 208.507812 349.621094 207.4375 349.183594 206.339844 C 348.746094 205.238281 348.355469 204.117188 348.011719 202.96875 C 347.667969 201.820312 347.367188 200.65625 347.117188 199.472656 C 346.867188 198.285156 346.664062 197.089844 346.507812 195.878906 C 346.355469 194.667969 346.25 193.449219 346.191406 192.222656 C 346.136719 191 346.128906 189.773438 346.171875 188.546875 C 346.210938 187.316406 346.304688 186.09375 346.445312 184.875 C 346.585938 183.65625 346.773438 182.449219 347.011719 181.253906 C 347.246094 180.054688 347.53125 178.875 347.863281 177.710938 C 348.195312 176.542969 348.574219 175.402344 348.996094 174.28125 C 349.421875 173.160156 349.886719 172.066406 350.398438 171 C 350.90625 169.933594 351.460938 168.898438 352.054688 167.898438 C 352.644531 166.894531 353.277344 165.933594 353.945312 165.003906 C 354.617188 164.078125 355.320312 163.191406 356.0625 162.347656 C 356.800781 161.503906 357.574219 160.707031 358.375 159.957031 C 359.179688 159.203125 360.007812 158.5 360.867188 157.847656 C 361.726562 157.195312 362.609375 156.59375 363.515625 156.042969 C 364.417969 155.496094 365.34375 155.003906 366.289062 154.566406 C 367.230469 154.128906 368.191406 153.746094 369.164062 153.421875 C 370.136719 153.101562 371.121094 152.835938 372.113281 152.628906 C 373.105469 152.425781 374.105469 152.277344 375.109375 152.191406 C 376.113281 152.105469 377.117188 152.082031 378.121094 152.113281 Z M 378.121094 152.113281 " fill-opacity="1" fill-rule="nonzero"/></g></g></g><g clip-path="url(#0da7ca3c63)"><g clip-path="url(#904530a959)"><g clip-path="url(#83db5faa27)"><path fill="#d69397" d="M 260.257812 336.5625 C 214.953125 340.585938 186.613281 311.667969 185.347656 310.347656 C 185.140625 310.105469 184.957031 309.84375 184.796875 309.566406 C 184.636719 309.289062 184.503906 308.996094 184.398438 308.695312 C 184.292969 308.390625 184.21875 308.082031 184.171875 307.765625 C 184.125 307.449219 184.109375 307.128906 184.125 306.808594 C 184.140625 306.488281 184.183594 306.171875 184.261719 305.859375 C 184.335938 305.550781 184.4375 305.246094 184.570312 304.957031 C 184.703125 304.664062 184.863281 304.386719 185.046875 304.125 C 185.230469 303.863281 185.441406 303.621094 185.671875 303.398438 C 185.902344 303.175781 186.152344 302.976562 186.421875 302.804688 C 186.691406 302.628906 186.972656 302.480469 187.269531 302.359375 C 187.566406 302.238281 187.871094 302.148438 188.1875 302.085938 C 188.5 302.023438 188.820312 301.992188 189.140625 301.988281 C 189.460938 301.984375 189.777344 302.015625 190.09375 302.074219 C 190.40625 302.128906 190.714844 302.21875 191.011719 302.335938 C 191.3125 302.453125 191.597656 302.59375 191.867188 302.765625 C 192.140625 302.9375 192.390625 303.132812 192.625 303.351562 C 192.914062 303.667969 222.867188 334.003906 268.601562 325.273438 C 269.230469 325.203125 269.851562 325.253906 270.460938 325.417969 C 271.070312 325.585938 271.628906 325.855469 272.136719 326.230469 C 272.648438 326.609375 273.070312 327.0625 273.40625 327.597656 C 273.742188 328.132812 273.972656 328.710938 274.089844 329.332031 C 274.210938 329.953125 274.210938 330.574219 274.097656 331.199219 C 273.980469 331.820312 273.757812 332.398438 273.425781 332.9375 C 273.09375 333.472656 272.671875 333.933594 272.167969 334.3125 C 271.660156 334.691406 271.105469 334.96875 270.496094 335.136719 C 267.109375 335.785156 263.695312 336.257812 260.257812 336.5625 Z M 260.257812 336.5625 " fill-opacity="1" fill-rule="nonzero"/></g></g></g><g clip-path="url(#1287913208)"><g clip-path="url(#0e74503aab)"><g clip-path="url(#685c2c69b5)"><path fill="#bb5f66" d="M 238.460938 236.804688 C 241.75 233.367188 245.316406 230.25 249.160156 227.449219 C 253.003906 224.648438 257.066406 222.210938 261.347656 220.132812 C 265.625 218.054688 270.054688 216.371094 274.632812 215.082031 C 279.210938 213.792969 283.867188 212.917969 288.601562 212.460938 C 312.300781 210.285156 347.585938 213.972656 371.949219 250.566406 C 410.515625 308.519531 301.078125 332.035156 243.179688 299.808594 C 207.339844 279.871094 222.050781 253.769531 238.460938 236.804688 Z M 238.460938 236.804688 " fill-opacity="1" fill-rule="nonzero"/></g></g></g><g clip-path="url(#ce2a008df6)"><g clip-path="url(#c68ba1be93)"><g clip-path="url(#2a09cf7165)"><path fill="#86383f" d="M 311.648438 249.425781 C 311.644531 258.097656 315.480469 265.140625 320.210938 265.136719 C 324.9375 265.132812 328.800781 258.109375 328.847656 249.433594 C 328.894531 240.757812 325.019531 233.734375 320.289062 233.726562 C 315.554688 233.714844 311.722656 240.75 311.648438 249.425781 Z M 311.648438 249.425781 " fill-opacity="1" fill-rule="nonzero"/></g></g></g><g clip-path="url(#78f5c0699a)"><g clip-path="url(#127151ce51)"><g clip-path="url(#7c0d3827bd)"><path fill="#86383f" d="M 273.03125 249.402344 C 273.027344 258.074219 276.863281 265.101562 281.59375 265.109375 C 286.324219 265.121094 290.171875 258.085938 290.234375 249.40625 C 290.292969 240.730469 286.402344 233.695312 281.671875 233.699219 C 276.941406 233.703125 273.023438 240.730469 273.03125 249.402344 Z M 273.03125 249.402344 " fill-opacity="1" fill-rule="nonzero"/></g></g></g><g clip-path="url(#aa939d8815)"><g clip-path="url(#7004627f06)"><path fill="#232126" d="M 356.132812 159.886719 L 417.757812 159.886719 L 417.757812 234.273438 L 356.132812 234.273438 Z M 356.132812 159.886719 " fill-opacity="1" fill-rule="nonzero"/></g></g><g clip-path="url(#e22ed4803b)"><g clip-path="url(#f9a1fa8192)"><path fill="#232126" d="M 182.078125 159.886719 L 243.707031 159.886719 L 243.707031 234.273438 L 182.078125 234.273438 Z M 182.078125 159.886719 " fill-opacity="1" fill-rule="nonzero"/></g></g><g clip-path="url(#33d86ebd6f)"><path stroke-linecap="round" transform="matrix(0.718441, 0.211444, -0.211444, 0.718441, 202.551429, 307.716114)" fill="none" stroke-linejoin="miter" d="M 6.000983 6.001731 C 43.103354 5.999883 80.212202 6.001567 117.314573 5.999719 " stroke="#232126" stroke-width="12" stroke-opacity="1" stroke-miterlimit="4"/></g></svg>