<svg xmlns="http://www.w3.org/2000/svg" xmlns:xlink="http://www.w3.org/1999/xlink" width="643" zoomAndPan="magnify" viewBox="0 0 482.25 499.499998" height="666" preserveAspectRatio="xMidYMid meet" version="1.0"><defs><clipPath id="dcc5a5b77d"><path d="M 0 16.921875 L 481.5 16.921875 L 481.5 498.421875 L 0 498.421875 Z M 0 16.921875 " clip-rule="nonzero"/></clipPath><clipPath id="64e17f0121"><path d="M 38 15 L 135 15 L 135 107 L 38 107 Z M 38 15 " clip-rule="nonzero"/></clipPath><clipPath id="13cc5e01e8"><path d="M 22.820312 58.5 L 105.285156 0.0507812 L 150.492188 63.832031 L 68.027344 122.28125 Z M 22.820312 58.5 " clip-rule="nonzero"/></clipPath><clipPath id="036ee75e73"><path d="M 73.277344 22.738281 C 90.890625 10.257812 115.285156 14.414062 127.769531 32.027344 C 140.25 49.640625 136.09375 74.035156 118.480469 86.519531 L 99.917969 99.675781 C 82.304688 112.160156 57.90625 108.003906 45.425781 90.390625 C 32.941406 72.777344 37.097656 48.382812 54.710938 35.898438 Z M 73.277344 22.738281 " clip-rule="nonzero"/></clipPath><clipPath id="8e7ec5b2a5"><path d="M 346 15 L 444 15 L 444 107 L 346 107 Z M 346 15 " clip-rule="nonzero"/></clipPath><clipPath id="ce5c894219"><path d="M 375.609375 0.136719 L 458.691406 57.703125 L 414.167969 121.960938 L 331.085938 64.394531 Z M 375.609375 0.136719 " clip-rule="nonzero"/></clipPath><clipPath id="47804291b5"><path d="M 426.441406 35.359375 C 444.183594 47.652344 448.601562 72.003906 436.308594 89.75 C 424.015625 107.492188 399.664062 111.910156 381.917969 99.617188 L 363.214844 86.65625 C 345.46875 74.363281 341.050781 50.011719 353.347656 32.265625 C 365.640625 14.523438 389.992188 10.105469 407.738281 22.398438 Z M 426.441406 35.359375 " clip-rule="nonzero"/></clipPath></defs><g clip-path="url(#dcc5a5b77d)"><path fill="#000000" d="M 420.414062 329.878906 C 410.8125 353.792969 396.378906 375.753906 377.605469 394.527344 C 359.652344 412.480469 338.777344 426.480469 316.066406 436.070312 C 302.695312 441.722656 253.625 460.226562 279.46875 386.167969 C 300.550781 325.757812 356.328125 301.941406 395.207031 301.640625 C 420.992188 301.445312 423.875 321.269531 420.414062 329.878906 Z M 195.261719 257.671875 C 195.261719 232.546875 215.625 212.183594 240.75 212.183594 C 265.875 212.183594 286.242188 232.546875 286.242188 257.671875 C 286.242188 282.792969 265.875 303.164062 240.75 303.164062 C 215.625 303.164062 195.261719 282.792969 195.261719 257.671875 Z M 165.4375 436.070312 C 142.722656 426.480469 121.851562 412.480469 103.894531 394.527344 C 85.125 375.753906 70.6875 353.792969 61.085938 329.878906 C 57.625 321.269531 60.507812 301.445312 86.292969 301.640625 C 125.171875 301.941406 180.953125 325.757812 202.035156 386.167969 C 227.878906 460.226562 178.808594 441.722656 165.4375 436.070312 Z M 56.671875 197.589844 C 65.984375 168.957031 81.992188 142.71875 103.894531 120.816406 C 140.449219 84.261719 189.054688 64.117188 240.75 64.125 C 292.445312 64.117188 341.050781 84.261719 377.605469 120.816406 C 399.507812 142.71875 415.515625 168.957031 424.828125 197.589844 C 430.097656 213.820312 411.75 227.410156 397.617188 217.839844 C 357.640625 190.765625 302.125 173.988281 240.75 173.988281 C 179.375 173.988281 123.859375 190.765625 83.882812 217.839844 C 69.753906 227.410156 51.402344 213.820312 56.671875 197.589844 Z M 240.75 16.921875 C 107.785156 16.921875 0 124.703125 0 257.671875 C 0 390.640625 107.785156 498.421875 240.75 498.421875 C 373.71875 498.421875 481.5 390.640625 481.5 257.671875 C 481.5 124.703125 373.71875 16.921875 240.75 16.921875 " fill-opacity="1" fill-rule="nonzero"/></g><g clip-path="url(#64e17f0121)"><g clip-path="url(#13cc5e01e8)"><g clip-path="url(#036ee75e73)"><path fill="#bb5f66" d="M 22.820312 58.5 L 105.285156 0.0507812 L 150.492188 63.832031 L 68.027344 122.28125 Z M 22.820312 58.5 " fill-opacity="1" fill-rule="nonzero"/></g></g></g><g clip-path="url(#8e7ec5b2a5)"><g clip-path="url(#ce5c894219)"><g clip-path="url(#47804291b5)"><path fill="#bb5f66" d="M 375.609375 0.136719 L 458.691406 57.703125 L 414.167969 121.960938 L 331.085938 64.394531 Z M 375.609375 0.136719 " fill-opacity="1" fill-rule="nonzero"/></g></g></g></svg>